solid ASCII
  facet normal 1.000000e+00 -0.000000e+00 0.000000e+00
    outer loop
      vertex   3.077925e+01 -3.606199e+01 1.692084e+01
      vertex   3.077925e+01 -3.606199e+01 1.560000e+01
      vertex   3.077925e+01 -2.946199e+01 1.692084e+01
    endloop
  endfacet
  facet normal 1.000000e+00 0.000000e+00 0.000000e+00
    outer loop
      vertex   3.077925e+01 -2.946199e+01 1.692084e+01
      vertex   3.077925e+01 -3.606199e+01 1.560000e+01
      vertex   3.077925e+01 -2.946199e+01 1.560000e+01
    endloop
  endfacet
  facet normal 8.191520e-01 0.000000e+00 -5.735764e-01
    outer loop
      vertex   3.223510e+01 -3.751783e+01 1.900000e+01
      vertex   3.077925e+01 -3.606199e+01 1.692084e+01
      vertex   3.223510e+01 -2.946199e+01 1.900000e+01
    endloop
  endfacet
  facet normal 8.191520e-01 0.000000e+00 -5.735764e-01
    outer loop
      vertex   3.223510e+01 -2.946199e+01 1.900000e+01
      vertex   3.077925e+01 -3.606199e+01 1.692084e+01
      vertex   3.077925e+01 -2.946199e+01 1.692084e+01
    endloop
  endfacet
  facet normal -1.000000e+00 0.000000e+00 0.000000e+00
    outer loop
      vertex   2.717925e+01 -3.606199e+01 1.560000e+01
      vertex   2.717925e+01 -3.606199e+01 1.692084e+01
      vertex   2.717925e+01 -2.946199e+01 1.560000e+01
    endloop
  endfacet
  facet normal -1.000000e+00 0.000000e+00 0.000000e+00
    outer loop
      vertex   2.717925e+01 -2.946199e+01 1.560000e+01
      vertex   2.717925e+01 -3.606199e+01 1.692084e+01
      vertex   2.717925e+01 -2.946199e+01 1.692084e+01
    endloop
  endfacet
  facet normal -8.191520e-01 0.000000e+00 -5.735764e-01
    outer loop
      vertex   2.572341e+01 -3.751783e+01 1.900000e+01
      vertex   2.572341e+01 -2.946199e+01 1.900000e+01
      vertex   2.717925e+01 -3.606199e+01 1.692084e+01
    endloop
  endfacet
  facet normal -8.191520e-01 0.000000e+00 -5.735764e-01
    outer loop
      vertex   2.717925e+01 -3.606199e+01 1.692084e+01
      vertex   2.572341e+01 -2.946199e+01 1.900000e+01
      vertex   2.717925e+01 -2.946199e+01 1.692084e+01
    endloop
  endfacet
  facet normal -0.000000e+00 1.000000e+00 0.000000e+00
    outer loop
      vertex   2.572341e+01 -2.946199e+01 1.900000e+01
      vertex   3.223510e+01 -2.946199e+01 1.900000e+01
      vertex   2.717925e+01 -2.946199e+01 1.692084e+01
    endloop
  endfacet
  facet normal 0.000000e+00 1.000000e+00 0.000000e+00
    outer loop
      vertex   2.717925e+01 -2.946199e+01 1.692084e+01
      vertex   3.223510e+01 -2.946199e+01 1.900000e+01
      vertex   3.077925e+01 -2.946199e+01 1.692084e+01
    endloop
  endfacet
  facet normal -0.000000e+00 1.000000e+00 0.000000e+00
    outer loop
      vertex   2.717925e+01 -2.946199e+01 1.692084e+01
      vertex   3.077925e+01 -2.946199e+01 1.692084e+01
      vertex   2.717925e+01 -2.946199e+01 1.560000e+01
    endloop
  endfacet
  facet normal 0.000000e+00 1.000000e+00 0.000000e+00
    outer loop
      vertex   2.717925e+01 -2.946199e+01 1.560000e+01
      vertex   3.077925e+01 -2.946199e+01 1.692084e+01
      vertex   3.077925e+01 -2.946199e+01 1.560000e+01
    endloop
  endfacet
  facet normal -0.000000e+00 1.000000e+00 0.000000e+00
    outer loop
      vertex   2.717925e+01 -2.946199e+01 1.560000e+01
      vertex   3.077925e+01 -2.946199e+01 1.560000e+01
      vertex   2.717925e+01 -2.946199e+01 1.460000e+01
    endloop
  endfacet
  facet normal -0.000000e+00 1.000000e+00 0.000000e+00
    outer loop
      vertex   2.717925e+01 -2.946199e+01 1.460000e+01
      vertex   3.077925e+01 -2.946199e+01 1.560000e+01
      vertex   3.077925e+01 -2.946199e+01 1.460000e+01
    endloop
  endfacet
  facet normal 0.000000e+00 1.000000e+00 0.000000e+00
    outer loop
      vertex   2.717925e+01 -2.946199e+01 1.460000e+01
      vertex   3.077925e+01 -2.946199e+01 1.460000e+01
      vertex   2.717925e+01 -2.946199e+01 7.034175e+00
    endloop
  endfacet
  facet normal 0.000000e+00 1.000000e+00 0.000000e+00
    outer loop
      vertex   2.717925e+01 -2.946199e+01 7.034175e+00
      vertex   3.077925e+01 -2.946199e+01 1.460000e+01
      vertex   3.077925e+01 -2.946199e+01 7.034175e+00
    endloop
  endfacet
  facet normal 0.000000e+00 1.000000e+00 0.000000e+00
    outer loop
      vertex   3.077925e+01 -2.946199e+01 1.560000e+01
      vertex   3.127925e+01 -2.946199e+01 1.510000e+01
      vertex   3.077925e+01 -2.946199e+01 1.460000e+01
    endloop
  endfacet
  facet normal 0.000000e+00 1.000000e+00 -0.000000e+00
    outer loop
      vertex   2.717925e+01 -2.946199e+01 1.460000e+01
      vertex   2.667925e+01 -2.946199e+01 1.510000e+01
      vertex   2.717925e+01 -2.946199e+01 1.560000e+01
    endloop
  endfacet
  facet normal 0.000000e+00 0.000000e+00 1.000000e+00
    outer loop
      vertex   3.223510e+01 -2.946199e+01 1.900000e+01
      vertex   2.572341e+01 -2.946199e+01 1.900000e+01
      vertex   3.223510e+01 -3.751783e+01 1.900000e+01
    endloop
  endfacet
  facet normal 0.000000e+00 0.000000e+00 1.000000e+00
    outer loop
      vertex   3.223510e+01 -3.751783e+01 1.900000e+01
      vertex   2.572341e+01 -2.946199e+01 1.900000e+01
      vertex   2.572341e+01 -3.751783e+01 1.900000e+01
    endloop
  endfacet
  facet normal -0.000000e+00 -8.191520e-01 -5.735764e-01
    outer loop
      vertex   3.223510e+01 -3.751783e+01 1.900000e+01
      vertex   2.572341e+01 -3.751783e+01 1.900000e+01
      vertex   3.077925e+01 -3.606199e+01 1.692084e+01
    endloop
  endfacet
  facet normal -0.000000e+00 -8.191520e-01 -5.735764e-01
    outer loop
      vertex   3.077925e+01 -3.606199e+01 1.692084e+01
      vertex   2.572341e+01 -3.751783e+01 1.900000e+01
      vertex   2.717925e+01 -3.606199e+01 1.692084e+01
    endloop
  endfacet
  facet normal 0.000000e+00 7.071068e-01 -7.071068e-01
    outer loop
      vertex   3.077925e+01 -3.098546e+01 7.034175e+00
      vertex   3.077925e+01 -3.341963e+01 4.600000e+00
      vertex   2.717925e+01 -3.098546e+01 7.034175e+00
    endloop
  endfacet
  facet normal 0.000000e+00 7.071068e-01 -7.071068e-01
    outer loop
      vertex   2.717925e+01 -3.098546e+01 7.034175e+00
      vertex   3.077925e+01 -3.341963e+01 4.600000e+00
      vertex   2.717925e+01 -3.341963e+01 4.600000e+00
    endloop
  endfacet
  facet normal -0.000000e+00 -0.000000e+00 -1.000000e+00
    outer loop
      vertex   3.077925e+01 -2.946199e+01 7.034175e+00
      vertex   3.077925e+01 -3.098546e+01 7.034175e+00
      vertex   2.717925e+01 -2.946199e+01 7.034175e+00
    endloop
  endfacet
  facet normal 0.000000e+00 0.000000e+00 -1.000000e+00
    outer loop
      vertex   2.717925e+01 -2.946199e+01 7.034175e+00
      vertex   3.077925e+01 -3.098546e+01 7.034175e+00
      vertex   2.717925e+01 -3.098546e+01 7.034175e+00
    endloop
  endfacet
  facet normal -1.000000e+00 0.000000e+00 0.000000e+00
    outer loop
      vertex   2.717925e+01 -2.946199e+01 7.034175e+00
      vertex   2.717925e+01 -3.098546e+01 7.034175e+00
      vertex   2.717925e+01 -2.946199e+01 1.460000e+01
    endloop
  endfacet
  facet normal -1.000000e+00 -0.000000e+00 0.000000e+00
    outer loop
      vertex   2.717925e+01 -2.946199e+01 1.460000e+01
      vertex   2.717925e+01 -3.098546e+01 7.034175e+00
      vertex   2.717925e+01 -3.606199e+01 1.460000e+01
    endloop
  endfacet
  facet normal -1.000000e+00 0.000000e+00 0.000000e+00
    outer loop
      vertex   2.717925e+01 -3.606199e+01 1.460000e+01
      vertex   2.717925e+01 -3.098546e+01 7.034175e+00
      vertex   2.717925e+01 -3.341963e+01 4.600000e+00
    endloop
  endfacet
  facet normal -1.000000e+00 0.000000e+00 0.000000e+00
    outer loop
      vertex   2.717925e+01 -3.606199e+01 1.460000e+01
      vertex   2.717925e+01 -3.341963e+01 4.600000e+00
      vertex   2.717925e+01 -3.606199e+01 4.600000e+00
    endloop
  endfacet
  facet normal 0.000000e+00 0.000000e+00 -1.000000e+00
    outer loop
      vertex   2.717925e+01 -3.341963e+01 4.600000e+00
      vertex   3.077925e+01 -3.341963e+01 4.600000e+00
      vertex   2.717925e+01 -3.606199e+01 4.600000e+00
    endloop
  endfacet
  facet normal 0.000000e+00 0.000000e+00 -1.000000e+00
    outer loop
      vertex   2.717925e+01 -3.606199e+01 4.600000e+00
      vertex   3.077925e+01 -3.341963e+01 4.600000e+00
      vertex   3.077925e+01 -3.606199e+01 4.600000e+00
    endloop
  endfacet
  facet normal 7.071068e-01 0.000000e+00 -7.071068e-01
    outer loop
      vertex   3.077925e+01 -2.946199e+01 1.460000e+01
      vertex   3.127925e+01 -2.946199e+01 1.510000e+01
      vertex   3.077925e+01 -3.606199e+01 1.460000e+01
    endloop
  endfacet
  facet normal 7.071068e-01 0.000000e+00 -7.071068e-01
    outer loop
      vertex   3.077925e+01 -3.606199e+01 1.460000e+01
      vertex   3.127925e+01 -2.946199e+01 1.510000e+01
      vertex   3.127925e+01 -3.606199e+01 1.510000e+01
    endloop
  endfacet
  facet normal 7.071068e-01 0.000000e+00 7.071068e-01
    outer loop
      vertex   3.127925e+01 -2.946199e+01 1.510000e+01
      vertex   3.077925e+01 -2.946199e+01 1.560000e+01
      vertex   3.127925e+01 -3.606199e+01 1.510000e+01
    endloop
  endfacet
  facet normal 7.071068e-01 0.000000e+00 7.071068e-01
    outer loop
      vertex   3.127925e+01 -3.606199e+01 1.510000e+01
      vertex   3.077925e+01 -2.946199e+01 1.560000e+01
      vertex   3.077925e+01 -3.606199e+01 1.560000e+01
    endloop
  endfacet
  facet normal -7.071068e-01 -0.000000e+00 -7.071068e-01
    outer loop
      vertex   2.667925e+01 -2.946199e+01 1.510000e+01
      vertex   2.717925e+01 -2.946199e+01 1.460000e+01
      vertex   2.667925e+01 -3.606199e+01 1.510000e+01
    endloop
  endfacet
  facet normal -7.071068e-01 0.000000e+00 -7.071068e-01
    outer loop
      vertex   2.667925e+01 -3.606199e+01 1.510000e+01
      vertex   2.717925e+01 -2.946199e+01 1.460000e+01
      vertex   2.717925e+01 -3.606199e+01 1.460000e+01
    endloop
  endfacet
  facet normal -7.071068e-01 0.000000e+00 7.071068e-01
    outer loop
      vertex   2.717925e+01 -2.946199e+01 1.560000e+01
      vertex   2.667925e+01 -2.946199e+01 1.510000e+01
      vertex   2.717925e+01 -3.606199e+01 1.560000e+01
    endloop
  endfacet
  facet normal -7.071068e-01 0.000000e+00 7.071068e-01
    outer loop
      vertex   2.717925e+01 -3.606199e+01 1.560000e+01
      vertex   2.667925e+01 -2.946199e+01 1.510000e+01
      vertex   2.667925e+01 -3.606199e+01 1.510000e+01
    endloop
  endfacet
  facet normal -0.000000e+00 -1.000000e+00 -0.000000e+00
    outer loop
      vertex   3.077925e+01 -3.606199e+01 1.692084e+01
      vertex   2.717925e+01 -3.606199e+01 1.692084e+01
      vertex   3.077925e+01 -3.606199e+01 1.560000e+01
    endloop
  endfacet
  facet normal 0.000000e+00 -1.000000e+00 0.000000e+00
    outer loop
      vertex   3.077925e+01 -3.606199e+01 1.560000e+01
      vertex   2.717925e+01 -3.606199e+01 1.692084e+01
      vertex   2.717925e+01 -3.606199e+01 1.560000e+01
    endloop
  endfacet
  facet normal -0.000000e+00 -1.000000e+00 -0.000000e+00
    outer loop
      vertex   3.077925e+01 -3.606199e+01 1.560000e+01
      vertex   2.717925e+01 -3.606199e+01 1.560000e+01
      vertex   3.077925e+01 -3.606199e+01 1.460000e+01
    endloop
  endfacet
  facet normal 0.000000e+00 -1.000000e+00 0.000000e+00
    outer loop
      vertex   3.077925e+01 -3.606199e+01 1.460000e+01
      vertex   2.717925e+01 -3.606199e+01 1.560000e+01
      vertex   2.717925e+01 -3.606199e+01 1.460000e+01
    endloop
  endfacet
  facet normal -0.000000e+00 -1.000000e+00 -0.000000e+00
    outer loop
      vertex   3.077925e+01 -3.606199e+01 1.460000e+01
      vertex   2.717925e+01 -3.606199e+01 1.460000e+01
      vertex   3.077925e+01 -3.606199e+01 4.600000e+00
    endloop
  endfacet
  facet normal 0.000000e+00 -1.000000e+00 0.000000e+00
    outer loop
      vertex   3.077925e+01 -3.606199e+01 4.600000e+00
      vertex   2.717925e+01 -3.606199e+01 1.460000e+01
      vertex   2.717925e+01 -3.606199e+01 4.600000e+00
    endloop
  endfacet
  facet normal 0.000000e+00 -1.000000e+00 -0.000000e+00
    outer loop
      vertex   2.717925e+01 -3.606199e+01 1.560000e+01
      vertex   2.667925e+01 -3.606199e+01 1.510000e+01
      vertex   2.717925e+01 -3.606199e+01 1.460000e+01
    endloop
  endfacet
  facet normal 0.000000e+00 -1.000000e+00 0.000000e+00
    outer loop
      vertex   3.077925e+01 -3.606199e+01 1.460000e+01
      vertex   3.127925e+01 -3.606199e+01 1.510000e+01
      vertex   3.077925e+01 -3.606199e+01 1.560000e+01
    endloop
  endfacet
  facet normal 1.000000e+00 0.000000e+00 -0.000000e+00
    outer loop
      vertex   3.077925e+01 -2.946199e+01 7.034175e+00
      vertex   3.077925e+01 -2.946199e+01 1.460000e+01
      vertex   3.077925e+01 -3.098546e+01 7.034175e+00
    endloop
  endfacet
  facet normal 1.000000e+00 0.000000e+00 -0.000000e+00
    outer loop
      vertex   3.077925e+01 -3.098546e+01 7.034175e+00
      vertex   3.077925e+01 -2.946199e+01 1.460000e+01
      vertex   3.077925e+01 -3.606199e+01 1.460000e+01
    endloop
  endfacet
  facet normal 1.000000e+00 0.000000e+00 0.000000e+00
    outer loop
      vertex   3.077925e+01 -3.098546e+01 7.034175e+00
      vertex   3.077925e+01 -3.606199e+01 1.460000e+01
      vertex   3.077925e+01 -3.341963e+01 4.600000e+00
    endloop
  endfacet
  facet normal 1.000000e+00 0.000000e+00 0.000000e+00
    outer loop
      vertex   3.077925e+01 -3.341963e+01 4.600000e+00
      vertex   3.077925e+01 -3.606199e+01 1.460000e+01
      vertex   3.077925e+01 -3.606199e+01 4.600000e+00
    endloop
  endfacet
endsolid
