<?xml version="1.0" encoding="UTF-8" standalone="no"?>
<svg
   width="168.578"
   height="133.67607"
   viewBox="0 0 168.578 133.67607"
   fill="none"
   version="1.1"
   id="svg4"
   sodipodi:docname="githubPages_logoplus.svg"
   inkscape:version="1.1.1 (3bf5ae0d25, 2021-09-20)"
   inkscape:export-filename="C:\Users\jojo\Documents\jojoBag\perso\057-tinyElab\projet\_03-wiki\GitHub-Mark\ghpagesLogoPlus.png"
   inkscape:export-xdpi="90"
   inkscape:export-ydpi="90"
   xmlns:inkscape="http://www.inkscape.org/namespaces/inkscape"
   xmlns:sodipodi="http://sodipodi.sourceforge.net/DTD/sodipodi-0.dtd"
   xmlns="http://www.w3.org/2000/svg"
   xmlns:svg="http://www.w3.org/2000/svg">
  <defs
     id="defs8">
    <clipPath
       clipPathUnits="userSpaceOnUse"
       id="clipPath841">
      <path
         d="M 0,551.986 H 530.973 V 0 H 0 Z"
         id="path839" />
    </clipPath>
  </defs>
  <sodipodi:namedview
     id="namedview6"
     pagecolor="#ffffff"
     bordercolor="#666666"
     borderopacity="1.0"
     inkscape:pageshadow="2"
     inkscape:pageopacity="0.0"
     inkscape:pagecheckerboard="0"
     showgrid="false"
     inkscape:zoom="1.1490485"
     inkscape:cx="119.66423"
     inkscape:cy="202.34133"
     inkscape:current-layer="svg4"
     fit-margin-top="0"
     fit-margin-left="0"
     fit-margin-right="0"
     fit-margin-bottom="0" />
  <g
     id="g2343"
     transform="matrix(0.57846187,0,0,0.57846187,-232.70631,-96.238794)"
     style="stroke-width:1.72872">
    <g
       id="g847"
       transform="matrix(1.3333333,0,0,-1.3333333,544.25287,166.37016)"
       style="stroke-width:1.72872">
      <path
         d="m 0,0 c -33.347,0 -60.388,-27.035 -60.388,-60.388 0,-26.68 17.303,-49.316 41.297,-57.301 3.018,-0.559 4.126,1.31 4.126,2.905 0,1.439 -0.056,6.197 -0.082,11.243 -16.8,-3.653 -20.345,7.125 -20.345,7.125 -2.747,6.979 -6.705,8.836 -6.705,8.836 -5.479,3.748 0.413,3.671 0.413,3.671 6.064,-0.426 9.257,-6.224 9.257,-6.224 5.386,-9.231 14.127,-6.562 17.573,-5.019 0.543,3.902 2.107,6.567 3.834,8.075 -13.413,1.526 -27.513,6.705 -27.513,29.844 0,6.592 2.359,11.98 6.222,16.209 -0.627,1.521 -2.694,7.663 0.586,15.981 0,0 5.071,1.622 16.61,-6.191 4.817,1.338 9.983,2.009 15.115,2.033 5.132,-0.024 10.302,-0.695 15.128,-2.033 11.526,7.813 16.59,6.191 16.59,6.191 3.287,-8.318 1.22,-14.46 0.593,-15.981 3.872,-4.229 6.214,-9.617 6.214,-16.209 0,-23.195 -14.127,-28.301 -27.574,-29.796 2.166,-1.874 4.096,-5.549 4.096,-11.183 0,-8.08 -0.069,-14.583 -0.069,-16.572 0,-1.608 1.086,-3.49 4.147,-2.898 23.982,7.994 41.263,30.622 41.263,57.294 C 60.388,-27.035 33.351,0 0,0"
         style="fill:#1b1817;fill-opacity:1;fill-rule:evenodd;stroke:none;stroke-width:1.72872"
         id="path849" />
    </g>
    <g
       id="g851"
       transform="matrix(1.3333333,0,0,-1.3333333,494.23207,281.97443)"
       style="stroke-width:1.72872">
      <path
         d="m 0,0 c -0.133,-0.301 -0.605,-0.391 -1.035,-0.185 -0.439,0.198 -0.684,0.607 -0.542,0.908 0.13,0.308 0.602,0.394 1.04,0.188 C -0.099,0.714 0.151,0.301 0,0"
         style="fill:#1b1817;fill-opacity:1;fill-rule:nonzero;stroke:none;stroke-width:1.72872"
         id="path853" />
    </g>
    <g
       id="g855"
       transform="matrix(1.3333333,0,0,-1.3333333,497.4938,285.61243)"
       style="stroke-width:1.72872">
      <path
         d="M 0,0 C -0.288,-0.267 -0.852,-0.143 -1.233,0.279 -1.629,0.7 -1.702,1.264 -1.41,1.534 -1.113,1.801 -0.567,1.676 -0.172,1.255 0.224,0.829 0.301,0.271 0,0"
         style="fill:#1b1817;fill-opacity:1;fill-rule:nonzero;stroke:none;stroke-width:1.72872"
         id="path857" />
    </g>
    <g
       id="g859"
       transform="matrix(1.3333333,0,0,-1.3333333,500.66833,290.24909)"
       style="stroke-width:1.72872">
      <path
         d="M 0,0 C -0.37,-0.258 -0.976,-0.017 -1.35,0.52 -1.72,1.058 -1.72,1.702 -1.341,1.96 -0.967,2.218 -0.37,1.985 0.009,1.453 0.378,0.907 0.378,0.263 0,0"
         style="fill:#1b1817;fill-opacity:1;fill-rule:nonzero;stroke:none;stroke-width:1.72872"
         id="path861" />
    </g>
    <g
       id="g863"
       transform="matrix(1.3333333,0,0,-1.3333333,505.01727,294.72963)"
       style="stroke-width:1.72872">
      <path
         d="M 0,0 C -0.331,-0.365 -1.036,-0.267 -1.552,0.232 -2.08,0.718 -2.227,1.409 -1.896,1.774 -1.56,2.14 -0.851,2.037 -0.331,1.543 0.193,1.057 0.352,0.361 0,0"
         style="fill:#1b1817;fill-opacity:1;fill-rule:nonzero;stroke:none;stroke-width:1.72872"
         id="path865" />
    </g>
    <g
       id="g867"
       transform="matrix(1.3333333,0,0,-1.3333333,511.01727,297.33109)"
       style="stroke-width:1.72872">
      <path
         d="m 0,0 c -0.147,-0.473 -0.825,-0.687 -1.509,-0.486 -0.683,0.207 -1.13,0.76 -0.992,1.238 0.142,0.476 0.824,0.7 1.513,0.485 C -0.306,1.031 0.142,0.481 0,0"
         style="fill:#1b1817;fill-opacity:1;fill-rule:nonzero;stroke:none;stroke-width:1.72872"
         id="path869" />
    </g>
    <g
       id="g871"
       transform="matrix(1.3333333,0,0,-1.3333333,517.60713,297.81296)"
       style="stroke-width:1.72872">
      <path
         d="m 0,0 c 0.017,-0.498 -0.563,-0.911 -1.281,-0.92 -0.722,-0.016 -1.307,0.387 -1.315,0.877 0,0.503 0.568,0.911 1.289,0.924 C -0.589,0.895 0,0.494 0,0"
         style="fill:#1b1817;fill-opacity:1;fill-rule:nonzero;stroke:none;stroke-width:1.72872"
         id="path873" />
    </g>
    <g
       id="g875"
       transform="matrix(1.3333333,0,0,-1.3333333,523.7386,296.76989)"
       style="stroke-width:1.72872">
      <path
         d="m 0,0 c 0.086,-0.485 -0.413,-0.984 -1.126,-1.117 -0.701,-0.129 -1.35,0.172 -1.439,0.653 -0.087,0.498 0.42,0.997 1.121,1.126 C -0.73,0.786 -0.091,0.494 0,0"
         style="fill:#1b1817;fill-opacity:1;fill-rule:nonzero;stroke:none;stroke-width:1.72872"
         id="path877" />
    </g>
  </g>
  <path
     fill="#FFFFFF"
     d="m 98.955,125.71907 h -2.081 v -22.953 h 7.009 c 5.723,0 7.682,3.305 7.682,6.886 0,3.581 -1.959,6.886 -7.682,6.886 h -4.927 v 9.181 z m 0,-11.109 h 5.203 c 4.315,0 5.141,-2.755 5.141,-4.958 0,-2.203 -0.827,-4.958 -5.141,-4.958 h -5.203 z m 20.238,-2.601 c -2.05,0 -3.397,0.367 -4.591,0.765 v -1.837 c 1.347,-0.581 3.122,-0.826 4.591,-0.826 4.591,0 5.785,2.081 5.785,5.141 v 10.466 h -1.194 l -0.459,-1.224 c -1.377,1.01 -3.091,1.53 -4.621,1.53 -4.009,0 -5.356,-2.357 -5.356,-4.928 0,-2.601 1.439,-4.529 5.448,-4.774 l 4.04,-0.245 v -0.857 c -0.001,-2.232 -0.796,-3.211 -3.643,-3.211 z m -0.551,5.968 c -2.173,0.214 -3.122,1.347 -3.122,3.121 0,1.377 0.337,3.03 3.244,3.03 1.653,0 2.754,-0.46 4.07,-1.224 v -5.325 z m 13.068,3.458 c -0.337,0.336 -0.582,0.765 -0.582,1.132 0,0.765 0.367,1.102 1.163,1.193 l 5.203,0.612 c 2.877,0.306 4.193,1.439 4.193,4.101 0,3.734 -3.734,5.203 -7.957,5.203 -4.285,0 -6.855,-1.255 -6.855,-4.621 0,-2.081 1.439,-3.459 3.153,-4.04 v -0.031 c -0.582,-0.398 -0.979,-1.01 -0.979,-2.02 0,-0.856 0.52,-1.56 1.163,-2.081 -1.836,-1.01 -2.448,-2.877 -2.448,-5.019 0,-3.152 1.346,-5.754 5.968,-5.754 0.949,0 1.745,0.122 2.449,0.306 h 5.203 v 1.163 l -2.571,0.735 c 0.643,0.979 0.887,2.203 0.887,3.55 0,3.153 -1.347,5.754 -5.968,5.754 -0.767,10e-4 -1.441,-0.061 -2.022,-0.183 z m 0.887,4.131 c -2.02,0.46 -3.734,1.408 -3.734,3.367 0,2.265 1.714,2.908 4.866,2.908 3.061,0 5.937,-0.765 5.937,-3.367 0,-1.561 -0.735,-2.173 -2.601,-2.388 z m 5.111,-9.701 c 0,-2.02 -0.398,-3.887 -3.979,-3.887 -3.581,0 -3.978,1.867 -3.978,3.887 0,2.02 0.398,3.886 3.978,3.886 3.58,0 3.979,-1.866 3.979,-3.886 z m 11.498,-5.754 c 5.203,0 5.815,3.55 5.815,7.957 v 0.979 h -10.1 c 0.123,2.662 0.827,5.081 4.285,5.081 2.203,0 3.55,-0.214 5.05,-0.857 v 1.836 c -1.714,0.765 -3.55,0.918 -5.05,0.918 -5.172,0 -6.427,-3.55 -6.427,-7.957 0,-4.407 1.254,-7.957 6.427,-7.957 z m -4.285,7.192 h 7.957 c 0,-2.724 -0.153,-5.295 -3.673,-5.295 -3.55,10e-4 -4.192,2.541 -4.284,5.295 z m 18.27,-0.367 c 4.346,0.398 5.387,1.867 5.387,4.376 0,2.356 -1.5,4.713 -6.151,4.713 -1.469,0 -3.581,-0.368 -4.56,-0.765 v -1.836 c 0.949,0.336 2.418,0.704 4.591,0.704 3.183,0 4.04,-1.347 4.04,-2.785 0,-1.408 -0.429,-2.387 -3.458,-2.632 -4.438,-0.398 -5.356,-1.959 -5.356,-4.07 0,-2.173 1.408,-4.529 5.723,-4.529 1.438,0 3.06,0.183 4.407,0.765 v 1.837 c -1.193,-0.398 -2.387,-0.704 -4.438,-0.704 -3.03,0 -3.673,1.133 -3.673,2.632 0,1.345 0.55,2.049 3.488,2.294 z m -146.007,-4.623 H 9.687 c -0.194,0 -0.35,0.157 -0.35,0.35 v 3.666 c 0,0.193 0.157,0.35 0.35,0.35 h 2.925 v 4.555 c 0,0 -0.657,0.223 -2.472,0.223 -2.142,0 -5.134,-0.783 -5.134,-7.362 0,-6.582 3.116,-7.447 6.041,-7.447 2.532,0 3.623,0.446 4.317,0.66 0.218,0.067 0.42,-0.15 0.42,-0.344 l 0.837,-3.541 c 0,-0.09 -0.031,-0.199 -0.134,-0.274 -0.283,-0.2 -2.003,-1.163 -6.348,-1.163 -5.005,0 -10.139,2.129 -10.139,12.366 0,10.241 5.878,11.766 10.832,11.766 4.102,0 6.589,-1.752 6.589,-1.752 0.102,-0.057 0.114,-0.2 0.114,-0.265 v -11.437 c 0,-0.194 -0.157,-0.351 -0.351,-0.351 z m 38.945,-9.101 c 0,-0.195 -0.155,-0.352 -0.349,-0.352 h -4.221 c -0.193,0 -0.349,0.157 -0.349,0.352 0,0.001 10e-4,8.158 10e-4,8.158 h -6.58 v -8.158 c 0,-0.195 -0.156,-0.352 -0.349,-0.352 h -4.221 c -0.192,0 -0.349,0.157 -0.349,0.352 v 22.095 c 0,0.194 0.157,0.353 0.349,0.353 h 4.221 c 0.193,0 0.349,-0.158 0.349,-0.353 v -9.453 h 6.58 c 0,0 -0.012,9.452 -0.012,9.453 0,0.194 0.157,0.353 0.349,0.353 h 4.232 c 0.193,0 0.348,-0.158 0.349,-0.353 z m -30.826,2.899 c 0,-1.52 -1.218,-2.748 -2.722,-2.748 -1.502,0 -2.722,1.228 -2.722,2.748 0,1.519 1.22,2.751 2.722,2.751 1.504,0 2.722,-1.232 2.722,-2.751 z m -0.301,14.532 c 0,-0.566 0,-10.197 0,-10.197 0,-0.194 -0.156,-0.352 -0.349,-0.352 h -4.208 c -0.192,0 -0.365,0.199 -0.365,0.393 0,0 0,12.27 0,14.613 0,0.429 0.268,0.556 0.614,0.556 0,0 1.796,0 3.792,0 0.416,0 0.518,-0.203 0.518,-0.564 -0.002,-0.783 -0.002,-3.854 -0.002,-4.449 z m 47.509,-10.516 h -4.189 c -0.192,0 -0.349,0.158 -0.349,0.353 v 10.831 c 0,0 -1.064,0.779 -2.575,0.779 -1.511,0 -1.911,-0.685 -1.911,-2.165 0,-1.48 0,-9.444 0,-9.444 0,-0.195 -0.156,-0.353 -0.349,-0.353 h -4.251 c -0.192,0 -0.349,0.158 -0.349,0.353 0,0 0,5.768 0,10.16 0,4.397 2.448,5.472 5.816,5.472 2.763,0 4.991,-1.526 4.991,-1.526 0,0 0.106,0.804 0.154,0.9 0.048,0.096 0.173,0.19 0.309,0.19 l 2.705,-0.012 c 0.192,0 0.349,-0.157 0.349,-0.351 l -0.002,-14.833 c 0,-0.195 -0.156,-0.354 -0.349,-0.354 z m 11.679,-0.496 c -2.379,0 -3.997,1.061 -3.997,1.061 v -7.48 c 0,-0.195 -0.156,-0.352 -0.348,-0.352 h -4.233 c -0.193,0 -0.349,0.157 -0.349,0.352 v 22.095 c 0,0.194 0.156,0.353 0.349,0.353 0,0 2.937,0 2.937,0 0.132,0 0.232,-0.069 0.306,-0.188 0.073,-0.118 0.178,-1.018 0.178,-1.018 0,0 1.732,1.64 5.009,1.64 3.847,0 6.053,-1.952 6.053,-8.764 -0.001,-6.809 -3.524,-7.699 -5.905,-7.699 z m -1.652,12.446 c -1.453,-0.045 -2.438,-0.704 -2.438,-0.704 v -6.995 c 0,0 0.971,-0.596 2.165,-0.702 1.509,-0.135 2.962,0.321 2.962,3.919 0,3.795 -0.656,4.543 -2.689,4.482 z m -45.48,-11.985 h -3.166 c 0,0 -0.005,-4.183 -0.005,-4.184 0,-0.158 -0.081,-0.238 -0.265,-0.238 h -4.315 c -0.168,0 -0.258,0.074 -0.258,0.235 v 4.322 c 0,0 -2.162,0.522 -2.309,0.564 -0.145,0.043 -0.253,0.177 -0.253,0.337 v 2.716 c 0,0.195 0.156,0.353 0.349,0.353 h 2.212 c 0,0 0,2.841 0,6.535 0,4.858 3.404,5.335 5.702,5.335 1.05,0 2.305,-0.338 2.513,-0.414 0.125,-0.045 0.198,-0.175 0.198,-0.317 l 0.004,-2.991 c 0,-0.195 -0.164,-0.353 -0.35,-0.353 -0.184,0 -0.657,0.076 -1.142,0.076 -1.556,0 -2.082,-0.723 -2.082,-1.66 0,-0.935 -10e-4,-6.211 -10e-4,-6.211 h 3.167 c 0.193,0 0.349,-0.158 0.349,-0.353 v -3.4 c 10e-4,-0.195 -0.156,-0.352 -0.348,-0.352 z"
     id="path2"
     style="fill:#000000" />
</svg>
