<?xml version="1.0" encoding="UTF-8" standalone="no"?>
<svg
   width="1024"
   height="1024"
   viewBox="0 0 1024 1024"
   fill="none"
   version="1.1"
   id="svg4"
   sodipodi:docname="Octicons-mark-github.svg"
   inkscape:version="1.1.1 (3bf5ae0d25, 2021-09-20)"
   xmlns:inkscape="http://www.inkscape.org/namespaces/inkscape"
   xmlns:sodipodi="http://sodipodi.sourceforge.net/DTD/sodipodi-0.dtd"
   xmlns="http://www.w3.org/2000/svg"
   xmlns:svg="http://www.w3.org/2000/svg">
  <defs
     id="defs8">
    <clipPath
       clipPathUnits="userSpaceOnUse"
       id="clipPath841">
      <path
         d="M 0,551.986 H 530.973 V 0 H 0 Z"
         id="path839" />
    </clipPath>
  </defs>
  <sodipodi:namedview
     id="namedview6"
     pagecolor="#ffffff"
     bordercolor="#666666"
     borderopacity="1.0"
     inkscape:pageshadow="2"
     inkscape:pageopacity="0.0"
     inkscape:pagecheckerboard="0"
     showgrid="false"
     inkscape:zoom="0.40625"
     inkscape:cx="552.61538"
     inkscape:cy="825.84615"
     inkscape:current-layer="svg4" />
  <g
     id="g847"
     transform="matrix(1.3333333,0,0,-1.3333333,544.25287,166.37016)">
    <path
       d="m 0,0 c -33.347,0 -60.388,-27.035 -60.388,-60.388 0,-26.68 17.303,-49.316 41.297,-57.301 3.018,-0.559 4.126,1.31 4.126,2.905 0,1.439 -0.056,6.197 -0.082,11.243 -16.8,-3.653 -20.345,7.125 -20.345,7.125 -2.747,6.979 -6.705,8.836 -6.705,8.836 -5.479,3.748 0.413,3.671 0.413,3.671 6.064,-0.426 9.257,-6.224 9.257,-6.224 5.386,-9.231 14.127,-6.562 17.573,-5.019 0.543,3.902 2.107,6.567 3.834,8.075 -13.413,1.526 -27.513,6.705 -27.513,29.844 0,6.592 2.359,11.98 6.222,16.209 -0.627,1.521 -2.694,7.663 0.586,15.981 0,0 5.071,1.622 16.61,-6.191 4.817,1.338 9.983,2.009 15.115,2.033 5.132,-0.024 10.302,-0.695 15.128,-2.033 11.526,7.813 16.59,6.191 16.59,6.191 3.287,-8.318 1.22,-14.46 0.593,-15.981 3.872,-4.229 6.214,-9.617 6.214,-16.209 0,-23.195 -14.127,-28.301 -27.574,-29.796 2.166,-1.874 4.096,-5.549 4.096,-11.183 0,-8.08 -0.069,-14.583 -0.069,-16.572 0,-1.608 1.086,-3.49 4.147,-2.898 23.982,7.994 41.263,30.622 41.263,57.294 C 60.388,-27.035 33.351,0 0,0"
       style="fill:#1b1817;fill-opacity:1;fill-rule:evenodd;stroke:none"
       id="path849" />
  </g>
  <g
     id="g851"
     transform="matrix(1.3333333,0,0,-1.3333333,494.23207,281.97443)">
    <path
       d="m 0,0 c -0.133,-0.301 -0.605,-0.391 -1.035,-0.185 -0.439,0.198 -0.684,0.607 -0.542,0.908 0.13,0.308 0.602,0.394 1.04,0.188 C -0.099,0.714 0.151,0.301 0,0"
       style="fill:#1b1817;fill-opacity:1;fill-rule:nonzero;stroke:none"
       id="path853" />
  </g>
  <g
     id="g855"
     transform="matrix(1.3333333,0,0,-1.3333333,497.4938,285.61243)">
    <path
       d="M 0,0 C -0.288,-0.267 -0.852,-0.143 -1.233,0.279 -1.629,0.7 -1.702,1.264 -1.41,1.534 -1.113,1.801 -0.567,1.676 -0.172,1.255 0.224,0.829 0.301,0.271 0,0"
       style="fill:#1b1817;fill-opacity:1;fill-rule:nonzero;stroke:none"
       id="path857" />
  </g>
  <g
     id="g859"
     transform="matrix(1.3333333,0,0,-1.3333333,500.66833,290.24909)">
    <path
       d="M 0,0 C -0.37,-0.258 -0.976,-0.017 -1.35,0.52 -1.72,1.058 -1.72,1.702 -1.341,1.96 -0.967,2.218 -0.37,1.985 0.009,1.453 0.378,0.907 0.378,0.263 0,0"
       style="fill:#1b1817;fill-opacity:1;fill-rule:nonzero;stroke:none"
       id="path861" />
  </g>
  <g
     id="g863"
     transform="matrix(1.3333333,0,0,-1.3333333,505.01727,294.72963)">
    <path
       d="M 0,0 C -0.331,-0.365 -1.036,-0.267 -1.552,0.232 -2.08,0.718 -2.227,1.409 -1.896,1.774 -1.56,2.14 -0.851,2.037 -0.331,1.543 0.193,1.057 0.352,0.361 0,0"
       style="fill:#1b1817;fill-opacity:1;fill-rule:nonzero;stroke:none"
       id="path865" />
  </g>
  <g
     id="g867"
     transform="matrix(1.3333333,0,0,-1.3333333,511.01727,297.33109)">
    <path
       d="m 0,0 c -0.147,-0.473 -0.825,-0.687 -1.509,-0.486 -0.683,0.207 -1.13,0.76 -0.992,1.238 0.142,0.476 0.824,0.7 1.513,0.485 C -0.306,1.031 0.142,0.481 0,0"
       style="fill:#1b1817;fill-opacity:1;fill-rule:nonzero;stroke:none"
       id="path869" />
  </g>
  <g
     id="g871"
     transform="matrix(1.3333333,0,0,-1.3333333,517.60713,297.81296)">
    <path
       d="m 0,0 c 0.017,-0.498 -0.563,-0.911 -1.281,-0.92 -0.722,-0.016 -1.307,0.387 -1.315,0.877 0,0.503 0.568,0.911 1.289,0.924 C -0.589,0.895 0,0.494 0,0"
       style="fill:#1b1817;fill-opacity:1;fill-rule:nonzero;stroke:none"
       id="path873" />
  </g>
  <g
     id="g875"
     transform="matrix(1.3333333,0,0,-1.3333333,523.7386,296.76989)">
    <path
       d="m 0,0 c 0.086,-0.485 -0.413,-0.984 -1.126,-1.117 -0.701,-0.129 -1.35,0.172 -1.439,0.653 -0.087,0.498 0.42,0.997 1.121,1.126 C -0.73,0.786 -0.091,0.494 0,0"
       style="fill:#1b1817;fill-opacity:1;fill-rule:nonzero;stroke:none"
       id="path877" />
  </g>
</svg>
