<?xml version="1.0" encoding="UTF-8" standalone="no"?>
<!-- Generator: Adobe Illustrator 16.0.0, SVG Export Plug-In . SVG Version: 6.00 Build 0)  -->

<svg
   version="1.0"
   x="0px"
   y="0px"
   width="219.39618"
   height="85.139824"
   viewBox="0 0 219.39618 85.139821"
   enable-background="new 0 0 841.891 595.275"
   xml:space="preserve"
   id="svg295"
   sodipodi:docname="ArduinoCommunityLogo_SVG.svg"
   inkscape:version="1.1.1 (3bf5ae0d25, 2021-09-20)"
   xmlns:inkscape="http://www.inkscape.org/namespaces/inkscape"
   xmlns:sodipodi="http://sodipodi.sourceforge.net/DTD/sodipodi-0.dtd"
   xmlns="http://www.w3.org/2000/svg"
   xmlns:svg="http://www.w3.org/2000/svg"><defs
   id="defs299" /><sodipodi:namedview
   id="namedview297"
   pagecolor="#ffffff"
   bordercolor="#666666"
   borderopacity="1.0"
   inkscape:pageshadow="2"
   inkscape:pageopacity="0.0"
   inkscape:pagecheckerboard="0"
   showgrid="false"
   fit-margin-top="0"
   fit-margin-left="0"
   fit-margin-right="0"
   fit-margin-bottom="0"
   inkscape:zoom="1"
   inkscape:cx="105.5"
   inkscape:cy="29.5"
   inkscape:current-layer="svg295" />
<g
   id="LOGO"
   transform="matrix(0.42724145,0,0,0.42724145,-91.114366,-84.59338)"
   style="stroke-width:2.3406">
	<g
   id="g78"
   style="stroke-width:2.3406">
		<path
   fill="#62aeb2"
   d="m 345.23,245.898 0.872,-1.612 c -8.086,-4.307 -16.404,-7.133 -24.769,-8.328 -3.465,-0.491 -6.956,-0.74 -10.377,-0.74 -27.598,0 -52.288,16.601 -61.44,41.308 l 8.883,3.289 c 7.781,-21.009 28.903,-35.124 52.558,-35.124 2.978,0 6.021,0.217 9.042,0.646 16.037,2.291 31.447,11.039 45.803,26 l 5.229,-5.019 c -7.064,-7.549 -15.685,-14.948 -25.801,-20.42 z"
   id="path2"
   style="stroke-width:13.1509" />
		<path
   fill="#62aeb2"
   d="m 280.472,356.516 c -23.789,-11.059 -39.16,-34.446 -39.16,-59.582 0,-12.716 3.727,-25.022 10.776,-35.588 2.682,-4.024 5.851,-7.796 9.416,-11.21 l 4.367,4.562 c -3.233,3.094 -6.103,6.509 -8.53,10.15 -6.355,9.526 -9.715,20.62 -9.715,32.085 0,23.038 13.605,43.675 35.508,53.855 z"
   id="path4"
   style="stroke-width:13.1509" />
		<path
   fill="#62aeb2"
   d="m 396.354,304.689 -2.738,-6.389 c -0.25,-0.493 -0.595,-1.154 -1.013,-1.933 -4.795,9.08 -30.021,53.416 -71.498,59.339 -3.387,0.484 -6.88,1.592 -10.183,1.592 -9.66,-0.004 -18.926,-2.037 -27.538,-6.044 l -3.162,5.795 c 9.61,4.471 19.938,6.739 30.705,6.743 3.651,0 7.397,-0.271 11.134,-0.805 40.02,-5.716 65.279,-42.317 74.582,-58.423 z"
   id="path6"
   style="stroke-width:13.1509" />
		<path
   fill="#e47128"
   d="m 405.128,335.549 c -8.114,11.026 -17.068,20.572 -26.674,28.371 l 2.318,2.854 c 9.499,-7.713 18.374,-17.07 26.441,-27.847 16.509,22.525 43.977,49.245 83.794,54.929 l 0.943,-6.603 c -40.696,-5.811 -67.953,-34.586 -84.16,-59.075 -0.763,-1.156 -2.662,7.371 -2.662,7.371 z"
   id="path8"
   style="stroke-width:13.1509" />
		<path
   fill="#e5ad24"
   d="m 511.482,362.999 c -5.256,0.344 -10.605,0.145 -15.971,-0.622 -12.228,-1.748 -24.078,-6.63 -35.223,-14.511 l -3.465,4.898 c 11.929,8.436 24.659,13.668 37.838,15.552 3.966,0.567 7.967,0.854 11.891,0.854 1.651,0 3.293,-0.063 4.93,-0.163 z"
   id="path10"
   style="stroke-width:13.1509" />
		<path
   fill="#e47128"
   d="m 399.523,303.331 -3.17,1.358 -2.738,-6.389 c -2.051,-4.038 -9.736,-18.259 -22.584,-31.983 l -5.229,5.019 c 11.268,11.742 18.037,23.381 20.425,27.84 l 9.612,16.774 8.217,-4.711 z"
   id="path12"
   style="stroke-width:13.1509" />
		<path
   fill="#62aeb2"
   d="m 506.553,357.661 c -3.405,0 -6.858,-0.248 -10.263,-0.738 -42.807,-6.113 -67.851,-49.576 -72.437,-58.228 l 6.623,-3.51 c 2.628,4.957 26.83,48.599 66.878,54.318 3.056,0.439 6.148,0.663 9.198,0.663 v 7.495 z"
   id="path14"
   style="stroke-width:13.1509" />
		<path
   fill="#00878f"
   d="m 566.199,280.234 c -2.853,-9.264 -8.175,-17.812 -15.393,-24.721 -9.459,-9.048 -21.471,-14.832 -34.738,-16.726 l 1.213,-8.492 c 15.051,2.147 28.694,8.725 39.456,19.02 8.272,7.918 14.379,17.736 17.661,28.394 z"
   id="path16"
   style="stroke-width:13.1509" />
		<path
   fill="#00878f"
   d="m 451.607,252.945 -4.043,-4.604 c 14.56,-12.787 30.402,-20.478 47.089,-22.858 3.94,-0.563 7.934,-0.849 11.867,-0.849 20.32,0 39.357,7.507 53.604,21.139 l -4.236,4.428 c -13.101,-12.535 -30.633,-19.439 -49.367,-19.439 -3.645,0 -7.346,0.266 -11.001,0.788 -15.489,2.209 -30.263,9.408 -43.913,21.395 z"
   id="path18"
   style="stroke-width:13.1509" />
		<path
   fill="#e5ad24"
   d="m 420.48,312.622 -21.253,-10.11 5.055,-10.627 c 3.283,-6.899 15.691,-30.904 37.54,-50.085 l 8.844,-7.764 15.527,17.688 -8.844,7.764 c -18.944,16.63 -29.825,38.328 -31.813,42.509 z"
   id="path20"
   style="stroke-width:13.1509" />
		<path
   fill="#00878f"
   d="m 240.581,325.311 c -3.925,-8.957 -5.915,-18.505 -5.915,-28.377 0,-19.555 7.901,-37.88 22.248,-51.602 5.012,-4.794 10.668,-8.883 16.812,-12.153 l 3.455,6.49 c -5.55,2.955 -10.659,6.647 -15.186,10.978 -12.882,12.32 -19.977,28.759 -19.977,46.287 0,8.851 1.782,17.404 5.296,25.426 z"
   id="path22"
   style="stroke-width:13.1509" />
		<path
   fill="#e5ad24"
   d="m 265.907,254.738 -4.439,-4.643 c 13.137,-12.562 30.713,-19.48 49.489,-19.48 3.66,0 7.372,0.265 11.032,0.787 8.964,1.281 17.812,4.258 26.297,8.846 l -3.055,5.65 c -7.816,-4.226 -15.941,-6.963 -24.151,-8.137 -3.359,-0.479 -6.766,-0.723 -10.123,-0.723 -17.114,10e-4 -33.113,6.287 -45.05,17.7 z"
   id="path24"
   style="stroke-width:13.1509" />
		<path
   fill="#e5ad24"
   d="m 221.919,296.934 h -3.922 c 0,-24.146 9.729,-46.749 27.395,-63.645 l 2.711,2.834 c -16.885,16.149 -26.184,37.745 -26.184,60.811 z"
   id="path26"
   style="stroke-width:13.1509" />
		<path
   fill="#00878f"
   d="m 377.118,229.892 c -15.847,-12.668 -33.217,-20.424 -51.628,-23.053 -4.822,-0.688 -9.712,-1.036 -14.533,-1.036 -19.073,0 -37.384,5.363 -52.953,15.511 l -2.855,-4.381 c 16.42,-10.703 35.719,-16.36 55.809,-16.36 5.067,0 10.206,0.366 15.272,1.089 19.349,2.763 37.568,10.887 54.154,24.145 z"
   id="path28"
   style="stroke-width:13.1509" />
		<path
   fill="#00878f"
   d="m 413.901,263.84 -10.318,-7.281 c 16.506,-23.396 45.024,-52.546 87.146,-58.56 l 1.785,12.502 c -37.663,5.378 -63.538,31.974 -78.613,53.339 z"
   id="path30"
   style="stroke-width:13.1509" />
		<path
   fill="#62aeb2"
   d="m 425.715,265.347 -7.301,-5.52 c 14.446,-19.11 39.062,-42.947 74.293,-47.974 4.582,-0.655 9.23,-0.987 13.813,-0.987 11.874,0 23.376,2.166 34.187,6.438 l -3.363,8.512 c -9.735,-3.847 -20.105,-5.797 -30.823,-5.797 -4.151,0 -8.363,0.302 -12.52,0.896 -32.146,4.586 -54.877,26.693 -68.286,44.432 z"
   id="path32"
   style="stroke-width:13.1509" />
		<path
   fill="#62aeb2"
   d="m 410.996,280.249 -10.215,-4.158 3.037,-7.463 0.262,-0.413 c 13.188,-20.874 42.108,-56.862 87.627,-63.356 4.915,-0.702 9.899,-1.058 14.813,-1.058 v 11.029 c -4.394,0 -8.854,0.319 -13.254,0.947 -38.844,5.542 -64.693,34.458 -79.603,57.918 z"
   id="path34"
   style="stroke-width:13.1509" />
		<path
   fill="#62aeb2"
   d="m 410.822,268.945 -5.285,-6.484 c -8.783,-12.447 -18.619,-23.062 -29.235,-31.549 l 4.898,-6.128 c 11.16,8.922 21.479,20.038 30.667,33.04 l 5.031,6.158 z"
   id="path36"
   style="stroke-width:13.1509" />
		<path
   fill="#e47128"
   d="m 573.146,232.169 c -17.769,-17.003 -41.43,-26.366 -66.625,-26.366 -4.817,0 -9.706,0.349 -14.53,1.036 l -0.738,-5.178 c 5.067,-0.723 10.205,-1.089 15.269,-1.089 26.549,0 51.494,9.879 70.24,27.817 z"
   id="path38"
   style="stroke-width:13.1509" />
		<path
   fill="#00878f"
   d="m 324.215,378.084 -1.906,-13.346 c 53.362,-7.618 79.951,-69.773 80.213,-70.4 1.182,-2.841 29.705,-69.851 90.745,-78.562 l 1.904,13.346 c -53.525,7.638 -79.944,69.772 -80.205,70.399 -1.186,2.85 -29.727,69.85 -90.751,78.563 z"
   id="path40"
   style="stroke-width:13.1509" />
		<path
   fill="#00878f"
   d="m 268.146,364.592 5.853,-10.072 c 14.362,8.344 31.006,11.457 48.135,9.006 l 1.65,11.526 c 11.158,-1.593 22.06,-5.413 32.401,-11.353 l -9.766,-17.004 c -8.176,4.696 -16.726,7.706 -25.413,8.946 -3.368,0.481 -6.759,0.725 -10.084,0.725 -16.981,-10e-4 -32.855,-6.243 -44.698,-17.576 -5.736,-5.49 -10.21,-11.846 -13.295,-18.889 l -16.833,7.373 c 4.019,9.171 9.881,17.582 17.419,24.796 l -0.848,0.886 c 4.715,4.512 9.913,8.398 15.479,11.636 z"
   id="path42"
   style="stroke-width:13.1509" />
		<path
   fill="#00878f"
   d="m 310.927,381.103 c -23.386,-0.001 -45.333,-8.682 -61.805,-24.441 l 3.701,-3.868 c 15.471,14.803 36.104,22.955 58.098,22.956 4.24,0 8.554,-0.31 12.827,-0.921 44.007,-6.285 70.607,-43.525 82.582,-65.257 l 3.037,-7.188 4.932,2.084 -3.211,7.564 c -12.424,22.588 -40.193,61.472 -86.582,68.096 -4.524,0.646 -9.092,0.975 -13.579,0.975 z"
   id="path44"
   style="stroke-width:13.1509" />
		<path
   fill="#00878f"
   d="m 310.927,395.585 c -27.139,-0.004 -52.641,-10.112 -71.815,-28.463 l 6.779,-7.084 c 17.341,16.597 40.436,25.738 65.031,25.742 4.719,0 9.51,-0.344 14.243,-1.022 18.344,-2.621 35.622,-10.432 51.357,-23.216 l 6.182,7.609 c -17.134,13.92 -36.025,22.437 -56.15,25.312 -5.191,0.744 -10.449,1.122 -15.627,1.122 z"
   id="path46"
   style="stroke-width:13.1509" />
		<path
   fill="#e5ad24"
   d="m 325.601,387.789 -1.213,-8.492 c 39.533,-5.645 65.689,-35.059 80.683,-58.772 0.459,-0.796 4.496,-7.801 6.042,-10.741 l 7.594,3.992 c -1.712,3.255 -6.065,10.794 -6.25,11.113 l -0.087,0.146 c -15.953,25.253 -43.955,56.641 -86.769,62.754 z"
   id="path48"
   style="stroke-width:13.1509" />
		<path
   fill="#62aeb2"
   d="m 268.458,364.057 c -24.613,-14.292 -39.307,-39.385 -39.307,-67.123 0,-4.036 0.317,-8.083 0.944,-12.027 l 6.051,0.961 c -0.575,3.628 -0.868,7.351 -0.868,11.066 0,25.529 13.554,48.642 36.256,61.824 z"
   id="path50"
   style="stroke-width:13.1509" />
		<path
   fill="#e47128"
   d="m 238.933,286.309 -11.623,-1.844 c 3.364,-21.195 15.08,-39.924 32.991,-52.735 18.191,-13.013 40.842,-18.38 63.796,-15.105 5.169,0.739 10.318,1.945 15.307,3.584 l -3.674,11.18 c -4.335,-1.424 -8.809,-2.472 -13.297,-3.114 -40.727,-5.797 -77.413,19.682 -83.5,58.034 z"
   id="path52"
   style="stroke-width:13.1509" />
		<path
   fill="#e5ad24"
   d="M 237.418,368.893 C 226.687,358.626 218.56,346.567 213.262,333.05 l 13.691,-5.367 c 4.514,11.515 11.455,21.805 20.631,30.584 z"
   id="path54"
   style="stroke-width:13.1509" />
		<path
   fill="#62aeb2"
   d="m 310.927,388.842 c -25.394,-0.003 -49.241,-9.446 -67.157,-26.591 -16.307,-15.605 -26.196,-36.384 -27.847,-58.507 l -0.009,-0.159 -0.242,-6.491 8.572,-0.32 0.239,6.41 c 1.51,19.978 10.464,38.75 25.218,52.87 16.312,15.609 38.054,24.207 61.221,24.21 4.453,0 8.982,-0.325 13.465,-0.967 l 1.215,8.492 c -4.884,0.698 -9.822,1.053 -14.675,1.053 z"
   id="path56"
   style="stroke-width:13.1509" />
		<path
   fill="#e5ad24"
   d="m 350.312,358.852 -2.665,-4.644 2.321,-1.332 c 30.274,-17.379 47.186,-50.602 50.269,-57.085 l 1.149,-2.417 4.834,2.299 -1.149,2.417 c -3.202,6.735 -20.781,41.258 -52.437,59.429 z"
   id="path58"
   style="stroke-width:13.1509" />
		<path
   fill="#00878f"
   d="m 417.194,293.418 c -0.268,-0.643 -2.177,-5.146 -5.808,-11.729 l 1.363,-0.751 c -12.627,-22.914 -40.847,-62.358 -87.973,-69.085 -4.584,-0.655 -9.234,-0.987 -13.82,-0.987 v 9.152 c 4.154,0 8.368,0.302 12.526,0.896 5.095,0.728 9.944,1.895 14.571,3.399 l -3.348,10.179 c 43.5,14.308 65.375,65.454 65.586,65.956 1.206,2.899 30.249,71.119 92.633,80.023 l 2.586,-18.121 c -51.977,-7.419 -78.062,-68.328 -78.316,-68.932 z"
   id="path60"
   style="stroke-width:13.1509" />
		<path
   fill="#e5ad24"
   d="m 588.917,296.934 h -7.354 c 0,-20.25 -8.935,-39.615 -24.514,-53.13 -16.736,-14.519 -39.445,-20.973 -62.312,-17.715 L 493.7,218.81 c 24.973,-3.564 49.821,3.523 68.168,19.439 17.19,14.912 27.049,36.302 27.049,58.685 z"
   id="path62"
   style="stroke-width:13.1509" />
		<rect
   x="301.64801"
   y="266.091"
   fill="#e5ad24"
   width="19.886999"
   height="61.699001"
   id="rect64"
   style="stroke-width:13.1509" />
		<rect
   x="280.74301"
   y="286.99799"
   fill="#00878f"
   width="61.695"
   height="19.889999"
   id="rect66"
   style="stroke-width:13.1509" />
		<path
   fill="#62aeb2"
   d="m 607.156,305.922 -7.859,-0.729 c 0.251,-2.714 0.379,-5.492 0.379,-8.26 0,-24.208 -9.749,-46.866 -27.451,-63.803 l 5.457,-5.703 c 19.272,18.439 29.887,43.124 29.887,69.506 -10e-4,3.009 -0.139,6.034 -0.413,8.989 z"
   id="path68"
   style="stroke-width:13.1509" />
		<path
   fill="#00878f"
   d="m 580.115,310.515 -5.131,-1.02 c 0.824,-4.148 1.242,-8.411 1.242,-12.669 0,-17.818 -7.21,-34.53 -20.301,-47.057 l 3.615,-3.779 c 14.133,13.523 21.916,31.577 21.916,50.836 10e-4,4.6 -0.451,9.205 -1.341,13.689 z"
   id="path70"
   style="stroke-width:13.1509" />
		<path
   fill="#e47128"
   d="m 571.13,311.774 -11.875,-3.027 c 0.978,-3.834 1.473,-7.809 1.474,-11.814 0,-28.039 -24.317,-50.851 -54.208,-50.851 -2.91,0 -5.886,0.213 -8.845,0.632 -0.783,0.112 -1.564,0.241 -2.342,0.384 l -2.211,-12.055 c 0.938,-0.172 1.877,-0.326 2.827,-0.462 3.532,-0.501 7.087,-0.755 10.57,-0.755 36.648,0 66.464,28.311 66.464,63.107 -0.001,5.027 -0.625,10.019 -1.854,14.841 z"
   id="path72"
   style="stroke-width:13.1509" />
		<path
   fill="#00878f"
   d="m 472.94,248.847 -1.413,-2.549 c -28.136,15.598 -44.606,46.13 -47.623,52.093 l -2.979,6.064 -3.151,-1.549 -1.299,2.885 11.18,5.02 5.012,-11.162 c 2.948,-5.463 25.839,-45.765 62.673,-52.552 l -1.108,-6.016 c -7.232,1.336 -14.381,3.938 -21.292,7.766 z"
   id="path74"
   style="stroke-width:13.1509" />
		<path
   fill="#62aeb2"
   d="m 506.553,383.94 c -4.619,0 -9.324,-0.338 -13.984,-1.004 -20.805,-2.971 -40.108,-12.638 -57.375,-28.731 l 7.52,-8.068 c 15.586,14.527 32.885,23.235 51.415,25.882 4.951,0.706 9.925,0.976 14.812,0.861 l 0.258,11.027 c -0.883,0.021 -1.763,0.033 -2.646,0.033 z"
   id="path76"
   style="stroke-width:13.1509" />
	</g>
</g>
<g
   id="OPENSOURCECOMMUNITY"
   transform="matrix(0.42724145,0,0,0.42724145,-91.114366,-84.59338)"
   style="stroke-width:2.3406">
	<g
   id="g135"
   style="stroke-width:2.3406">
		<path
   fill="#00878f"
   d="m 524.588,342.071 5.867,-18.696 h 5.206 l 5.954,18.696 h -4.918 l -1.036,-3.825 h -5.378 l -0.949,3.825 z m 8.283,-14.266 -1.696,6.846 h 3.537 z"
   id="path81"
   style="stroke-width:13.1509" />
		<path
   fill="#00878f"
   d="m 544.579,323.375 h 7.536 c 5.177,0 7.133,2.646 7.133,6.242 0,2.56 -1.035,4.516 -3.077,5.608 l 3.652,6.846 h -5.465 l -2.818,-5.925 h -2.33 v 5.925 h -4.631 z m 9.751,6.271 c 0,-1.668 -0.604,-2.502 -2.762,-2.502 h -2.358 v 5.292 h 2.445 c 1.611,0 2.675,-0.719 2.675,-2.79 z"
   id="path83"
   style="stroke-width:13.1509" />
		<path
   fill="#00878f"
   d="m 562.99,323.375 h 6.126 c 6.989,0 9.319,3.309 9.319,9.176 0,4.43 -1.352,9.521 -9.29,9.521 h -6.155 z m 4.631,3.769 v 11.103 h 1.754 c 3.826,0 4.113,-2.33 4.113,-5.494 0,-3.652 -0.374,-5.608 -4.516,-5.608 h -1.351 z"
   id="path85"
   style="stroke-width:13.1509" />
		<path
   fill="#00878f"
   d="m 592.128,323.375 h 4.458 v 12.282 c 0,5.522 -4.228,6.702 -7.535,6.702 -3.193,0 -7.277,-1.064 -7.277,-6.731 v -12.253 h 4.631 v 11.391 c 0,3.106 1.093,3.825 2.848,3.825 2.1,0 2.876,-0.949 2.876,-3.797 v -11.419 z"
   id="path87"
   style="stroke-width:13.1509" />
		<path
   fill="#00878f"
   d="m 600.729,338.246 h 4.832 v -11.045 h -4.832 v -3.826 h 14.324 v 3.826 h -4.861 v 11.045 h 4.861 v 3.825 h -14.324 z"
   id="path89"
   style="stroke-width:13.1509" />
		<path
   fill="#00878f"
   d="m 623.253,342.071 h -4.372 v -18.696 h 5.034 l 6.068,11.218 v -11.218 h 4.314 v 18.696 h -4.688 l -6.386,-11.965 z"
   id="path91"
   style="stroke-width:13.1509" />
		<path
   fill="#00878f"
   d="m 653.226,332.724 c 0,5.407 -1.984,9.636 -7.996,9.636 -5.379,0 -7.853,-3.251 -7.853,-9.435 0,-5.638 2.157,-9.809 7.824,-9.809 5.32,0 8.025,2.474 8.025,9.608 z m -4.918,0 c 0,-4.573 -0.374,-5.839 -3.106,-5.839 -2.474,0 -2.905,1.467 -2.905,6.04 0,3.768 0.259,5.666 2.934,5.666 2.703,0 3.077,-1.553 3.077,-5.867 z"
   id="path93"
   style="stroke-width:13.1509" />
		<path
   fill="#8c7965"
   d="m 540.982,360.182 c 0,5.465 -2.243,9.636 -7.967,9.636 -5.408,0 -7.795,-3.423 -7.795,-9.492 0,-5.695 2.301,-9.751 7.852,-9.751 5.379,-10e-4 7.91,2.819 7.91,9.607 z m -3.94,0 c 0,-4.688 -0.69,-6.529 -3.97,-6.529 -3.135,0 -3.911,1.898 -3.911,6.673 0,4.171 0.575,6.414 3.854,6.414 3.251,-0.001 4.027,-2.129 4.027,-6.558 z"
   id="path95"
   style="stroke-width:13.1509" />
		<path
   fill="#8c7965"
   d="m 545.27,350.833 h 7.047 c 5.005,0 6.874,2.618 6.874,6.271 0,3.912 -2.502,6.472 -7.018,6.472 h -3.192 v 5.954 h -3.711 z m 9.98,6.415 c 0,-1.956 -0.69,-3.337 -3.308,-3.337 h -2.962 v 6.587 h 3.077 c 2.014,0 3.193,-0.834 3.193,-3.25 z"
   id="path97"
   style="stroke-width:13.1509" />
		<path
   fill="#8c7965"
   d="m 577.199,350.833 v 3.078 h -9.521 v 4.545 h 8.628 v 3.049 h -8.628 v 4.918 h 9.491 v 3.106 h -13.202 v -18.696 z"
   id="path99"
   style="stroke-width:13.1509" />
		<path
   fill="#8c7965"
   d="m 585.312,369.529 h -3.51 v -18.696 h 4.056 l 7.277,12.714 v -12.714 h 3.451 v 18.696 h -3.768 l -7.536,-13.288 z"
   id="path101"
   style="stroke-width:13.1509" />
		<path
   fill="#8c7965"
   d="m 603.951,363.748 v -3.021 h 7.881 v 3.021 z"
   id="path103"
   style="stroke-width:13.1509" />
		<path
   fill="#8c7965"
   d="m 620.09,355.78 c 0,-3.049 3.077,-5.206 6.932,-5.206 2.1,0 3.969,0.432 5.724,1.41 l -1.035,3.451 c -1.208,-1.064 -2.762,-1.783 -4.66,-1.783 -1.754,0 -3.02,0.546 -3.02,1.869 0,3.365 9.463,2.244 9.463,8.773 0,3.911 -3.596,5.522 -7.564,5.522 -2.043,0 -4.314,-0.461 -6.213,-1.697 l 1.208,-3.423 c 1.467,1.294 3.278,2.071 5.378,2.071 1.812,0 3.222,-0.604 3.222,-2.101 -0.002,-3.967 -9.435,-2.528 -9.435,-8.886 z"
   id="path105"
   style="stroke-width:13.1509" />
		<path
   fill="#8c7965"
   d="m 653.168,360.182 c 0,5.465 -2.243,9.636 -7.967,9.636 -5.408,0 -7.795,-3.423 -7.795,-9.492 0,-5.695 2.301,-9.751 7.852,-9.751 5.379,-10e-4 7.91,2.819 7.91,9.607 z m -3.94,0 c 0,-4.688 -0.69,-6.529 -3.97,-6.529 -3.135,0 -3.911,1.898 -3.911,6.673 0,4.171 0.575,6.414 3.854,6.414 3.25,-0.001 4.027,-2.129 4.027,-6.558 z"
   id="path107"
   style="stroke-width:13.1509" />
		<path
   fill="#8c7965"
   d="m 667.552,350.833 h 3.596 v 12.052 c 0,5.034 -3.193,6.933 -7.277,6.933 -3.969,0 -7.075,-1.64 -7.075,-6.846 v -12.139 h 3.71 v 11.506 c 0,3.48 1.18,4.43 3.509,4.43 2.646,0 3.538,-1.209 3.538,-4.487 v -11.449 z"
   id="path109"
   style="stroke-width:13.1509" />
		<path
   fill="#8c7965"
   d="m 675.837,350.833 h 6.932 c 5.005,0 6.903,2.388 6.903,6.041 0,2.56 -1.122,4.458 -3.222,5.465 l 3.94,7.19 h -4.4 l -3.279,-6.472 h -3.163 v 6.472 h -3.711 z m 9.894,6.099 c 0,-2.101 -0.863,-3.021 -3.308,-3.021 h -2.876 v 6.126 h 2.962 c 1.871,0 3.222,-0.776 3.222,-3.105 z"
   id="path111"
   style="stroke-width:13.1509" />
		<path
   fill="#8c7965"
   d="m 708.57,368.35 c -1.898,1.007 -3.739,1.468 -5.867,1.468 -5.379,0 -8.456,-3.193 -8.456,-9.607 0,-6.155 3.509,-9.636 8.944,-9.636 1.928,0 3.739,0.489 5.207,1.381 l -1.237,3.164 c -1.352,-1.064 -2.675,-1.467 -4.142,-1.467 -3.164,0 -4.832,2.157 -4.832,6.472 0,4.372 1.524,6.645 4.86,6.645 1.812,0 3.423,-0.547 4.66,-1.381 z"
   id="path113"
   style="stroke-width:13.1509" />
		<path
   fill="#8c7965"
   d="m 726.78,350.833 v 3.078 h -9.521 v 4.545 h 8.628 v 3.049 h -8.628 v 4.918 h 9.491 v 3.106 h -13.202 v -18.696 z"
   id="path115"
   style="stroke-width:13.1509" />
		<path
   fill="#e47128"
   d="m 540.292,395.809 c -1.898,1.007 -3.739,1.468 -5.867,1.468 -5.379,0 -8.456,-3.193 -8.456,-9.607 0,-6.155 3.509,-9.636 8.944,-9.636 1.928,0 3.739,0.489 5.206,1.381 l -1.236,3.164 c -1.352,-1.064 -2.675,-1.467 -4.142,-1.467 -3.164,0 -4.832,2.157 -4.832,6.472 0,4.372 1.524,6.645 4.86,6.645 1.812,0 3.423,-0.547 4.66,-1.381 z"
   id="path117"
   style="stroke-width:13.1509" />
		<path
   fill="#e47128"
   d="m 559.68,387.641 c 0,5.465 -2.243,9.636 -7.967,9.636 -5.408,0 -7.795,-3.423 -7.795,-9.492 0,-5.695 2.301,-9.751 7.852,-9.751 5.378,-10e-4 7.91,2.819 7.91,9.607 z m -3.941,0 c 0,-4.688 -0.69,-6.529 -3.97,-6.529 -3.135,0 -3.911,1.898 -3.911,6.673 0,4.171 0.575,6.414 3.854,6.414 3.251,-0.001 4.027,-2.129 4.027,-6.558 z"
   id="path119"
   style="stroke-width:13.1509" />
		<path
   fill="#e47128"
   d="m 575.099,384.074 -3.192,6.442 h -2.646 l -3.451,-6.702 v 13.174 h -2.991 v -18.696 h 3.279 l 4.486,8.572 4.372,-8.572 h 3.192 v 18.696 h -3.049 z"
   id="path121"
   style="stroke-width:13.1509" />
		<path
   fill="#e47128"
   d="m 593.796,384.074 -3.192,6.442 h -2.646 l -3.451,-6.702 v 13.174 h -2.991 v -18.696 h 3.279 l 4.486,8.572 4.372,-8.572 h 3.192 v 18.696 h -3.049 z"
   id="path123"
   style="stroke-width:13.1509" />
		<path
   fill="#e47128"
   d="m 611.458,378.292 h 3.596 v 12.052 c 0,5.034 -3.193,6.933 -7.277,6.933 -3.969,0 -7.075,-1.64 -7.075,-6.846 v -12.139 h 3.71 v 11.506 c 0,3.48 1.18,4.43 3.509,4.43 2.646,0 3.538,-1.209 3.538,-4.487 v -11.449 z"
   id="path125"
   style="stroke-width:13.1509" />
		<path
   fill="#e47128"
   d="m 622.707,396.988 h -3.51 v -18.696 h 4.056 l 7.277,12.714 v -12.714 h 3.451 v 18.696 h -3.768 L 622.677,383.7 Z"
   id="path127"
   style="stroke-width:13.1509" />
		<path
   fill="#e47128"
   d="m 638.441,393.882 h 4.976 v -12.483 h -4.976 v -3.106 h 13.749 v 3.106 h -5.062 v 12.483 h 5.062 v 3.106 h -13.749 z"
   id="path129"
   style="stroke-width:13.1509" />
		<path
   fill="#e47128"
   d="m 671.723,381.37 h -5.896 v 15.618 h -3.711 V 381.37 h -5.896 v -3.078 h 15.503 z"
   id="path131"
   style="stroke-width:13.1509" />
		<path
   fill="#e47128"
   d="m 682.999,386.662 3.854,-8.37 h 3.71 l -5.867,11.333 v 7.363 h -3.739 v -7.277 l -6.155,-11.419 h 3.998 z"
   id="path133"
   style="stroke-width:13.1509" />
	</g>
</g>

</svg>
