  0
SECTION
  2
HEADER
  9
$ACADVER
  1
AC1014
  9
$HANDSEED
  5
FFFF
  9
$MEASUREMENT
 70
     1
  0
ENDSEC
  0
SECTION
  2
TABLES
  0
TABLE
  2
VPORT
  5
8
330
0
100
AcDbSymbolTable
 70
     4
  0
VPORT
  5
2E
330
8
100
AcDbSymbolTableRecord
100
AcDbViewportTableRecord
  2
*ACTIVE
 70
     0
 10
0.0
 20
0.0
 11
1.0
 21
1.0
 12
210.0
 22
148.5
 13
0.0
 23
0.0
 14
10.0
 24
10.0
 15
10.0
 25
10.0
 16
0.0
 26
0.0
 36
1.0
 17
0.0
 27
0.0
 37
0.0
 40
341.0
 41
1.24
 42
50.0
 43
0.0
 44
0.0
 50
0.0
 51
0.0
 71
     0
 72
   100
 73
     1
 74
     3
 75
     0
 76
     0
 77
     0
 78
     0
  0
ENDTAB
  0
TABLE
  2
LTYPE
  5
5
330
0
100
AcDbSymbolTable
 70
     1
  0
LTYPE
  5
14
330
5
100
AcDbSymbolTableRecord
100
AcDbLinetypeTableRecord
  2
BYBLOCK
 70
     0
  3

 72
    65
 73
     0
 40
0.0
  0
LTYPE
  5
15
330
5
100
AcDbSymbolTableRecord
100
AcDbLinetypeTableRecord
  2
BYLAYER
 70
     0
  3

 72
    65
 73
     0
 40
0.0
  0
LTYPE
  5
16
330
5
100
AcDbSymbolTableRecord
100
AcDbLinetypeTableRecord
  2
CONTINUOUS
 70
     0
  3
Solid line
 72
    65
 73
     0
 40
0.0
  0
ENDTAB
  0
TABLE
  2
LAYER
  5
2
100
AcDbSymbolTable
 70
5
  0
LAYER
  5
50
100
AcDbSymbolTableRecord
100
AcDbLayerTableRecord
  2
0
 70
0
  6
CONTINUOUS
  0
LAYER
  5
51
100
AcDbSymbolTableRecord
100
AcDbLayerTableRecord
  2
Calque_1
 70
0
  6
CONTINUOUS
  0
LAYER
  5
52
100
AcDbSymbolTableRecord
100
AcDbLayerTableRecord
  2
fondBlue
 70
0
  6
CONTINUOUS
  0
LAYER
  5
53
100
AcDbSymbolTableRecord
100
AcDbLayerTableRecord
  2
fav
 70
0
  6
CONTINUOUS
  0
LAYER
  5
54
100
AcDbSymbolTableRecord
100
AcDbLayerTableRecord
  2
sauvFormesInititalle
 70
0
  6
CONTINUOUS
  0
ENDTAB
  0
TABLE
  2
STYLE
  5
3
330
0
100
AcDbSymbolTable
 70
     1
  0
STYLE
  5
11
330
3
100
AcDbSymbolTableRecord
100
AcDbTextStyleTableRecord
  2
STANDARD
 70
     0
 40
0.0
 41
1.0
 50
0.0
 71
     0
 42
2.5
  3
txt
  4

  0
ENDTAB
  0
TABLE
  2
VIEW
  5
6
330
0
100
AcDbSymbolTable
 70
     0
  0
ENDTAB
  0
TABLE
  2
UCS
  5
7
330
0
100
AcDbSymbolTable
 70
     0
  0
ENDTAB
  0
TABLE
  2
APPID
  5
9
330
0
100
AcDbSymbolTable
 70
     2
  0
APPID
  5
12
330
9
100
AcDbSymbolTableRecord
100
AcDbRegAppTableRecord
  2
ACAD
 70
     0
  0
ENDTAB
  0
TABLE
  2
DIMSTYLE
  5
A
330
0
100
AcDbSymbolTable
 70
     1
  0
DIMSTYLE
105
27
330
A
100
AcDbSymbolTableRecord
100
AcDbDimStyleTableRecord
  2
ISO-25
 70
     0
  3

  4

  5

  6

  7

 40
1.0
 41
2.5
 42
0.625
 43
3.75
 44
1.25
 45
0.0
 46
0.0
 47
0.0
 48
0.0
140
2.5
141
2.5
142
0.0
143
0.03937007874016
144
1.0
145
0.0
146
1.0
147
0.625
 71
     0
 72
     0
 73
     0
 74
     0
 75
     0
 76
     0
 77
     1
 78
     8
170
     0
171
     3
172
     1
173
     0
174
     0
175
     0
176
     0
177
     0
178
     0
270
     2
271
     2
272
     2
273
     2
274
     3
340
11
275
     0
280
     0
281
     0
282
     0
283
     0
284
     8
285
     0
286
     0
287
     3
288
     0
  0
ENDTAB
  0
TABLE
  2
BLOCK_RECORD
  5
1
330
0
100
AcDbSymbolTable
 70
     1
  0
BLOCK_RECORD
  5
1F
330
1
100
AcDbSymbolTableRecord
100
AcDbBlockTableRecord
  2
*MODEL_SPACE
  0
BLOCK_RECORD
  5
1B
330
1
100
AcDbSymbolTableRecord
100
AcDbBlockTableRecord
  2
*PAPER_SPACE
  0
ENDTAB
  0
ENDSEC
  0
SECTION
  2
BLOCKS
  0
BLOCK
  5
20
330
1F
100
AcDbEntity
  8
0
100
AcDbBlockBegin
  2
*MODEL_SPACE
 70
     0
 10
0.0
 20
0.0
 30
0.0
  3
*MODEL_SPACE
  1

  0
ENDBLK
  5
21
330
1F
100
AcDbEntity
  8
0
100
AcDbBlockEnd
  0
BLOCK
  5
1C
330
1B
100
AcDbEntity
 67
     1
  8
0
100
AcDbBlockBegin
  2
*PAPER_SPACE
  1

  0
ENDBLK
  5
1D
330
1B
100
AcDbEntity
 67
     1
  8
0
100
AcDbBlockEnd
  0
ENDSEC
  0
SECTION
  2
ENTITIES
  0
SPLINE
  5
100
100
AcDbEntity
  8
fav
 62
1
100
AcDbSpline
 70
8
 71
3
 72
8
 73
4
 74
0
 40
0
 40
0
 40
0
 40
0
 40
1
 40
1
 40
1
 40
1
 10
6.285858
 20
87.835396
 30
0.0
 10
4.469563
 20
87.835396
 30
0.0
 10
3.007224
 20
86.373058
 30
0.0
 10
3.007224
 20
84.556764
 30
0.0
  0
SPLINE
  5
101
100
AcDbEntity
  8
fav
 62
1
100
AcDbSpline
 70
8
 71
3
 72
8
 73
4
 74
0
 40
0
 40
0
 40
0
 40
0
 40
1
 40
1
 40
1
 40
1
 10
3.007224
 20
16.982070
 30
0.0
 10
3.007224
 20
15.165772
 30
0.0
 10
4.469563
 20
13.703986
 30
0.0
 10
6.285858
 20
13.703986
 30
0.0
  0
LWPOLYLINE
  5
102
100
AcDbEntity
  8
fav
 62
1
100
AcDbPolyline
 90
2
 70
0
 10
3.007224
 20
84.556764
 30
0.0
 10
3.007224
 20
16.982070
 30
0.0
  0
SPLINE
  5
103
100
AcDbEntity
  8
fav
 62
1
100
AcDbSpline
 70
8
 71
3
 72
8
 73
4
 74
0
 40
0
 40
0
 40
0
 40
0
 40
1
 40
1
 40
1
 40
1
 10
78.637391
 20
13.703986
 30
0.0
 10
80.453686
 20
13.703986
 30
0.0
 10
81.916025
 20
15.165772
 30
0.0
 10
81.916025
 20
16.982070
 30
0.0
  0
LWPOLYLINE
  5
104
100
AcDbEntity
  8
fav
 62
1
100
AcDbPolyline
 90
2
 70
0
 10
6.285858
 20
13.703986
 30
0.0
 10
78.637391
 20
13.703986
 30
0.0
  0
SPLINE
  5
105
100
AcDbEntity
  8
fav
 62
1
100
AcDbSpline
 70
8
 71
3
 72
8
 73
4
 74
0
 40
0
 40
0
 40
0
 40
0
 40
1
 40
1
 40
1
 40
1
 10
81.916025
 20
84.556764
 30
0.0
 10
81.916025
 20
86.373058
 30
0.0
 10
80.453686
 20
87.835396
 30
0.0
 10
78.637391
 20
87.835396
 30
0.0
  0
LWPOLYLINE
  5
106
100
AcDbEntity
  8
fav
 62
1
100
AcDbPolyline
 90
2
 70
0
 10
81.916025
 20
16.982070
 30
0.0
 10
81.916025
 20
84.556764
 30
0.0
  0
LWPOLYLINE
  5
107
100
AcDbEntity
  8
fav
 62
1
100
AcDbPolyline
 90
2
 70
0
 10
78.637391
 20
87.835396
 30
0.0
 10
6.285858
 20
87.835396
 30
0.0
  0
LWPOLYLINE
  5
108
100
AcDbEntity
  8
fav
 62
1
100
AcDbPolyline
 90
4
 70
1
 10
48.921326
 20
73.466293
 30
0.0
 10
60.216849
 20
73.466293
 30
0.0
 10
60.216849
 20
57.432517
 30
0.0
 10
48.921326
 20
57.432517
 30
0.0
  0
LWPOLYLINE
  5
109
100
AcDbEntity
  8
fav
 62
1
100
AcDbPolyline
 90
4
 70
1
 10
62.187446
 20
70.812186
 30
0.0
 10
77.867341
 20
70.812186
 30
0.0
 10
77.867341
 20
62.473389
 30
0.0
 10
62.187446
 20
62.473389
 30
0.0
  0
SPLINE
  5
10a
100
AcDbEntity
  8
fav
 62
1
100
AcDbSpline
 70
8
 71
3
 72
8
 73
4
 74
0
 40
0
 40
0
 40
0
 40
0
 40
1
 40
1
 40
1
 40
1
 10
40.372513
 20
61.729797
 30
0.0
 10
41.289255
 20
61.729797
 30
0.0
 10
42.027267
 20
60.991788
 30
0.0
 10
42.027267
 20
60.075047
 30
0.0
  0
LWPOLYLINE
  5
10b
100
AcDbEntity
  8
fav
 62
1
100
AcDbPolyline
 90
2
 70
0
 10
14.300539
 20
61.729797
 30
0.0
 10
40.372513
 20
61.729797
 30
0.0
  0
SPLINE
  5
10c
100
AcDbEntity
  8
fav
 62
1
100
AcDbSpline
 70
8
 71
3
 72
8
 73
4
 74
0
 40
0
 40
0
 40
0
 40
0
 40
1
 40
1
 40
1
 40
1
 10
42.027267
 20
49.374288
 30
0.0
 10
42.027267
 20
48.457547
 30
0.0
 10
41.289255
 20
47.719538
 30
0.0
 10
40.372513
 20
47.719538
 30
0.0
  0
LWPOLYLINE
  5
10d
100
AcDbEntity
  8
fav
 62
1
100
AcDbPolyline
 90
2
 70
0
 10
42.027267
 20
60.075047
 30
0.0
 10
42.027267
 20
49.374288
 30
0.0
  0
SPLINE
  5
10e
100
AcDbEntity
  8
fav
 62
1
100
AcDbSpline
 70
8
 71
3
 72
8
 73
4
 74
0
 40
0
 40
0
 40
0
 40
0
 40
1
 40
1
 40
1
 40
1
 10
14.300539
 20
47.719538
 30
0.0
 10
13.383801
 20
47.719538
 30
0.0
 10
12.645789
 20
48.457547
 30
0.0
 10
12.645789
 20
49.374288
 30
0.0
  0
LWPOLYLINE
  5
10f
100
AcDbEntity
  8
fav
 62
1
100
AcDbPolyline
 90
2
 70
0
 10
40.372513
 20
47.719538
 30
0.0
 10
14.300539
 20
47.719538
 30
0.0
  0
SPLINE
  5
110
100
AcDbEntity
  8
fav
 62
1
100
AcDbSpline
 70
8
 71
3
 72
8
 73
4
 74
0
 40
0
 40
0
 40
0
 40
0
 40
1
 40
1
 40
1
 40
1
 10
12.645789
 20
60.075047
 30
0.0
 10
12.645789
 20
60.991788
 30
0.0
 10
13.383810
 20
61.729797
 30
0.0
 10
14.300539
 20
61.729797
 30
0.0
  0
LWPOLYLINE
  5
111
100
AcDbEntity
  8
fav
 62
1
100
AcDbPolyline
 90
2
 70
0
 10
12.645789
 20
49.374288
 30
0.0
 10
12.645789
 20
60.075047
 30
0.0
  0
LWPOLYLINE
  5
112
100
AcDbEntity
  8
fav
 62
1
100
AcDbPolyline
 90
1
 70
1
 10
14.300539
 20
61.729797
 30
0.0
  0
LWPOLYLINE
  5
113
100
AcDbEntity
  8
fav
 62
1
100
AcDbPolyline
 90
4
 70
1
 10
48.921326
 20
55.525309
 30
0.0
 10
60.216849
 20
55.525309
 30
0.0
 10
60.216849
 20
39.490983
 30
0.0
 10
48.921326
 20
39.490983
 30
0.0
  0
LWPOLYLINE
  5
114
100
AcDbEntity
  8
fav
 62
1
100
AcDbPolyline
 90
4
 70
1
 10
62.187446
 20
52.638039
 30
0.0
 10
77.867341
 20
52.638039
 30
0.0
 10
77.867341
 20
44.299242
 30
0.0
 10
62.187446
 20
44.299242
 30
0.0
  0
LWPOLYLINE
  5
115
100
AcDbEntity
  8
fav
 62
7
100
AcDbPolyline
 90
4
 70
1
 10
0.021209
 20
90.822868
 30
0.0
 10
3.021214
 20
90.822868
 30
0.0
 10
3.021214
 20
87.822863
 30
0.0
 10
0.021209
 20
87.822863
 30
0.0
  0
SPLINE
  5
116
100
AcDbEntity
  8
fav
 62
7
100
AcDbSpline
 70
8
 71
3
 72
8
 73
4
 74
0
 40
0
 40
0
 40
0
 40
0
 40
1
 40
1
 40
1
 40
1
 10
7.617992
 20
86.307504
 30
0.0
 10
5.867316
 20
86.307504
 30
0.0
 10
4.457868
 20
84.898058
 30
0.0
 10
4.457868
 20
83.147383
 30
0.0
  0
LWPOLYLINE
  5
117
100
AcDbEntity
  8
fav
 62
7
100
AcDbPolyline
 90
4
 70
1
 10
81.998146
 20
13.698914
 30
0.0
 10
84.998151
 20
13.698914
 30
0.0
 10
84.998151
 20
10.698910
 30
0.0
 10
81.998146
 20
10.698910
 30
0.0
  0
SPLINE
  5
118
100
AcDbEntity
  8
fav
 62
7
100
AcDbSpline
 70
8
 71
3
 72
8
 73
4
 74
0
 40
0
 40
0
 40
0
 40
0
 40
1
 40
1
 40
1
 40
1
 10
4.457868
 20
18.014026
 30
0.0
 10
4.457868
 20
16.263351
 30
0.0
 10
5.867316
 20
14.853902
 30
0.0
 10
7.617992
 20
14.853902
 30
0.0
  0
LWPOLYLINE
  5
119
100
AcDbEntity
  8
fav
 62
7
100
AcDbPolyline
 90
2
 70
0
 10
4.457868
 20
83.147383
 30
0.0
 10
4.457868
 20
18.014026
 30
0.0
  0
SPLINE
  5
11a
100
AcDbEntity
  8
fav
 62
7
100
AcDbSpline
 70
8
 71
3
 72
8
 73
4
 74
0
 40
0
 40
0
 40
0
 40
0
 40
1
 40
1
 40
1
 40
1
 10
77.355657
 20
14.853902
 30
0.0
 10
79.106332
 20
14.853902
 30
0.0
 10
80.515769
 20
16.263351
 30
0.0
 10
80.515780
 20
18.014026
 30
0.0
  0
LWPOLYLINE
  5
11b
100
AcDbEntity
  8
fav
 62
7
100
AcDbPolyline
 90
2
 70
0
 10
7.617992
 20
14.853902
 30
0.0
 10
77.355657
 20
14.853902
 30
0.0
  0
SPLINE
  5
11c
100
AcDbEntity
  8
fav
 62
7
100
AcDbSpline
 70
8
 71
3
 72
8
 73
4
 74
0
 40
0
 40
0
 40
0
 40
0
 40
1
 40
1
 40
1
 40
1
 10
80.515780
 20
83.147383
 30
0.0
 10
80.515780
 20
84.898058
 30
0.0
 10
79.106332
 20
86.307504
 30
0.0
 10
77.355657
 20
86.307504
 30
0.0
  0
LWPOLYLINE
  5
11d
100
AcDbEntity
  8
fav
 62
7
100
AcDbPolyline
 90
2
 70
0
 10
80.515780
 20
18.014026
 30
0.0
 10
80.515780
 20
83.147383
 30
0.0
  0
LWPOLYLINE
  5
11e
100
AcDbEntity
  8
fav
 62
7
100
AcDbPolyline
 90
2
 70
0
 10
77.355657
 20
86.307504
 30
0.0
 10
7.617992
 20
86.307504
 30
0.0
  0
LWPOLYLINE
  5
11f
100
AcDbEntity
  8
fav
 62
7
100
AcDbPolyline
 90
4
 70
1
 10
48.946526
 20
73.277305
 30
0.0
 10
60.242049
 20
73.277305
 30
0.0
 10
60.242049
 20
57.243529
 30
0.0
 10
48.946526
 20
57.243529
 30
0.0
  0
LWPOLYLINE
  5
120
100
AcDbEntity
  8
fav
 62
7
100
AcDbPolyline
 90
4
 70
1
 10
62.212646
 20
70.623198
 30
0.0
 10
77.892540
 20
70.623198
 30
0.0
 10
77.892540
 20
62.284401
 30
0.0
 10
62.212646
 20
62.284401
 30
0.0
  0
SPLINE
  5
121
100
AcDbEntity
  8
fav
 62
7
100
AcDbSpline
 70
8
 71
3
 72
8
 73
4
 74
0
 40
0
 40
0
 40
0
 40
0
 40
1
 40
1
 40
1
 40
1
 10
40.397713
 20
61.540810
 30
0.0
 10
41.314454
 20
61.540810
 30
0.0
 10
42.052467
 20
60.802800
 30
0.0
 10
42.052467
 20
59.886059
 30
0.0
  0
LWPOLYLINE
  5
122
100
AcDbEntity
  8
fav
 62
7
100
AcDbPolyline
 90
2
 70
0
 10
14.325739
 20
61.540810
 30
0.0
 10
40.397713
 20
61.540810
 30
0.0
  0
SPLINE
  5
123
100
AcDbEntity
  8
fav
 62
7
100
AcDbSpline
 70
8
 71
3
 72
8
 73
4
 74
0
 40
0
 40
0
 40
0
 40
0
 40
1
 40
1
 40
1
 40
1
 10
42.052467
 20
49.185301
 30
0.0
 10
42.052467
 20
48.268560
 30
0.0
 10
41.314454
 20
47.530550
 30
0.0
 10
40.397713
 20
47.530550
 30
0.0
  0
LWPOLYLINE
  5
124
100
AcDbEntity
  8
fav
 62
7
100
AcDbPolyline
 90
2
 70
0
 10
42.052467
 20
59.886059
 30
0.0
 10
42.052467
 20
49.185301
 30
0.0
  0
SPLINE
  5
125
100
AcDbEntity
  8
fav
 62
7
100
AcDbSpline
 70
8
 71
3
 72
8
 73
4
 74
0
 40
0
 40
0
 40
0
 40
0
 40
1
 40
1
 40
1
 40
1
 10
14.325739
 20
47.530550
 30
0.0
 10
13.409001
 20
47.530550
 30
0.0
 10
12.670988
 20
48.268560
 30
0.0
 10
12.670988
 20
49.185301
 30
0.0
  0
LWPOLYLINE
  5
126
100
AcDbEntity
  8
fav
 62
7
100
AcDbPolyline
 90
2
 70
0
 10
40.397713
 20
47.530550
 30
0.0
 10
14.325739
 20
47.530550
 30
0.0
  0
SPLINE
  5
127
100
AcDbEntity
  8
fav
 62
7
100
AcDbSpline
 70
8
 71
3
 72
8
 73
4
 74
0
 40
0
 40
0
 40
0
 40
0
 40
1
 40
1
 40
1
 40
1
 10
12.670988
 20
59.886059
 30
0.0
 10
12.670988
 20
60.802800
 30
0.0
 10
13.409009
 20
61.540810
 30
0.0
 10
14.325739
 20
61.540810
 30
0.0
  0
LWPOLYLINE
  5
128
100
AcDbEntity
  8
fav
 62
7
100
AcDbPolyline
 90
2
 70
0
 10
12.670988
 20
49.185301
 30
0.0
 10
12.670988
 20
59.886059
 30
0.0
  0
LWPOLYLINE
  5
129
100
AcDbEntity
  8
fav
 62
7
100
AcDbPolyline
 90
1
 70
1
 10
14.325739
 20
61.540810
 30
0.0
  0
LWPOLYLINE
  5
12a
100
AcDbEntity
  8
fav
 62
7
100
AcDbPolyline
 90
4
 70
1
 10
48.946526
 20
55.336322
 30
0.0
 10
60.242049
 20
55.336322
 30
0.0
 10
60.242049
 20
39.301995
 30
0.0
 10
48.946526
 20
39.301995
 30
0.0
  0
LWPOLYLINE
  5
12b
100
AcDbEntity
  8
fav
 62
7
100
AcDbPolyline
 90
4
 70
1
 10
62.212646
 20
52.449051
 30
0.0
 10
77.892540
 20
52.449051
 30
0.0
 10
77.892540
 20
44.110254
 30
0.0
 10
62.212646
 20
44.110254
 30
0.0
  0
SPLINE
  5
12c
100
AcDbEntity
  8
fav
 62
7
100
AcDbSpline
 70
8
 71
3
 72
8
 73
4
 74
0
 40
0
 40
0
 40
0
 40
0
 40
1
 40
1
 40
1
 40
1
 10
14.598621
 20
33.874200
 30
0.0
 10
14.340797
 20
33.874200
 30
0.0
 10
14.131747
 20
33.665151
 30
0.0
 10
14.131747
 20
33.407128
 30
0.0
  0
SPLINE
  5
12d
100
AcDbEntity
  8
fav
 62
7
100
AcDbSpline
 70
8
 71
3
 72
8
 73
4
 74
0
 40
0
 40
0
 40
0
 40
0
 40
1
 40
1
 40
1
 40
1
 10
14.131747
 20
33.407128
 30
0.0
 10
14.131747
 20
33.149403
 30
0.0
 10
14.340797
 20
32.940354
 30
0.0
 10
14.598621
 20
32.940354
 30
0.0
  0
SPLINE
  5
12e
100
AcDbEntity
  8
fav
 62
7
100
AcDbSpline
 70
8
 71
3
 72
8
 73
4
 74
0
 40
0
 40
0
 40
0
 40
0
 40
1
 40
1
 40
1
 40
1
 10
14.598621
 20
32.940354
 30
0.0
 10
14.856544
 20
32.940354
 30
0.0
 10
15.065594
 20
33.149403
 30
0.0
 10
15.065594
 20
33.407128
 30
0.0
  0
SPLINE
  5
12f
100
AcDbEntity
  8
fav
 62
7
100
AcDbSpline
 70
8
 71
3
 72
8
 73
4
 74
0
 40
0
 40
0
 40
0
 40
0
 40
1
 40
1
 40
1
 40
1
 10
15.065594
 20
33.407128
 30
0.0
 10
15.065594
 20
33.665151
 30
0.0
 10
14.856544
 20
33.874200
 30
0.0
 10
14.598621
 20
33.874200
 30
0.0
  0
SPLINE
  5
130
100
AcDbEntity
  8
fav
 62
7
100
AcDbSpline
 70
8
 71
3
 72
8
 73
4
 74
0
 40
0
 40
0
 40
0
 40
0
 40
1
 40
1
 40
1
 40
1
 10
14.625808
 20
36.131361
 30
0.0
 10
14.861273
 20
36.131361
 30
0.0
 10
15.052119
 20
35.940516
 30
0.0
 10
15.052119
 20
35.705050
 30
0.0
  0
SPLINE
  5
131
100
AcDbEntity
  8
fav
 62
7
100
AcDbSpline
 70
8
 71
3
 72
8
 73
4
 74
0
 40
0
 40
0
 40
0
 40
0
 40
1
 40
1
 40
1
 40
1
 10
15.052119
 20
35.705050
 30
0.0
 10
15.052119
 20
35.469684
 30
0.0
 10
14.861273
 20
35.278839
 30
0.0
 10
14.625808
 20
35.278839
 30
0.0
  0
SPLINE
  5
132
100
AcDbEntity
  8
fav
 62
7
100
AcDbSpline
 70
8
 71
3
 72
8
 73
4
 74
0
 40
0
 40
0
 40
0
 40
0
 40
1
 40
1
 40
1
 40
1
 10
14.625808
 20
35.278839
 30
0.0
 10
14.390343
 20
35.278839
 30
0.0
 10
14.199498
 20
35.469684
 30
0.0
 10
14.199498
 20
35.705050
 30
0.0
  0
SPLINE
  5
133
100
AcDbEntity
  8
fav
 62
7
100
AcDbSpline
 70
8
 71
3
 72
8
 73
4
 74
0
 40
0
 40
0
 40
0
 40
0
 40
1
 40
1
 40
1
 40
1
 10
14.199498
 20
35.705050
 30
0.0
 10
14.199498
 20
35.940516
 30
0.0
 10
14.390343
 20
36.131361
 30
0.0
 10
14.625808
 20
36.131361
 30
0.0
  0
SPLINE
  5
134
100
AcDbEntity
  8
fav
 62
7
100
AcDbSpline
 70
8
 71
3
 72
8
 73
4
 74
0
 40
0
 40
0
 40
0
 40
0
 40
1
 40
1
 40
1
 40
1
 10
14.625808
 20
37.294539
 30
0.0
 10
14.861273
 20
37.294539
 30
0.0
 10
15.052119
 20
37.103595
 30
0.0
 10
15.052119
 20
36.868129
 30
0.0
  0
SPLINE
  5
135
100
AcDbEntity
  8
fav
 62
7
100
AcDbSpline
 70
8
 71
3
 72
8
 73
4
 74
0
 40
0
 40
0
 40
0
 40
0
 40
1
 40
1
 40
1
 40
1
 10
15.052119
 20
36.868129
 30
0.0
 10
15.052119
 20
36.632664
 30
0.0
 10
14.861273
 20
36.441918
 30
0.0
 10
14.625808
 20
36.441918
 30
0.0
  0
SPLINE
  5
136
100
AcDbEntity
  8
fav
 62
7
100
AcDbSpline
 70
8
 71
3
 72
8
 73
4
 74
0
 40
0
 40
0
 40
0
 40
0
 40
1
 40
1
 40
1
 40
1
 10
14.625808
 20
36.441918
 30
0.0
 10
14.390343
 20
36.441918
 30
0.0
 10
14.199498
 20
36.632664
 30
0.0
 10
14.199498
 20
36.868129
 30
0.0
  0
SPLINE
  5
137
100
AcDbEntity
  8
fav
 62
7
100
AcDbSpline
 70
8
 71
3
 72
8
 73
4
 74
0
 40
0
 40
0
 40
0
 40
0
 40
1
 40
1
 40
1
 40
1
 10
14.199498
 20
36.868129
 30
0.0
 10
14.199498
 20
37.103595
 30
0.0
 10
14.390343
 20
37.294539
 30
0.0
 10
14.625808
 20
37.294539
 30
0.0
  0
SPLINE
  5
138
100
AcDbEntity
  8
fav
 62
7
100
AcDbSpline
 70
8
 71
3
 72
8
 73
4
 74
0
 40
0
 40
0
 40
0
 40
0
 40
1
 40
1
 40
1
 40
1
 10
14.625808
 20
38.457519
 30
0.0
 10
14.861273
 20
38.457519
 30
0.0
 10
15.052119
 20
38.266674
 30
0.0
 10
15.052119
 20
38.031307
 30
0.0
  0
SPLINE
  5
139
100
AcDbEntity
  8
fav
 62
7
100
AcDbSpline
 70
8
 71
3
 72
8
 73
4
 74
0
 40
0
 40
0
 40
0
 40
0
 40
1
 40
1
 40
1
 40
1
 10
15.052119
 20
38.031307
 30
0.0
 10
15.052119
 20
37.795743
 30
0.0
 10
14.861273
 20
37.604997
 30
0.0
 10
14.625808
 20
37.604997
 30
0.0
  0
SPLINE
  5
13a
100
AcDbEntity
  8
fav
 62
7
100
AcDbSpline
 70
8
 71
3
 72
8
 73
4
 74
0
 40
0
 40
0
 40
0
 40
0
 40
1
 40
1
 40
1
 40
1
 10
14.625808
 20
37.604997
 30
0.0
 10
14.390343
 20
37.604997
 30
0.0
 10
14.199498
 20
37.795743
 30
0.0
 10
14.199498
 20
38.031307
 30
0.0
  0
SPLINE
  5
13b
100
AcDbEntity
  8
fav
 62
7
100
AcDbSpline
 70
8
 71
3
 72
8
 73
4
 74
0
 40
0
 40
0
 40
0
 40
0
 40
1
 40
1
 40
1
 40
1
 10
14.199498
 20
38.031307
 30
0.0
 10
14.199498
 20
38.266674
 30
0.0
 10
14.390343
 20
38.457519
 30
0.0
 10
14.625808
 20
38.457519
 30
0.0
  0
SPLINE
  5
13c
100
AcDbEntity
  8
fav
 62
7
100
AcDbSpline
 70
8
 71
3
 72
8
 73
4
 74
0
 40
0
 40
0
 40
0
 40
0
 40
1
 40
1
 40
1
 40
1
 10
14.625808
 20
39.620697
 30
0.0
 10
14.861273
 20
39.620697
 30
0.0
 10
15.052119
 20
39.429752
 30
0.0
 10
15.052119
 20
39.194287
 30
0.0
  0
SPLINE
  5
13d
100
AcDbEntity
  8
fav
 62
7
100
AcDbSpline
 70
8
 71
3
 72
8
 73
4
 74
0
 40
0
 40
0
 40
0
 40
0
 40
1
 40
1
 40
1
 40
1
 10
15.052119
 20
39.194287
 30
0.0
 10
15.052119
 20
38.959020
 30
0.0
 10
14.861273
 20
38.767977
 30
0.0
 10
14.625808
 20
38.767977
 30
0.0
  0
SPLINE
  5
13e
100
AcDbEntity
  8
fav
 62
7
100
AcDbSpline
 70
8
 71
3
 72
8
 73
4
 74
0
 40
0
 40
0
 40
0
 40
0
 40
1
 40
1
 40
1
 40
1
 10
14.625808
 20
38.767977
 30
0.0
 10
14.390343
 20
38.767977
 30
0.0
 10
14.199498
 20
38.959020
 30
0.0
 10
14.199498
 20
39.194287
 30
0.0
  0
SPLINE
  5
13f
100
AcDbEntity
  8
fav
 62
7
100
AcDbSpline
 70
8
 71
3
 72
8
 73
4
 74
0
 40
0
 40
0
 40
0
 40
0
 40
1
 40
1
 40
1
 40
1
 10
14.199498
 20
39.194287
 30
0.0
 10
14.199498
 20
39.429752
 30
0.0
 10
14.390343
 20
39.620697
 30
0.0
 10
14.625808
 20
39.620697
 30
0.0
  0
SPLINE
  5
140
100
AcDbEntity
  8
fav
 62
7
100
AcDbSpline
 70
8
 71
3
 72
8
 73
4
 74
0
 40
0
 40
0
 40
0
 40
0
 40
1
 40
1
 40
1
 40
1
 10
14.625808
 20
40.783776
 30
0.0
 10
14.861273
 20
40.783776
 30
0.0
 10
15.052119
 20
40.592831
 30
0.0
 10
15.052119
 20
40.357366
 30
0.0
  0
SPLINE
  5
141
100
AcDbEntity
  8
fav
 62
7
100
AcDbSpline
 70
8
 71
3
 72
8
 73
4
 74
0
 40
0
 40
0
 40
0
 40
0
 40
1
 40
1
 40
1
 40
1
 10
15.052119
 20
40.357366
 30
0.0
 10
15.052119
 20
40.122000
 30
0.0
 10
14.861273
 20
39.931056
 30
0.0
 10
14.625808
 20
39.931056
 30
0.0
  0
SPLINE
  5
142
100
AcDbEntity
  8
fav
 62
7
100
AcDbSpline
 70
8
 71
3
 72
8
 73
4
 74
0
 40
0
 40
0
 40
0
 40
0
 40
1
 40
1
 40
1
 40
1
 10
14.625808
 20
39.931056
 30
0.0
 10
14.390343
 20
39.931056
 30
0.0
 10
14.199498
 20
40.122000
 30
0.0
 10
14.199498
 20
40.357366
 30
0.0
  0
SPLINE
  5
143
100
AcDbEntity
  8
fav
 62
7
100
AcDbSpline
 70
8
 71
3
 72
8
 73
4
 74
0
 40
0
 40
0
 40
0
 40
0
 40
1
 40
1
 40
1
 40
1
 10
14.199498
 20
40.357366
 30
0.0
 10
14.199498
 20
40.592831
 30
0.0
 10
14.390343
 20
40.783776
 30
0.0
 10
14.625808
 20
40.783776
 30
0.0
  0
SPLINE
  5
144
100
AcDbEntity
  8
fav
 62
7
100
AcDbSpline
 70
8
 71
3
 72
8
 73
4
 74
0
 40
0
 40
0
 40
0
 40
0
 40
1
 40
1
 40
1
 40
1
 10
14.625808
 20
41.946855
 30
0.0
 10
14.861273
 20
41.946855
 30
0.0
 10
15.052119
 20
41.756108
 30
0.0
 10
15.052119
 20
41.520544
 30
0.0
  0
SPLINE
  5
145
100
AcDbEntity
  8
fav
 62
7
100
AcDbSpline
 70
8
 71
3
 72
8
 73
4
 74
0
 40
0
 40
0
 40
0
 40
0
 40
1
 40
1
 40
1
 40
1
 10
15.052119
 20
41.520544
 30
0.0
 10
15.052119
 20
41.285079
 30
0.0
 10
14.861273
 20
41.094333
 30
0.0
 10
14.625808
 20
41.094333
 30
0.0
  0
SPLINE
  5
146
100
AcDbEntity
  8
fav
 62
7
100
AcDbSpline
 70
8
 71
3
 72
8
 73
4
 74
0
 40
0
 40
0
 40
0
 40
0
 40
1
 40
1
 40
1
 40
1
 10
14.625808
 20
41.094333
 30
0.0
 10
14.390343
 20
41.094333
 30
0.0
 10
14.199498
 20
41.285079
 30
0.0
 10
14.199498
 20
41.520544
 30
0.0
  0
SPLINE
  5
147
100
AcDbEntity
  8
fav
 62
7
100
AcDbSpline
 70
8
 71
3
 72
8
 73
4
 74
0
 40
0
 40
0
 40
0
 40
0
 40
1
 40
1
 40
1
 40
1
 10
14.199498
 20
41.520544
 30
0.0
 10
14.199498
 20
41.756108
 30
0.0
 10
14.390343
 20
41.946855
 30
0.0
 10
14.625808
 20
41.946855
 30
0.0
  0
SPLINE
  5
148
100
AcDbEntity
  8
fav
 62
7
100
AcDbSpline
 70
8
 71
3
 72
8
 73
4
 74
0
 40
0
 40
0
 40
0
 40
0
 40
1
 40
1
 40
1
 40
1
 10
14.609979
 20
34.967491
 30
0.0
 10
14.615222
 20
34.967688
 30
0.0
 10
14.620466
 20
34.968282
 30
0.0
 10
14.625808
 20
34.968282
 30
0.0
  0
SPLINE
  5
149
100
AcDbEntity
  8
fav
 62
7
100
AcDbSpline
 70
8
 71
3
 72
8
 73
4
 74
0
 40
0
 40
0
 40
0
 40
0
 40
1
 40
1
 40
1
 40
1
 10
14.625808
 20
34.968282
 30
0.0
 10
14.861273
 20
34.968282
 30
0.0
 10
15.052119
 20
34.777437
 30
0.0
 10
15.052119
 20
34.542070
 30
0.0
  0
SPLINE
  5
14a
100
AcDbEntity
  8
fav
 62
7
100
AcDbSpline
 70
8
 71
3
 72
8
 73
4
 74
0
 40
0
 40
0
 40
0
 40
0
 40
1
 40
1
 40
1
 40
1
 10
15.052119
 20
34.542070
 30
0.0
 10
15.052119
 20
34.492405
 30
0.0
 10
15.043215
 20
34.444916
 30
0.0
 10
15.027682
 20
34.400692
 30
0.0
  0
LWPOLYLINE
  5
14b
100
AcDbEntity
  8
fav
 62
7
100
AcDbPolyline
 90
6
 70
1
 10
14.755136
 20
33.136245
 30
0.0
 10
14.442205
 20
33.136245
 30
0.0
 10
14.285690
 20
33.407128
 30
0.0
 10
14.442205
 20
33.678309
 30
0.0
 10
14.755136
 20
33.678309
 30
0.0
 10
14.911651
 20
33.407128
 30
0.0
  0
SPLINE
  5
14c
100
AcDbEntity
  8
fav
 62
7
100
AcDbSpline
 70
8
 71
3
 72
8
 73
4
 74
0
 40
0
 40
0
 40
0
 40
0
 40
1
 40
1
 40
1
 40
1
 10
15.371085
 20
33.934412
 30
0.0
 10
15.376428
 20
33.927388
 30
0.0
 10
15.380682
 20
33.919770
 30
0.0
 10
15.385727
 20
33.912350
 30
0.0
  0
LWPOLYLINE
  5
14d
100
AcDbEntity
  8
fav
 62
7
100
AcDbPolyline
 90
2
 70
0
 10
15.027682
 20
34.400692
 30
0.0
 10
15.371085
 20
33.934412
 30
0.0
  0
SPLINE
  5
14e
100
AcDbEntity
  8
fav
 62
7
100
AcDbSpline
 70
8
 71
3
 72
8
 73
4
 74
0
 40
0
 40
0
 40
0
 40
0
 40
1
 40
1
 40
1
 40
1
 10
15.385727
 20
41.539837
 30
0.0
 10
15.385727
 20
41.959420
 30
0.0
 10
15.045490
 20
42.299558
 30
0.0
 10
14.625808
 20
42.299558
 30
0.0
  0
SPLINE
  5
14f
100
AcDbEntity
  8
fav
 62
7
100
AcDbSpline
 70
8
 71
3
 72
8
 73
4
 74
0
 40
0
 40
0
 40
0
 40
0
 40
1
 40
1
 40
1
 40
1
 10
14.625808
 20
42.299558
 30
0.0
 10
14.206126
 20
42.299558
 30
0.0
 10
13.865889
 20
41.959420
 30
0.0
 10
13.865889
 20
41.539837
 30
0.0
  0
LWPOLYLINE
  5
150
100
AcDbEntity
  8
fav
 62
7
100
AcDbPolyline
 90
2
 70
0
 10
15.385727
 20
33.912350
 30
0.0
 10
15.385727
 20
41.539837
 30
0.0
  0
SPLINE
  5
151
100
AcDbEntity
  8
fav
 62
7
100
AcDbSpline
 70
8
 71
3
 72
8
 73
4
 74
0
 40
0
 40
0
 40
0
 40
0
 40
1
 40
1
 40
1
 40
1
 10
13.905166
 20
34.614728
 30
0.0
 10
13.891909
 20
34.614728
 30
0.0
 10
13.878751
 20
34.613541
 30
0.0
 10
13.865889
 20
34.611760
 30
0.0
  0
LWPOLYLINE
  5
152
100
AcDbEntity
  8
fav
 62
7
100
AcDbPolyline
 90
3
 70
0
 10
13.865889
 20
41.539837
 30
0.0
 10
13.865889
 20
35.977220
 30
0.0
 10
14.609979
 20
34.967491
 30
0.0
  0
SPLINE
  5
153
100
AcDbEntity
  8
fav
 62
7
100
AcDbSpline
 70
8
 71
3
 72
8
 73
4
 74
0
 40
0
 40
0
 40
0
 40
0
 40
1
 40
1
 40
1
 40
1
 10
13.865889
 20
34.095716
 30
0.0
 10
13.878948
 20
34.093737
 30
0.0
 10
13.892305
 20
34.092451
 30
0.0
 10
13.905859
 20
34.092451
 30
0.0
  0
SPLINE
  5
154
100
AcDbEntity
  8
fav
 62
7
100
AcDbSpline
 70
8
 71
3
 72
8
 73
4
 74
0
 40
0
 40
0
 40
0
 40
0
 40
1
 40
1
 40
1
 40
1
 10
13.905859
 20
34.092451
 30
0.0
 10
13.961658
 20
34.092451
 30
0.0
 10
14.014984
 20
34.109863
 30
0.0
 10
14.060098
 20
34.143006
 30
0.0
  0
SPLINE
  5
155
100
AcDbEntity
  8
fav
 62
7
100
AcDbSpline
 70
8
 71
3
 72
8
 73
4
 74
0
 40
0
 40
0
 40
0
 40
0
 40
1
 40
1
 40
1
 40
1
 10
14.060098
 20
34.143006
 30
0.0
 10
14.176248
 20
34.228387
 30
0.0
 10
14.201278
 20
34.392125
 30
0.0
 10
14.115997
 20
34.508175
 30
0.0
  0
SPLINE
  5
156
100
AcDbEntity
  8
fav
 62
7
100
AcDbSpline
 70
8
 71
3
 72
8
 73
4
 74
0
 40
0
 40
0
 40
0
 40
0
 40
1
 40
1
 40
1
 40
1
 10
14.115997
 20
34.508175
 30
0.0
 10
14.066232
 20
34.575946
 30
0.0
 10
13.989360
 20
34.614728
 30
0.0
 10
13.905166
 20
34.614728
 30
0.0
  0
SPLINE
  5
157
100
AcDbEntity
  8
fav
 62
7
100
AcDbSpline
 70
8
 71
3
 72
8
 73
4
 74
0
 40
0
 40
0
 40
0
 40
0
 40
1
 40
1
 40
1
 40
1
 10
12.623128
 20
36.213675
 30
0.0
 10
12.620358
 20
36.195768
 30
0.0
 10
12.611553
 20
36.170341
 30
0.0
 10
12.585038
 20
36.150851
 30
0.0
  0
SPLINE
  5
158
100
AcDbEntity
  8
fav
 62
7
100
AcDbSpline
 70
8
 71
3
 72
8
 73
4
 74
0
 40
0
 40
0
 40
0
 40
0
 40
1
 40
1
 40
1
 40
1
 10
12.585038
 20
36.150851
 30
0.0
 10
12.568219
 20
36.138484
 30
0.0
 10
12.549125
 20
36.132153
 30
0.0
 10
12.528546
 20
36.132153
 30
0.0
  0
SPLINE
  5
159
100
AcDbEntity
  8
fav
 62
7
100
AcDbSpline
 70
8
 71
3
 72
8
 73
4
 74
0
 40
0
 40
0
 40
0
 40
0
 40
1
 40
1
 40
1
 40
1
 10
12.528546
 20
36.132153
 30
0.0
 10
12.513805
 20
36.132153
 30
0.0
 10
12.476803
 20
36.135912
 30
0.0
 10
12.450783
 20
36.171430
 30
0.0
  0
SPLINE
  5
15a
100
AcDbEntity
  8
fav
 62
7
100
AcDbSpline
 70
8
 71
3
 72
8
 73
4
 74
0
 40
0
 40
0
 40
0
 40
0
 40
1
 40
1
 40
1
 40
1
 10
12.450783
 20
36.171430
 30
0.0
 10
12.431392
 20
36.197845
 30
0.0
 10
12.430601
 20
36.224855
 30
0.0
 10
12.433272
 20
36.242762
 30
0.0
  0
SPLINE
  5
15b
100
AcDbEntity
  8
fav
 62
7
100
AcDbSpline
 70
8
 71
3
 72
8
 73
4
 74
0
 40
0
 40
0
 40
0
 40
0
 40
1
 40
1
 40
1
 40
1
 10
12.433272
 20
36.242762
 30
0.0
 10
12.436042
 20
36.260669
 30
0.0
 10
12.444847
 20
36.286095
 30
0.0
 10
12.471362
 20
36.305585
 30
0.0
  0
SPLINE
  5
15c
100
AcDbEntity
  8
fav
 62
7
100
AcDbSpline
 70
8
 71
3
 72
8
 73
4
 74
0
 40
0
 40
0
 40
0
 40
0
 40
1
 40
1
 40
1
 40
1
 10
12.471362
 20
36.305585
 30
0.0
 10
12.488181
 20
36.318051
 30
0.0
 10
12.507275
 20
36.324284
 30
0.0
 10
12.527854
 20
36.324284
 30
0.0
  0
SPLINE
  5
15d
100
AcDbEntity
  8
fav
 62
7
100
AcDbSpline
 70
8
 71
3
 72
8
 73
4
 74
0
 40
0
 40
0
 40
0
 40
0
 40
1
 40
1
 40
1
 40
1
 10
12.527854
 20
36.324284
 30
0.0
 10
12.542595
 20
36.324284
 30
0.0
 10
12.579597
 20
36.320525
 30
0.0
 10
12.605616
 20
36.285106
 30
0.0
  0
SPLINE
  5
15e
100
AcDbEntity
  8
fav
 62
7
100
AcDbSpline
 70
8
 71
3
 72
8
 73
4
 74
0
 40
0
 40
0
 40
0
 40
0
 40
1
 40
1
 40
1
 40
1
 10
12.605616
 20
36.285106
 30
0.0
 10
12.625107
 20
36.258591
 30
0.0
 10
12.625898
 20
36.231681
 30
0.0
 10
12.623128
 20
36.213675
 30
0.0
  0
SPLINE
  5
15f
100
AcDbEntity
  8
fav
 62
7
100
AcDbSpline
 70
8
 71
3
 72
8
 73
4
 74
0
 40
0
 40
0
 40
0
 40
0
 40
1
 40
1
 40
1
 40
1
 10
12.527854
 20
36.360692
 30
0.0
 10
12.499360
 20
36.360692
 30
0.0
 10
12.473044
 20
36.351887
 30
0.0
 10
12.449794
 20
36.334870
 30
0.0
  0
SPLINE
  5
160
100
AcDbEntity
  8
fav
 62
7
100
AcDbSpline
 70
8
 71
3
 72
8
 73
4
 74
0
 40
0
 40
0
 40
0
 40
0
 40
1
 40
1
 40
1
 40
1
 10
12.449794
 20
36.334870
 30
0.0
 10
12.413287
 20
36.307960
 30
0.0
 10
12.401118
 20
36.272937
 30
0.0
 10
12.397358
 20
36.248203
 30
0.0
  0
SPLINE
  5
161
100
AcDbEntity
  8
fav
 62
7
100
AcDbSpline
 70
8
 71
3
 72
8
 73
4
 74
0
 40
0
 40
0
 40
0
 40
0
 40
1
 40
1
 40
1
 40
1
 10
12.397358
 20
36.248203
 30
0.0
 10
12.393599
 20
36.223469
 30
0.0
 10
12.394687
 20
36.186270
 30
0.0
 10
12.421597
 20
36.149763
 30
0.0
  0
SPLINE
  5
162
100
AcDbEntity
  8
fav
 62
7
100
AcDbSpline
 70
8
 71
3
 72
8
 73
4
 74
0
 40
0
 40
0
 40
0
 40
0
 40
1
 40
1
 40
1
 40
1
 10
12.421597
 20
36.149763
 30
0.0
 10
12.457313
 20
36.101087
 30
0.0
 10
12.508264
 20
36.095744
 30
0.0
 10
12.528546
 20
36.095744
 30
0.0
  0
SPLINE
  5
163
100
AcDbEntity
  8
fav
 62
7
100
AcDbSpline
 70
8
 71
3
 72
8
 73
4
 74
0
 40
0
 40
0
 40
0
 40
0
 40
1
 40
1
 40
1
 40
1
 10
12.528546
 20
36.095744
 30
0.0
 10
12.557039
 20
36.095744
 30
0.0
 10
12.583356
 20
36.104451
 30
0.0
 10
12.606606
 20
36.121665
 30
0.0
  0
SPLINE
  5
164
100
AcDbEntity
  8
fav
 62
7
100
AcDbSpline
 70
8
 71
3
 72
8
 73
4
 74
0
 40
0
 40
0
 40
0
 40
0
 40
1
 40
1
 40
1
 40
1
 10
12.606606
 20
36.121665
 30
0.0
 10
12.643113
 20
36.148378
 30
0.0
 10
12.655282
 20
36.183500
 30
0.0
 10
12.659041
 20
36.208233
 30
0.0
  0
SPLINE
  5
165
100
AcDbEntity
  8
fav
 62
7
100
AcDbSpline
 70
8
 71
3
 72
8
 73
4
 74
0
 40
0
 40
0
 40
0
 40
0
 40
1
 40
1
 40
1
 40
1
 10
12.659041
 20
36.208233
 30
0.0
 10
12.662801
 20
36.232670
 30
0.0
 10
12.661713
 20
36.269969
 30
0.0
 10
12.634901
 20
36.306476
 30
0.0
  0
SPLINE
  5
166
100
AcDbEntity
  8
fav
 62
7
100
AcDbSpline
 70
8
 71
3
 72
8
 73
4
 74
0
 40
0
 40
0
 40
0
 40
0
 40
1
 40
1
 40
1
 40
1
 10
12.634901
 20
36.306476
 30
0.0
 10
12.599087
 20
36.355350
 30
0.0
 10
12.548135
 20
36.360692
 30
0.0
 10
12.527854
 20
36.360692
 30
0.0
  0
SPLINE
  5
167
100
AcDbEntity
  8
fav
 62
7
100
AcDbSpline
 70
8
 71
3
 72
8
 73
4
 74
0
 40
0
 40
0
 40
0
 40
0
 40
1
 40
1
 40
1
 40
1
 10
11.896392
 20
37.088101
 30
0.0
 10
11.879573
 20
37.075734
 30
0.0
 10
11.860478
 20
37.069403
 30
0.0
 10
11.839801
 20
37.069403
 30
0.0
  0
SPLINE
  5
168
100
AcDbEntity
  8
fav
 62
7
100
AcDbSpline
 70
8
 71
3
 72
8
 73
4
 74
0
 40
0
 40
0
 40
0
 40
0
 40
1
 40
1
 40
1
 40
1
 10
11.839801
 20
37.069403
 30
0.0
 10
11.825059
 20
37.069403
 30
0.0
 10
11.788058
 20
37.073162
 30
0.0
 10
11.762137
 20
37.108581
 30
0.0
  0
SPLINE
  5
169
100
AcDbEntity
  8
fav
 62
7
100
AcDbSpline
 70
8
 71
3
 72
8
 73
4
 74
0
 40
0
 40
0
 40
0
 40
0
 40
1
 40
1
 40
1
 40
1
 10
11.762137
 20
37.108581
 30
0.0
 10
11.730774
 20
37.151222
 30
0.0
 10
11.739975
 20
37.211572
 30
0.0
 10
11.782616
 20
37.242836
 30
0.0
  0
SPLINE
  5
16a
100
AcDbEntity
  8
fav
 62
7
100
AcDbSpline
 70
8
 71
3
 72
8
 73
4
 74
0
 40
0
 40
0
 40
0
 40
0
 40
1
 40
1
 40
1
 40
1
 10
11.782616
 20
37.242836
 30
0.0
 10
11.799435
 20
37.255301
 30
0.0
 10
11.818530
 20
37.261534
 30
0.0
 10
11.839207
 20
37.261534
 30
0.0
  0
SPLINE
  5
16b
100
AcDbEntity
  8
fav
 62
7
100
AcDbSpline
 70
8
 71
3
 72
8
 73
4
 74
0
 40
0
 40
0
 40
0
 40
0
 40
1
 40
1
 40
1
 40
1
 10
11.839207
 20
37.261534
 30
0.0
 10
11.853850
 20
37.261534
 30
0.0
 10
11.890950
 20
37.257676
 30
0.0
 10
11.916871
 20
37.222356
 30
0.0
  0
SPLINE
  5
16c
100
AcDbEntity
  8
fav
 62
7
100
AcDbSpline
 70
8
 71
3
 72
8
 73
4
 74
0
 40
0
 40
0
 40
0
 40
0
 40
1
 40
1
 40
1
 40
1
 10
11.916871
 20
37.222356
 30
0.0
 10
11.948233
 20
37.179715
 30
0.0
 10
11.939032
 20
37.119365
 30
0.0
 10
11.896392
 20
37.088101
 30
0.0
  0
SPLINE
  5
16d
100
AcDbEntity
  8
fav
 62
7
100
AcDbSpline
 70
8
 71
3
 72
8
 73
4
 74
0
 40
0
 40
0
 40
0
 40
0
 40
1
 40
1
 40
1
 40
1
 10
11.839207
 20
37.297942
 30
0.0
 10
11.810615
 20
37.297942
 30
0.0
 10
11.784298
 20
37.289236
 30
0.0
 10
11.761049
 20
37.272120
 30
0.0
  0
SPLINE
  5
16e
100
AcDbEntity
  8
fav
 62
7
100
AcDbSpline
 70
8
 71
3
 72
8
 73
4
 74
0
 40
0
 40
0
 40
0
 40
0
 40
1
 40
1
 40
1
 40
1
 10
11.761049
 20
37.272120
 30
0.0
 10
11.732654
 20
37.251245
 30
0.0
 10
11.714054
 20
37.220476
 30
0.0
 10
11.708712
 20
37.185453
 30
0.0
  0
SPLINE
  5
16f
100
AcDbEntity
  8
fav
 62
7
100
AcDbSpline
 70
8
 71
3
 72
8
 73
4
 74
0
 40
0
 40
0
 40
0
 40
0
 40
1
 40
1
 40
1
 40
1
 10
11.708712
 20
37.185453
 30
0.0
 10
11.703271
 20
37.150430
 30
0.0
 10
11.711878
 20
37.115506
 30
0.0
 10
11.732852
 20
37.087013
 30
0.0
  0
SPLINE
  5
170
100
AcDbEntity
  8
fav
 62
7
100
AcDbSpline
 70
8
 71
3
 72
8
 73
4
 74
0
 40
0
 40
0
 40
0
 40
0
 40
1
 40
1
 40
1
 40
1
 10
11.732852
 20
37.087013
 30
0.0
 10
11.768568
 20
37.038337
 30
0.0
 10
11.819618
 20
37.032995
 30
0.0
 10
11.839801
 20
37.032995
 30
0.0
  0
SPLINE
  5
171
100
AcDbEntity
  8
fav
 62
7
100
AcDbSpline
 70
8
 71
3
 72
8
 73
4
 74
0
 40
0
 40
0
 40
0
 40
0
 40
1
 40
1
 40
1
 40
1
 10
11.839801
 20
37.032995
 30
0.0
 10
11.868393
 20
37.032995
 30
0.0
 10
11.894710
 20
37.041701
 30
0.0
 10
11.917959
 20
37.058817
 30
0.0
  0
SPLINE
  5
172
100
AcDbEntity
  8
fav
 62
7
100
AcDbSpline
 70
8
 71
3
 72
8
 73
4
 74
0
 40
0
 40
0
 40
0
 40
0
 40
1
 40
1
 40
1
 40
1
 10
11.917959
 20
37.058817
 30
0.0
 10
11.946354
 20
37.079692
 30
0.0
 10
11.964953
 20
37.110461
 30
0.0
 10
11.970296
 20
37.145484
 30
0.0
  0
SPLINE
  5
173
100
AcDbEntity
  8
fav
 62
7
100
AcDbSpline
 70
8
 71
3
 72
8
 73
4
 74
0
 40
0
 40
0
 40
0
 40
0
 40
1
 40
1
 40
1
 40
1
 10
11.970296
 20
37.145484
 30
0.0
 10
11.975737
 20
37.180507
 30
0.0
 10
11.967130
 20
37.215431
 30
0.0
 10
11.946156
 20
37.243924
 30
0.0
  0
SPLINE
  5
174
100
AcDbEntity
  8
fav
 62
7
100
AcDbSpline
 70
8
 71
3
 72
8
 73
4
 74
0
 40
0
 40
0
 40
0
 40
0
 40
1
 40
1
 40
1
 40
1
 10
11.946156
 20
37.243924
 30
0.0
 10
11.910341
 20
37.292600
 30
0.0
 10
11.859390
 20
37.297942
 30
0.0
 10
11.839207
 20
37.297942
 30
0.0
  0
LWPOLYLINE
  5
175
100
AcDbEntity
  8
fav
 62
7
100
AcDbPolyline
 90
2
 70
0
 10
13.865889
 20
34.611760
 30
0.0
 10
13.865889
 20
34.095716
 30
0.0
  0
SPLINE
  5
176
100
AcDbEntity
  8
fav
 62
7
100
AcDbSpline
 70
8
 71
3
 72
8
 73
4
 74
0
 40
0
 40
0
 40
0
 40
0
 40
1
 40
1
 40
1
 40
1
 10
15.676438
 20
33.319492
 30
0.0
 10
15.656255
 20
33.006957
 30
0.0
 10
15.500729
 20
32.721826
 30
0.0
 10
15.249633
 20
32.537312
 30
0.0
  0
SPLINE
  5
177
100
AcDbEntity
  8
fav
 62
7
100
AcDbSpline
 70
8
 71
3
 72
8
 73
4
 74
0
 40
0
 40
0
 40
0
 40
0
 40
1
 40
1
 40
1
 40
1
 10
15.249633
 20
32.537312
 30
0.0
 10
15.067394
 20
32.403453
 30
0.0
 10
14.851914
 20
32.332715
 30
0.0
 10
14.626342
 20
32.332715
 30
0.0
  0
SPLINE
  5
178
100
AcDbEntity
  8
fav
 62
7
100
AcDbSpline
 70
8
 71
3
 72
8
 73
4
 74
0
 40
0
 40
0
 40
0
 40
0
 40
1
 40
1
 40
1
 40
1
 10
14.626342
 20
32.332715
 30
0.0
 10
14.291942
 20
32.332814
 30
0.0
 10
13.974163
 20
32.493484
 30
0.0
 10
13.776491
 20
32.762686
 30
0.0
  0
LWPOLYLINE
  5
179
100
AcDbEntity
  8
fav
 62
7
100
AcDbPolyline
 90
2
 70
0
 10
15.679505
 20
33.345512
 30
0.0
 10
15.676438
 20
33.319492
 30
0.0
  0
SPLINE
  5
17a
100
AcDbEntity
  8
fav
 62
7
100
AcDbSpline
 70
8
 71
3
 72
8
 73
4
 74
0
 40
0
 40
0
 40
0
 40
0
 40
1
 40
1
 40
1
 40
1
 10
10.310603
 20
37.466646
 30
0.0
 10
10.143799
 20
37.693702
 30
0.0
 10
10.075336
 20
37.972006
 30
0.0
 10
10.117878
 20
38.250211
 30
0.0
  0
SPLINE
  5
17b
100
AcDbEntity
  8
fav
 62
7
100
AcDbSpline
 70
8
 71
3
 72
8
 73
4
 74
0
 40
0
 40
0
 40
0
 40
0
 40
1
 40
1
 40
1
 40
1
 10
10.117878
 20
38.250211
 30
0.0
 10
10.160420
 20
38.528515
 30
0.0
 10
10.308822
 20
38.773576
 30
0.0
 10
10.535581
 20
38.940183
 30
0.0
  0
SPLINE
  5
17c
100
AcDbEntity
  8
fav
 62
7
100
AcDbSpline
 70
8
 71
3
 72
8
 73
4
 74
0
 40
0
 40
0
 40
0
 40
0
 40
1
 40
1
 40
1
 40
1
 10
10.535581
 20
38.940183
 30
0.0
 10
10.717819
 20
39.074042
 30
0.0
 10
10.933399
 20
39.144780
 30
0.0
 10
11.158970
 20
39.144780
 30
0.0
  0
SPLINE
  5
17d
100
AcDbEntity
  8
fav
 62
7
100
AcDbSpline
 70
8
 71
3
 72
8
 73
4
 74
0
 40
0
 40
0
 40
0
 40
0
 40
1
 40
1
 40
1
 40
1
 10
11.158970
 20
39.144780
 30
0.0
 10
11.493370
 20
39.144780
 30
0.0
 10
11.811050
 20
38.984110
 30
0.0
 10
12.008821
 20
38.714908
 30
0.0
  0
LWPOLYLINE
  5
17e
100
AcDbEntity
  8
fav
 62
7
100
AcDbPolyline
 90
2
 70
0
 10
13.776491
 20
32.762686
 30
0.0
 10
10.310603
 20
37.466646
 30
0.0
  0
SPLINE
  5
17f
100
AcDbEntity
  8
fav
 62
7
100
AcDbSpline
 70
8
 71
3
 72
8
 73
4
 74
0
 40
0
 40
0
 40
0
 40
0
 40
1
 40
1
 40
1
 40
1
 10
13.571894
 20
41.539797
 30
0.0
 10
13.571894
 20
42.120842
 30
0.0
 10
14.044704
 20
42.593553
 30
0.0
 10
14.625749
 20
42.593553
 30
0.0
  0
SPLINE
  5
180
100
AcDbEntity
  8
fav
 62
7
100
AcDbSpline
 70
8
 71
3
 72
8
 73
4
 74
0
 40
0
 40
0
 40
0
 40
0
 40
1
 40
1
 40
1
 40
1
 10
14.625749
 20
42.593553
 30
0.0
 10
15.206794
 20
42.593553
 30
0.0
 10
15.679505
 20
42.120842
 30
0.0
 10
15.679505
 20
41.539797
 30
0.0
  0
LWPOLYLINE
  5
181
100
AcDbEntity
  8
fav
 62
7
100
AcDbPolyline
 90
3
 70
0
 10
12.008821
 20
38.714908
 30
0.0
 10
13.571894
 20
36.593446
 30
0.0
 10
13.571894
 20
41.539797
 30
0.0
  0
SPLINE
  5
182
100
AcDbEntity
  8
fav
 62
7
100
AcDbSpline
 70
8
 71
3
 72
8
 73
4
 74
0
 40
0
 40
0
 40
0
 40
0
 40
1
 40
1
 40
1
 40
1
 10
14.625749
 20
42.629862
 30
0.0
 10
14.024620
 20
42.629862
 30
0.0
 10
13.535585
 20
42.140926
 30
0.0
 10
13.535585
 20
41.539797
 30
0.0
  0
LWPOLYLINE
  5
183
100
AcDbEntity
  8
fav
 62
7
100
AcDbPolyline
 90
2
 70
0
 10
15.679505
 20
41.539797
 30
0.0
 10
15.679505
 20
33.345512
 30
0.0
  0
SPLINE
  5
184
100
AcDbEntity
  8
fav
 62
7
100
AcDbSpline
 70
8
 71
3
 72
8
 73
4
 74
0
 40
0
 40
0
 40
0
 40
0
 40
1
 40
1
 40
1
 40
1
 10
12.038106
 20
38.736377
 30
0.0
 10
11.833508
 20
39.014879
 30
0.0
 10
11.504847
 20
39.181188
 30
0.0
 10
11.158970
 20
39.181188
 30
0.0
  0
SPLINE
  5
185
100
AcDbEntity
  8
fav
 62
7
100
AcDbSpline
 70
8
 71
3
 72
8
 73
4
 74
0
 40
0
 40
0
 40
0
 40
0
 40
1
 40
1
 40
1
 40
1
 10
11.158970
 20
39.181188
 30
0.0
 10
10.925583
 20
39.181188
 30
0.0
 10
10.702583
 20
39.107977
 30
0.0
 10
10.514112
 20
38.969468
 30
0.0
  0
SPLINE
  5
186
100
AcDbEntity
  8
fav
 62
7
100
AcDbSpline
 70
8
 71
3
 72
8
 73
4
 74
0
 40
0
 40
0
 40
0
 40
0
 40
1
 40
1
 40
1
 40
1
 10
10.514112
 20
38.969468
 30
0.0
 10
10.279439
 20
38.797024
 30
0.0
 10
10.125991
 20
38.543652
 30
0.0
 10
10.081965
 20
38.255751
 30
0.0
  0
SPLINE
  5
187
100
AcDbEntity
  8
fav
 62
7
100
AcDbSpline
 70
8
 71
3
 72
8
 73
4
 74
0
 40
0
 40
0
 40
0
 40
0
 40
1
 40
1
 40
1
 40
1
 10
10.081965
 20
38.255751
 30
0.0
 10
10.037939
 20
37.967949
 30
0.0
 10
10.108677
 20
37.680148
 30
0.0
 10
10.281318
 20
37.445078
 30
0.0
  0
LWPOLYLINE
  5
188
100
AcDbEntity
  8
fav
 62
7
100
AcDbPolyline
 90
3
 70
0
 10
13.535585
 20
41.539797
 30
0.0
 10
13.535585
 20
36.703957
 30
0.0
 10
12.038106
 20
38.736377
 30
0.0
  0
SPLINE
  5
189
100
AcDbEntity
  8
fav
 62
7
100
AcDbSpline
 70
8
 71
3
 72
8
 73
4
 74
0
 40
0
 40
0
 40
0
 40
0
 40
1
 40
1
 40
1
 40
1
 10
13.747207
 20
32.741118
 30
0.0
 10
13.951804
 20
32.462617
 30
0.0
 10
14.280466
 20
32.296406
 30
0.0
 10
14.626342
 20
32.296406
 30
0.0
  0
SPLINE
  5
18a
100
AcDbEntity
  8
fav
 62
7
100
AcDbSpline
 70
8
 71
3
 72
8
 73
4
 74
0
 40
0
 40
0
 40
0
 40
0
 40
1
 40
1
 40
1
 40
1
 10
14.626342
 20
32.296406
 30
0.0
 10
14.859730
 20
32.296406
 30
0.0
 10
15.082630
 20
32.369618
 30
0.0
 10
15.271101
 20
32.508028
 30
0.0
  0
SPLINE
  5
18b
100
AcDbEntity
  8
fav
 62
7
100
AcDbSpline
 70
8
 71
3
 72
8
 73
4
 74
0
 40
0
 40
0
 40
0
 40
0
 40
1
 40
1
 40
1
 40
1
 10
15.271101
 20
32.508028
 30
0.0
 10
15.540996
 20
32.706392
 30
0.0
 10
15.692663
 20
33.006462
 30
0.0
 10
15.712747
 20
33.317118
 30
0.0
  0
LWPOLYLINE
  5
18c
100
AcDbEntity
  8
fav
 62
7
100
AcDbPolyline
 90
2
 70
0
 10
10.281318
 20
37.445078
 30
0.0
 10
13.747207
 20
32.741118
 30
0.0
  0
SPLINE
  5
18d
100
AcDbEntity
  8
fav
 62
7
100
AcDbSpline
 70
8
 71
3
 72
8
 73
4
 74
0
 40
0
 40
0
 40
0
 40
0
 40
1
 40
1
 40
1
 40
1
 10
15.715814
 20
41.539797
 30
0.0
 10
15.715814
 20
42.140926
 30
0.0
 10
15.226877
 20
42.629862
 30
0.0
 10
14.625749
 20
42.629862
 30
0.0
  0
SPLINE
  5
18e
100
AcDbEntity
  8
fav
 62
7
100
AcDbSpline
 70
8
 71
3
 72
8
 73
4
 74
0
 40
0
 40
0
 40
0
 40
0
 40
1
 40
1
 40
1
 40
1
 10
11.245795
 20
38.088294
 30
0.0
 10
11.243025
 20
38.070387
 30
0.0
 10
11.234220
 20
38.044861
 30
0.0
 10
11.207706
 20
38.025470
 30
0.0
  0
SPLINE
  5
18f
100
AcDbEntity
  8
fav
 62
7
100
AcDbSpline
 70
8
 71
3
 72
8
 73
4
 74
0
 40
0
 40
0
 40
0
 40
0
 40
1
 40
1
 40
1
 40
1
 10
11.207706
 20
38.025470
 30
0.0
 10
11.190887
 20
38.013004
 30
0.0
 10
11.171792
 20
38.006673
 30
0.0
 10
11.151214
 20
38.006673
 30
0.0
  0
SPLINE
  5
190
100
AcDbEntity
  8
fav
 62
7
100
AcDbSpline
 70
8
 71
3
 72
8
 73
4
 74
0
 40
0
 40
0
 40
0
 40
0
 40
1
 40
1
 40
1
 40
1
 10
11.151214
 20
38.006673
 30
0.0
 10
11.136472
 20
38.006673
 30
0.0
 10
11.099372
 20
38.010531
 30
0.0
 10
11.073451
 20
38.045851
 30
0.0
  0
SPLINE
  5
191
100
AcDbEntity
  8
fav
 62
7
100
AcDbSpline
 70
8
 71
3
 72
8
 73
4
 74
0
 40
0
 40
0
 40
0
 40
0
 40
1
 40
1
 40
1
 40
1
 10
11.073451
 20
38.045851
 30
0.0
 10
11.042088
 20
38.088591
 30
0.0
 10
11.051289
 20
38.148842
 30
0.0
 10
11.093930
 20
38.180204
 30
0.0
  0
SPLINE
  5
192
100
AcDbEntity
  8
fav
 62
7
100
AcDbSpline
 70
8
 71
3
 72
8
 73
4
 74
0
 40
0
 40
0
 40
0
 40
0
 40
1
 40
1
 40
1
 40
1
 10
11.093930
 20
38.180204
 30
0.0
 10
11.110749
 20
38.192571
 30
0.0
 10
11.129844
 20
38.198903
 30
0.0
 10
11.150521
 20
38.198903
 30
0.0
  0
SPLINE
  5
193
100
AcDbEntity
  8
fav
 62
7
100
AcDbSpline
 70
8
 71
3
 72
8
 73
4
 74
0
 40
0
 40
0
 40
0
 40
0
 40
1
 40
1
 40
1
 40
1
 10
11.150521
 20
38.198903
 30
0.0
 10
11.165262
 20
38.198903
 30
0.0
 10
11.202264
 20
38.195045
 30
0.0
 10
11.228284
 20
38.159626
 30
0.0
  0
SPLINE
  5
194
100
AcDbEntity
  8
fav
 62
7
100
AcDbSpline
 70
8
 71
3
 72
8
 73
4
 74
0
 40
0
 40
0
 40
0
 40
0
 40
1
 40
1
 40
1
 40
1
 10
11.228284
 20
38.159626
 30
0.0
 10
11.247774
 20
38.133210
 30
0.0
 10
11.248566
 20
38.106201
 30
0.0
 10
11.245795
 20
38.088294
 30
0.0
  0
SPLINE
  5
195
100
AcDbEntity
  8
fav
 62
7
100
AcDbSpline
 70
8
 71
3
 72
8
 73
4
 74
0
 40
0
 40
0
 40
0
 40
0
 40
1
 40
1
 40
1
 40
1
 10
11.150521
 20
38.235212
 30
0.0
 10
11.121929
 20
38.235212
 30
0.0
 10
11.095612
 20
38.226506
 30
0.0
 10
11.072363
 20
38.209489
 30
0.0
  0
SPLINE
  5
196
100
AcDbEntity
  8
fav
 62
7
100
AcDbSpline
 70
8
 71
3
 72
8
 73
4
 74
0
 40
0
 40
0
 40
0
 40
0
 40
1
 40
1
 40
1
 40
1
 10
11.072363
 20
38.209489
 30
0.0
 10
11.013595
 20
38.166255
 30
0.0
 10
11.001030
 20
38.083248
 30
0.0
 10
11.044166
 20
38.024382
 30
0.0
  0
SPLINE
  5
197
100
AcDbEntity
  8
fav
 62
7
100
AcDbSpline
 70
8
 71
3
 72
8
 73
4
 74
0
 40
0
 40
0
 40
0
 40
0
 40
1
 40
1
 40
1
 40
1
 10
11.044166
 20
38.024382
 30
0.0
 10
11.079981
 20
37.975607
 30
0.0
 10
11.130932
 20
37.970363
 30
0.0
 10
11.151214
 20
37.970363
 30
0.0
  0
SPLINE
  5
198
100
AcDbEntity
  8
fav
 62
7
100
AcDbSpline
 70
8
 71
3
 72
8
 73
4
 74
0
 40
0
 40
0
 40
0
 40
0
 40
1
 40
1
 40
1
 40
1
 10
11.151214
 20
37.970363
 30
0.0
 10
11.179707
 20
37.970363
 30
0.0
 10
11.206024
 20
37.979070
 30
0.0
 10
11.229273
 20
37.996185
 30
0.0
  0
SPLINE
  5
199
100
AcDbEntity
  8
fav
 62
7
100
AcDbSpline
 70
8
 71
3
 72
8
 73
4
 74
0
 40
0
 40
0
 40
0
 40
0
 40
1
 40
1
 40
1
 40
1
 10
11.229273
 20
37.996185
 30
0.0
 10
11.265780
 20
38.022997
 30
0.0
 10
11.277949
 20
38.058119
 30
0.0
 10
11.281709
 20
38.082852
 30
0.0
  0
SPLINE
  5
19a
100
AcDbEntity
  8
fav
 62
7
100
AcDbSpline
 70
8
 71
3
 72
8
 73
4
 74
0
 40
0
 40
0
 40
0
 40
0
 40
1
 40
1
 40
1
 40
1
 10
11.281709
 20
38.082852
 30
0.0
 10
11.285468
 20
38.107586
 30
0.0
 10
11.284380
 20
38.144687
 30
0.0
 10
11.257470
 20
38.181095
 30
0.0
  0
SPLINE
  5
19b
100
AcDbEntity
  8
fav
 62
7
100
AcDbSpline
 70
8
 71
3
 72
8
 73
4
 74
0
 40
0
 40
0
 40
0
 40
0
 40
1
 40
1
 40
1
 40
1
 10
11.257470
 20
38.181095
 30
0.0
 10
11.221754
 20
38.229969
 30
0.0
 10
11.170803
 20
38.235212
 30
0.0
 10
11.150521
 20
38.235212
 30
0.0
  0
SPLINE
  5
19c
100
AcDbEntity
  8
fav
 62
7
100
AcDbSpline
 70
8
 71
3
 72
8
 73
4
 74
0
 40
0
 40
0
 40
0
 40
0
 40
1
 40
1
 40
1
 40
1
 10
14.625808
 20
41.616630
 30
0.0
 10
14.678738
 20
41.616630
 30
0.0
 10
14.721874
 20
41.573494
 30
0.0
 10
14.721874
 20
41.520564
 30
0.0
  0
SPLINE
  5
19d
100
AcDbEntity
  8
fav
 62
7
100
AcDbSpline
 70
8
 71
3
 72
8
 73
4
 74
0
 40
0
 40
0
 40
0
 40
0
 40
1
 40
1
 40
1
 40
1
 10
14.721874
 20
41.520564
 30
0.0
 10
14.721874
 20
41.467535
 30
0.0
 10
14.678738
 20
41.424498
 30
0.0
 10
14.625808
 20
41.424498
 30
0.0
  0
SPLINE
  5
19e
100
AcDbEntity
  8
fav
 62
7
100
AcDbSpline
 70
8
 71
3
 72
8
 73
4
 74
0
 40
0
 40
0
 40
0
 40
0
 40
1
 40
1
 40
1
 40
1
 10
14.625808
 20
41.424498
 30
0.0
 10
14.572878
 20
41.424498
 30
0.0
 10
14.529742
 20
41.467535
 30
0.0
 10
14.529742
 20
41.520564
 30
0.0
  0
SPLINE
  5
19f
100
AcDbEntity
  8
fav
 62
7
100
AcDbSpline
 70
8
 71
3
 72
8
 73
4
 74
0
 40
0
 40
0
 40
0
 40
0
 40
1
 40
1
 40
1
 40
1
 10
14.529742
 20
41.520564
 30
0.0
 10
14.529742
 20
41.573494
 30
0.0
 10
14.572878
 20
41.616630
 30
0.0
 10
14.625808
 20
41.616630
 30
0.0
  0
SPLINE
  5
1a0
100
AcDbEntity
  8
fav
 62
7
100
AcDbSpline
 70
8
 71
3
 72
8
 73
4
 74
0
 40
0
 40
0
 40
0
 40
0
 40
1
 40
1
 40
1
 40
1
 10
14.625808
 20
41.388189
 30
0.0
 10
14.698822
 20
41.388189
 30
0.0
 10
14.758183
 20
41.447550
 30
0.0
 10
14.758183
 20
41.520564
 30
0.0
  0
SPLINE
  5
1a1
100
AcDbEntity
  8
fav
 62
7
100
AcDbSpline
 70
8
 71
3
 72
8
 73
4
 74
0
 40
0
 40
0
 40
0
 40
0
 40
1
 40
1
 40
1
 40
1
 10
14.758183
 20
41.520564
 30
0.0
 10
14.758183
 20
41.593578
 30
0.0
 10
14.698822
 20
41.652939
 30
0.0
 10
14.625808
 20
41.652939
 30
0.0
  0
SPLINE
  5
1a2
100
AcDbEntity
  8
fav
 62
7
100
AcDbSpline
 70
8
 71
3
 72
8
 73
4
 74
0
 40
0
 40
0
 40
0
 40
0
 40
1
 40
1
 40
1
 40
1
 10
14.625808
 20
41.652939
 30
0.0
 10
14.552794
 20
41.652939
 30
0.0
 10
14.493334
 20
41.593578
 30
0.0
 10
14.493334
 20
41.520564
 30
0.0
  0
SPLINE
  5
1a3
100
AcDbEntity
  8
fav
 62
7
100
AcDbSpline
 70
8
 71
3
 72
8
 73
4
 74
0
 40
0
 40
0
 40
0
 40
0
 40
1
 40
1
 40
1
 40
1
 10
14.493334
 20
41.520564
 30
0.0
 10
14.493334
 20
41.447550
 30
0.0
 10
14.552794
 20
41.388189
 30
0.0
 10
14.625808
 20
41.388189
 30
0.0
  0
SPLINE
  5
1a4
100
AcDbEntity
  8
fav
 62
7
100
AcDbSpline
 70
8
 71
3
 72
8
 73
4
 74
0
 40
0
 40
0
 40
0
 40
0
 40
1
 40
1
 40
1
 40
1
 10
14.625808
 20
40.453472
 30
0.0
 10
14.678738
 20
40.453472
 30
0.0
 10
14.721874
 20
40.410336
 30
0.0
 10
14.721874
 20
40.357406
 30
0.0
  0
SPLINE
  5
1a5
100
AcDbEntity
  8
fav
 62
7
100
AcDbSpline
 70
8
 71
3
 72
8
 73
4
 74
0
 40
0
 40
0
 40
0
 40
0
 40
1
 40
1
 40
1
 40
1
 10
14.721874
 20
40.357406
 30
0.0
 10
14.721874
 20
40.304377
 30
0.0
 10
14.678738
 20
40.261340
 30
0.0
 10
14.625808
 20
40.261340
 30
0.0
  0
SPLINE
  5
1a6
100
AcDbEntity
  8
fav
 62
7
100
AcDbSpline
 70
8
 71
3
 72
8
 73
4
 74
0
 40
0
 40
0
 40
0
 40
0
 40
1
 40
1
 40
1
 40
1
 10
14.625808
 20
40.261340
 30
0.0
 10
14.572878
 20
40.261340
 30
0.0
 10
14.529742
 20
40.304377
 30
0.0
 10
14.529742
 20
40.357406
 30
0.0
  0
SPLINE
  5
1a7
100
AcDbEntity
  8
fav
 62
7
100
AcDbSpline
 70
8
 71
3
 72
8
 73
4
 74
0
 40
0
 40
0
 40
0
 40
0
 40
1
 40
1
 40
1
 40
1
 10
14.529742
 20
40.357406
 30
0.0
 10
14.529742
 20
40.410336
 30
0.0
 10
14.572878
 20
40.453472
 30
0.0
 10
14.625808
 20
40.453472
 30
0.0
  0
SPLINE
  5
1a8
100
AcDbEntity
  8
fav
 62
7
100
AcDbSpline
 70
8
 71
3
 72
8
 73
4
 74
0
 40
0
 40
0
 40
0
 40
0
 40
1
 40
1
 40
1
 40
1
 10
14.625808
 20
40.225031
 30
0.0
 10
14.698822
 20
40.225031
 30
0.0
 10
14.758183
 20
40.284392
 30
0.0
 10
14.758183
 20
40.357406
 30
0.0
  0
SPLINE
  5
1a9
100
AcDbEntity
  8
fav
 62
7
100
AcDbSpline
 70
8
 71
3
 72
8
 73
4
 74
0
 40
0
 40
0
 40
0
 40
0
 40
1
 40
1
 40
1
 40
1
 10
14.758183
 20
40.357406
 30
0.0
 10
14.758183
 20
40.430420
 30
0.0
 10
14.698822
 20
40.489781
 30
0.0
 10
14.625808
 20
40.489781
 30
0.0
  0
SPLINE
  5
1aa
100
AcDbEntity
  8
fav
 62
7
100
AcDbSpline
 70
8
 71
3
 72
8
 73
4
 74
0
 40
0
 40
0
 40
0
 40
0
 40
1
 40
1
 40
1
 40
1
 10
14.625808
 20
40.489781
 30
0.0
 10
14.552794
 20
40.489781
 30
0.0
 10
14.493334
 20
40.430420
 30
0.0
 10
14.493334
 20
40.357406
 30
0.0
  0
SPLINE
  5
1ab
100
AcDbEntity
  8
fav
 62
7
100
AcDbSpline
 70
8
 71
3
 72
8
 73
4
 74
0
 40
0
 40
0
 40
0
 40
0
 40
1
 40
1
 40
1
 40
1
 10
14.493334
 20
40.357406
 30
0.0
 10
14.493334
 20
40.284392
 30
0.0
 10
14.552794
 20
40.225031
 30
0.0
 10
14.625808
 20
40.225031
 30
0.0
  0
SPLINE
  5
1ac
100
AcDbEntity
  8
fav
 62
7
100
AcDbSpline
 70
8
 71
3
 72
8
 73
4
 74
0
 40
0
 40
0
 40
0
 40
0
 40
1
 40
1
 40
1
 40
1
 10
10.898494
 20
38.446359
 30
0.0
 10
11.088251
 20
38.585758
 30
0.0
 10
11.355079
 20
38.544997
 30
0.0
 10
11.494478
 20
38.355240
 30
0.0
  0
SPLINE
  5
1ad
100
AcDbEntity
  8
fav
 62
7
100
AcDbSpline
 70
8
 71
3
 72
8
 73
4
 74
0
 40
0
 40
0
 40
0
 40
0
 40
1
 40
1
 40
1
 40
1
 10
11.494478
 20
38.355240
 30
0.0
 10
11.633878
 20
38.165483
 30
0.0
 10
11.593116
 20
37.898655
 30
0.0
 10
11.403359
 20
37.759256
 30
0.0
  0
SPLINE
  5
1ae
100
AcDbEntity
  8
fav
 62
7
100
AcDbSpline
 70
8
 71
3
 72
8
 73
4
 74
0
 40
0
 40
0
 40
0
 40
0
 40
1
 40
1
 40
1
 40
1
 10
11.403359
 20
37.759256
 30
0.0
 10
11.213602
 20
37.619857
 30
0.0
 10
10.946775
 20
37.660618
 30
0.0
 10
10.807375
 20
37.850375
 30
0.0
  0
SPLINE
  5
1af
100
AcDbEntity
  8
fav
 62
7
100
AcDbSpline
 70
8
 71
3
 72
8
 73
4
 74
0
 40
0
 40
0
 40
0
 40
0
 40
1
 40
1
 40
1
 40
1
 10
10.807375
 20
37.850375
 30
0.0
 10
10.667976
 20
38.040132
 30
0.0
 10
10.708737
 20
38.306960
 30
0.0
 10
10.898494
 20
38.446359
 30
0.0
  0
SPLINE
  5
1b0
100
AcDbEntity
  8
fav
 62
7
100
AcDbSpline
 70
8
 71
3
 72
8
 73
4
 74
0
 40
0
 40
0
 40
0
 40
0
 40
1
 40
1
 40
1
 40
1
 10
12.183164
 20
37.417931
 30
0.0
 10
12.322564
 20
37.228173
 30
0.0
 10
12.281703
 20
36.961346
 30
0.0
 10
12.091946
 20
36.821947
 30
0.0
  0
SPLINE
  5
1b1
100
AcDbEntity
  8
fav
 62
7
100
AcDbSpline
 70
8
 71
3
 72
8
 73
4
 74
0
 40
0
 40
0
 40
0
 40
0
 40
1
 40
1
 40
1
 40
1
 10
12.091946
 20
36.821947
 30
0.0
 10
11.902288
 20
36.682547
 30
0.0
 10
11.635461
 20
36.723308
 30
0.0
 10
11.496061
 20
36.913066
 30
0.0
  0
SPLINE
  5
1b2
100
AcDbEntity
  8
fav
 62
7
100
AcDbSpline
 70
8
 71
3
 72
8
 73
4
 74
0
 40
0
 40
0
 40
0
 40
0
 40
1
 40
1
 40
1
 40
1
 10
11.496061
 20
36.913066
 30
0.0
 10
11.356563
 20
37.102823
 30
0.0
 10
11.397423
 20
37.369650
 30
0.0
 10
11.587180
 20
37.509050
 30
0.0
  0
SPLINE
  5
1b3
100
AcDbEntity
  8
fav
 62
7
100
AcDbSpline
 70
8
 71
3
 72
8
 73
4
 74
0
 40
0
 40
0
 40
0
 40
0
 40
1
 40
1
 40
1
 40
1
 10
11.587180
 20
37.509050
 30
0.0
 10
11.776938
 20
37.648449
 30
0.0
 10
12.043765
 20
37.607688
 30
0.0
 10
12.183164
 20
37.417931
 30
0.0
  0
SPLINE
  5
1b4
100
AcDbEntity
  8
fav
 62
7
100
AcDbSpline
 70
8
 71
3
 72
8
 73
4
 74
0
 40
0
 40
0
 40
0
 40
0
 40
1
 40
1
 40
1
 40
1
 10
12.871751
 20
36.480621
 30
0.0
 10
13.011151
 20
36.290864
 30
0.0
 10
12.970390
 20
36.024036
 30
0.0
 10
12.780632
 20
35.884637
 30
0.0
  0
SPLINE
  5
1b5
100
AcDbEntity
  8
fav
 62
7
100
AcDbSpline
 70
8
 71
3
 72
8
 73
4
 74
0
 40
0
 40
0
 40
0
 40
0
 40
1
 40
1
 40
1
 40
1
 10
12.780632
 20
35.884637
 30
0.0
 10
12.590875
 20
35.745238
 30
0.0
 10
12.324048
 20
35.785999
 30
0.0
 10
12.184648
 20
35.975756
 30
0.0
  0
SPLINE
  5
1b6
100
AcDbEntity
  8
fav
 62
7
100
AcDbSpline
 70
8
 71
3
 72
8
 73
4
 74
0
 40
0
 40
0
 40
0
 40
0
 40
1
 40
1
 40
1
 40
1
 10
12.184648
 20
35.975756
 30
0.0
 10
12.045249
 20
36.165513
 30
0.0
 10
12.086109
 20
36.432440
 30
0.0
 10
12.275767
 20
36.571740
 30
0.0
  0
SPLINE
  5
1b7
100
AcDbEntity
  8
fav
 62
7
100
AcDbSpline
 70
8
 71
3
 72
8
 73
4
 74
0
 40
0
 40
0
 40
0
 40
0
 40
1
 40
1
 40
1
 40
1
 10
12.275767
 20
36.571740
 30
0.0
 10
12.465525
 20
36.711139
 30
0.0
 10
12.732352
 20
36.670378
 30
0.0
 10
12.871751
 20
36.480621
 30
0.0
  0
SPLINE
  5
1b8
100
AcDbEntity
  8
fav
 62
7
100
AcDbSpline
 70
8
 71
3
 72
8
 73
4
 74
0
 40
0
 40
0
 40
0
 40
0
 40
1
 40
1
 40
1
 40
1
 10
13.560437
 20
35.543312
 30
0.0
 10
13.699837
 20
35.353554
 30
0.0
 10
13.659076
 20
35.086727
 30
0.0
 10
13.469318
 20
34.947328
 30
0.0
  0
SPLINE
  5
1b9
100
AcDbEntity
  8
fav
 62
7
100
AcDbSpline
 70
8
 71
3
 72
8
 73
4
 74
0
 40
0
 40
0
 40
0
 40
0
 40
1
 40
1
 40
1
 40
1
 10
13.469318
 20
34.947328
 30
0.0
 10
13.279561
 20
34.807928
 30
0.0
 10
13.012734
 20
34.848690
 30
0.0
 10
12.873334
 20
35.038447
 30
0.0
  0
SPLINE
  5
1ba
100
AcDbEntity
  8
fav
 62
7
100
AcDbSpline
 70
8
 71
3
 72
8
 73
4
 74
0
 40
0
 40
0
 40
0
 40
0
 40
1
 40
1
 40
1
 40
1
 10
12.873334
 20
35.038447
 30
0.0
 10
12.733935
 20
35.228204
 30
0.0
 10
12.774696
 20
35.495031
 30
0.0
 10
12.964453
 20
35.634431
 30
0.0
  0
SPLINE
  5
1bb
100
AcDbEntity
  8
fav
 62
7
100
AcDbSpline
 70
8
 71
3
 72
8
 73
4
 74
0
 40
0
 40
0
 40
0
 40
0
 40
1
 40
1
 40
1
 40
1
 10
12.964453
 20
35.634431
 30
0.0
 10
13.154211
 20
35.773830
 30
0.0
 10
13.421038
 20
35.733069
 30
0.0
 10
13.560437
 20
35.543312
 30
0.0
  0
SPLINE
  5
1bc
100
AcDbEntity
  8
fav
 62
7
100
AcDbSpline
 70
8
 71
3
 72
8
 73
4
 74
0
 40
0
 40
0
 40
0
 40
0
 40
1
 40
1
 40
1
 40
1
 10
14.249123
 20
34.606002
 30
0.0
 10
14.388523
 20
34.416245
 30
0.0
 10
14.347663
 20
34.149417
 30
0.0
 10
14.158004
 20
34.010018
 30
0.0
  0
SPLINE
  5
1bd
100
AcDbEntity
  8
fav
 62
7
100
AcDbSpline
 70
8
 71
3
 72
8
 73
4
 74
0
 40
0
 40
0
 40
0
 40
0
 40
1
 40
1
 40
1
 40
1
 10
14.158004
 20
34.010018
 30
0.0
 10
13.968247
 20
33.870619
 30
0.0
 10
13.701420
 20
33.911380
 30
0.0
 10
13.562020
 20
34.101137
 30
0.0
  0
SPLINE
  5
1be
100
AcDbEntity
  8
fav
 62
7
100
AcDbSpline
 70
8
 71
3
 72
8
 73
4
 74
0
 40
0
 40
0
 40
0
 40
0
 40
1
 40
1
 40
1
 40
1
 10
13.562020
 20
34.101137
 30
0.0
 10
13.422621
 20
34.290894
 30
0.0
 10
13.463382
 20
34.557722
 30
0.0
 10
13.653139
 20
34.697121
 30
0.0
  0
SPLINE
  5
1bf
100
AcDbEntity
  8
fav
 62
7
100
AcDbSpline
 70
8
 71
3
 72
8
 73
4
 74
0
 40
0
 40
0
 40
0
 40
0
 40
1
 40
1
 40
1
 40
1
 10
13.653139
 20
34.697121
 30
0.0
 10
13.842897
 20
34.836521
 30
0.0
 10
14.109724
 20
34.795858
 30
0.0
 10
14.249123
 20
34.606002
 30
0.0
  0
SPLINE
  5
1c0
100
AcDbEntity
  8
fav
 62
7
100
AcDbSpline
 70
8
 71
3
 72
8
 73
4
 74
0
 40
0
 40
0
 40
0
 40
0
 40
1
 40
1
 40
1
 40
1
 10
15.159720
 20
33.408098
 30
0.0
 10
15.159720
 20
33.099619
 30
0.0
 10
14.909613
 20
32.849610
 30
0.0
 10
14.601233
 20
32.849610
 30
0.0
  0
SPLINE
  5
1c1
100
AcDbEntity
  8
fav
 62
7
100
AcDbSpline
 70
8
 71
3
 72
8
 73
4
 74
0
 40
0
 40
0
 40
0
 40
0
 40
1
 40
1
 40
1
 40
1
 10
14.601233
 20
32.849610
 30
0.0
 10
14.292853
 20
32.849610
 30
0.0
 10
14.042844
 20
33.099619
 30
0.0
 10
14.042844
 20
33.408098
 30
0.0
  0
SPLINE
  5
1c2
100
AcDbEntity
  8
fav
 62
7
100
AcDbSpline
 70
8
 71
3
 72
8
 73
4
 74
0
 40
0
 40
0
 40
0
 40
0
 40
1
 40
1
 40
1
 40
1
 10
14.042844
 20
33.408098
 30
0.0
 10
14.042844
 20
33.716478
 30
0.0
 10
14.292853
 20
33.966487
 30
0.0
 10
14.601233
 20
33.966487
 30
0.0
  0
SPLINE
  5
1c3
100
AcDbEntity
  8
fav
 62
7
100
AcDbSpline
 70
8
 71
3
 72
8
 73
4
 74
0
 40
0
 40
0
 40
0
 40
0
 40
1
 40
1
 40
1
 40
1
 10
14.601233
 20
33.966487
 30
0.0
 10
14.909613
 20
33.966487
 30
0.0
 10
15.159720
 20
33.716478
 30
0.0
 10
15.159720
 20
33.408098
 30
0.0
  0
LWPOLYLINE
  5
1c4
100
AcDbEntity
  8
fav
 62
7
100
AcDbPolyline
 90
3
 70
0
 10
15.712747
 20
33.317118
 30
0.0
 10
15.715814
 20
33.315040
 30
0.0
 10
15.715814
 20
41.539797
 30
0.0
  0
SPLINE
  5
1c5
100
AcDbEntity
  8
fav
 62
7
100
AcDbSpline
 70
8
 71
3
 72
8
 73
4
 74
0
 40
0
 40
0
 40
0
 40
0
 40
1
 40
1
 40
1
 40
1
 10
14.013361
 20
32.936772
 30
0.0
 10
14.261886
 20
32.598415
 30
0.0
 10
14.737466
 20
32.525697
 30
0.0
 10
15.075626
 20
32.774222
 30
0.0
  0
SPLINE
  5
1c6
100
AcDbEntity
  8
fav
 62
7
100
AcDbSpline
 70
8
 71
3
 72
8
 73
4
 74
0
 40
0
 40
0
 40
0
 40
0
 40
1
 40
1
 40
1
 40
1
 10
15.075626
 20
32.774222
 30
0.0
 10
15.413884
 20
33.022648
 30
0.0
 10
15.486601
 20
33.498327
 30
0.0
 10
15.238077
 20
33.836486
 30
0.0
  0
LWPOLYLINE
  5
1c7
100
AcDbEntity
  8
fav
 62
7
100
AcDbPolyline
 90
2
 70
0
 10
10.547275
 20
37.641029
 30
0.0
 10
14.013361
 20
32.936772
 30
0.0
  0
SPLINE
  5
1c8
100
AcDbEntity
  8
fav
 62
7
100
AcDbSpline
 70
8
 71
3
 72
8
 73
4
 74
0
 40
0
 40
0
 40
0
 40
0
 40
1
 40
1
 40
1
 40
1
 10
11.771991
 20
38.540842
 30
0.0
 10
11.523565
 20
38.879002
 30
0.0
 10
11.047886
 20
38.951818
 30
0.0
 10
10.709726
 20
38.703293
 30
0.0
  0
SPLINE
  5
1c9
100
AcDbEntity
  8
fav
 62
7
100
AcDbSpline
 70
8
 71
3
 72
8
 73
4
 74
0
 40
0
 40
0
 40
0
 40
0
 40
1
 40
1
 40
1
 40
1
 10
10.709726
 20
38.703293
 30
0.0
 10
10.371567
 20
38.454769
 30
0.0
 10
10.298751
 20
37.979188
 30
0.0
 10
10.547275
 20
37.641029
 30
0.0
  0
LWPOLYLINE
  5
1ca
100
AcDbEntity
  8
fav
 62
7
100
AcDbPolyline
 90
2
 70
0
 10
15.238077
 20
33.836486
 30
0.0
 10
11.771991
 20
38.540842
 30
0.0
  0
SPLINE
  5
1cb
100
AcDbEntity
  8
fav
 62
7
100
AcDbSpline
 70
8
 71
3
 72
8
 73
4
 74
0
 40
0
 40
0
 40
0
 40
0
 40
1
 40
1
 40
1
 40
1
 10
18.310778
 20
34.763309
 30
0.0
 10
18.416243
 20
34.915570
 30
0.0
 10
18.436129
 20
35.124619
 30
0.0
 10
18.361433
 20
35.295875
 30
0.0
  0
LWPOLYLINE
  5
1cc
100
AcDbEntity
  8
fav
 62
7
100
AcDbPolyline
 90
2
 70
0
 10
17.839056
 20
34.075810
 30
0.0
 10
18.310778
 20
34.763309
 30
0.0
  0
SPLINE
  5
1cd
100
AcDbEntity
  8
fav
 62
7
100
AcDbSpline
 70
8
 71
3
 72
8
 73
4
 74
0
 40
0
 40
0
 40
0
 40
0
 40
1
 40
1
 40
1
 40
1
 10
18.004574
 20
36.187873
 30
0.0
 10
17.942839
 20
36.358436
 30
0.0
 10
17.778211
 20
36.495362
 30
0.0
 10
17.593797
 20
36.529297
 30
0.0
  0
LWPOLYLINE
  5
1ce
100
AcDbEntity
  8
fav
 62
7
100
AcDbPolyline
 90
2
 70
0
 10
18.361433
 20
35.295875
 30
0.0
 10
18.004574
 20
36.187873
 30
0.0
  0
SPLINE
  5
1cf
100
AcDbEntity
  8
fav
 62
7
100
AcDbSpline
 70
8
 71
3
 72
8
 73
4
 74
0
 40
0
 40
0
 40
0
 40
0
 40
1
 40
1
 40
1
 40
1
 10
17.622587
 20
37.411994
 30
0.0
 10
17.806012
 20
37.445929
 30
0.0
 10
17.968364
 20
37.580679
 30
0.0
 10
18.035937
 20
37.755101
 30
0.0
  0
LWPOLYLINE
  5
1d0
100
AcDbEntity
  8
fav
 62
7
100
AcDbPolyline
 90
4
 70
0
 10
17.593797
 20
36.529297
 30
0.0
 10
16.758489
 20
36.684724
 30
0.0
 10
16.758390
 20
37.251423
 30
0.0
 10
17.622587
 20
37.411994
 30
0.0
  0
SPLINE
  5
1d1
100
AcDbEntity
  8
fav
 62
7
100
AcDbSpline
 70
8
 71
3
 72
8
 73
4
 74
0
 40
0
 40
0
 40
0
 40
0
 40
1
 40
1
 40
1
 40
1
 10
18.392597
 20
38.586550
 30
0.0
 10
18.470459
 20
38.752662
 30
0.0
 10
18.452849
 20
38.964481
 30
0.0
 10
18.345801
 20
39.121689
 30
0.0
  0
LWPOLYLINE
  5
1d2
100
AcDbEntity
  8
fav
 62
7
100
AcDbPolyline
 90
2
 70
0
 10
18.035937
 20
37.755101
 30
0.0
 10
18.392597
 20
38.586550
 30
0.0
  0
SPLINE
  5
1d3
100
AcDbEntity
  8
fav
 62
7
100
AcDbSpline
 70
8
 71
3
 72
8
 73
4
 74
0
 40
0
 40
0
 40
0
 40
0
 40
1
 40
1
 40
1
 40
1
 10
18.994814
 20
39.742308
 30
0.0
 10
19.084647
 20
39.680869
 30
0.0
 10
19.195652
 20
39.647231
 30
0.0
 10
19.307646
 20
39.647231
 30
0.0
  0
SPLINE
  5
1d4
100
AcDbEntity
  8
fav
 62
7
100
AcDbSpline
 70
8
 71
3
 72
8
 73
4
 74
0
 40
0
 40
0
 40
0
 40
0
 40
1
 40
1
 40
1
 40
1
 10
19.307646
 20
39.647231
 30
0.0
 10
19.384816
 20
39.647231
 30
0.0
 10
19.461490
 20
39.663259
 30
0.0
 10
19.529953
 20
39.693533
 30
0.0
  0
LWPOLYLINE
  5
1d5
100
AcDbEntity
  8
fav
 62
7
100
AcDbPolyline
 90
4
 70
0
 10
18.345801
 20
39.121689
 30
0.0
 10
17.839155
 20
39.860238
 30
0.0
 10
18.239644
 20
40.260529
 30
0.0
 10
18.994814
 20
39.742308
 30
0.0
  0
SPLINE
  5
1d6
100
AcDbEntity
  8
fav
 62
7
100
AcDbSpline
 70
8
 71
3
 72
8
 73
4
 74
0
 40
0
 40
0
 40
0
 40
0
 40
1
 40
1
 40
1
 40
1
 10
20.338449
 20
40.024272
 30
0.0
 10
20.509013
 20
40.087986
 30
0.0
 10
20.644653
 20
40.249745
 30
0.0
 10
20.680072
 20
40.434555
 30
0.0
  0
LWPOLYLINE
  5
1d7
100
AcDbEntity
  8
fav
 62
7
100
AcDbPolyline
 90
2
 70
0
 10
19.529953
 20
39.693533
 30
0.0
 10
20.338449
 20
40.024272
 30
0.0
  0
SPLINE
  5
1d8
100
AcDbEntity
  8
fav
 62
7
100
AcDbSpline
 70
8
 71
3
 72
8
 73
4
 74
0
 40
0
 40
0
 40
0
 40
0
 40
1
 40
1
 40
1
 40
1
 10
21.583644
 20
40.435050
 30
0.0
 10
21.619063
 20
40.249151
 30
0.0
 10
21.756187
 20
40.086997
 30
0.0
 10
21.933082
 20
40.021304
 30
0.0
  0
LWPOLYLINE
  5
1d9
100
AcDbEntity
  8
fav
 62
7
100
AcDbPolyline
 90
4
 70
0
 10
20.680072
 20
40.434555
 30
0.0
 10
20.848657
 20
41.341195
 30
0.0
 10
21.415059
 20
41.341195
 30
0.0
 10
21.583644
 20
40.435050
 30
0.0
  0
SPLINE
  5
1da
100
AcDbEntity
  8
fav
 62
7
100
AcDbSpline
 70
8
 71
3
 72
8
 73
4
 74
0
 40
0
 40
0
 40
0
 40
0
 40
1
 40
1
 40
1
 40
1
 10
22.739402
 20
39.691059
 30
0.0
 10
22.802720
 20
39.662962
 30
0.0
 10
22.878900
 20
39.647231
 30
0.0
 10
22.956070
 20
39.647231
 30
0.0
  0
SPLINE
  5
1db
100
AcDbEntity
  8
fav
 62
7
100
AcDbSpline
 70
8
 71
3
 72
8
 73
4
 74
0
 40
0
 40
0
 40
0
 40
0
 40
1
 40
1
 40
1
 40
1
 10
22.956070
 20
39.647231
 30
0.0
 10
23.069152
 20
39.647231
 30
0.0
 10
23.180751
 20
39.681364
 30
0.0
 10
23.270188
 20
39.743396
 30
0.0
  0
LWPOLYLINE
  5
1dc
100
AcDbEntity
  8
fav
 62
7
100
AcDbPolyline
 90
2
 70
0
 10
21.933082
 20
40.021304
 30
0.0
 10
22.739402
 20
39.691059
 30
0.0
  0
SPLINE
  5
1dd
100
AcDbEntity
  8
fav
 62
7
100
AcDbSpline
 70
8
 71
3
 72
8
 73
4
 74
0
 40
0
 40
0
 40
0
 40
0
 40
1
 40
1
 40
1
 40
1
 10
23.918410
 20
39.122579
 30
0.0
 10
23.810472
 20
38.965570
 30
0.0
 10
23.793257
 20
38.752167
 30
0.0
 10
23.874482
 20
38.578932
 30
0.0
  0
LWPOLYLINE
  5
1de
100
AcDbEntity
  8
fav
 62
7
100
AcDbPolyline
 90
4
 70
0
 10
23.270188
 20
39.743396
 30
0.0
 10
24.024072
 20
40.260529
 30
0.0
 10
24.424462
 20
39.860139
 30
0.0
 10
23.918410
 20
39.122579
 30
0.0
  0
SPLINE
  5
1df
100
AcDbEntity
  8
fav
 62
7
100
AcDbSpline
 70
8
 71
3
 72
8
 73
4
 74
0
 40
0
 40
0
 40
0
 40
0
 40
1
 40
1
 40
1
 40
1
 10
24.231044
 20
37.746691
 30
0.0
 10
24.296935
 20
37.578700
 30
0.0
 10
24.458495
 20
37.445830
 30
0.0
 10
24.640832
 20
37.412093
 30
0.0
  0
LWPOLYLINE
  5
1e0
100
AcDbEntity
  8
fav
 62
7
100
AcDbPolyline
 90
2
 70
0
 10
23.874482
 20
38.578932
 30
0.0
 10
24.231044
 20
37.746691
 30
0.0
  0
SPLINE
  5
1e1
100
AcDbEntity
  8
fav
 62
7
100
AcDbSpline
 70
8
 71
3
 72
8
 73
4
 74
0
 40
0
 40
0
 40
0
 40
0
 40
1
 40
1
 40
1
 40
1
 10
24.670315
 20
36.529594
 30
0.0
 10
24.483922
 20
36.495659
 30
0.0
 10
24.321075
 20
36.357843
 30
0.0
 10
24.255283
 20
36.178078
 30
0.0
  0
LWPOLYLINE
  5
1e2
100
AcDbEntity
  8
fav
 62
7
100
AcDbPolyline
 90
4
 70
0
 10
24.640832
 20
37.412093
 30
0.0
 10
25.505227
 20
37.251423
 30
0.0
 10
25.505128
 20
36.684724
 30
0.0
 10
24.670315
 20
36.529594
 30
0.0
  0
SPLINE
  5
1e3
100
AcDbEntity
  8
fav
 62
7
100
AcDbSpline
 70
8
 71
3
 72
8
 73
4
 74
0
 40
0
 40
0
 40
0
 40
0
 40
1
 40
1
 40
1
 40
1
 10
23.898029
 20
35.285883
 30
0.0
 10
23.826994
 20
35.124025
 30
0.0
 10
23.848858
 20
34.914580
 30
0.0
 10
23.952542
 20
34.763605
 30
0.0
  0
LWPOLYLINE
  5
1e4
100
AcDbEntity
  8
fav
 62
7
100
AcDbPolyline
 90
2
 70
0
 10
24.255283
 20
36.178078
 30
0.0
 10
23.898029
 20
35.285883
 30
0.0
  0
SPLINE
  5
1e5
100
AcDbEntity
  8
fav
 62
7
100
AcDbSpline
 70
8
 71
3
 72
8
 73
4
 74
0
 40
0
 40
0
 40
0
 40
0
 40
1
 40
1
 40
1
 40
1
 10
23.352700
 20
34.135962
 30
0.0
 10
23.264747
 20
34.196510
 30
0.0
 10
23.155522
 20
34.229753
 30
0.0
 10
23.045507
 20
34.229753
 30
0.0
  0
SPLINE
  5
1e6
100
AcDbEntity
  8
fav
 62
7
100
AcDbSpline
 70
8
 71
3
 72
8
 73
4
 74
0
 40
0
 40
0
 40
0
 40
0
 40
1
 40
1
 40
1
 40
1
 10
23.045507
 20
34.229753
 30
0.0
 10
22.952706
 20
34.229753
 30
0.0
 10
22.861884
 20
34.206503
 30
0.0
 10
22.782637
 20
34.162774
 30
0.0
  0
LWPOLYLINE
  5
1e7
100
AcDbEntity
  8
fav
 62
7
100
AcDbPolyline
 90
4
 70
0
 10
23.952542
 20
34.763605
 30
0.0
 10
24.424462
 20
34.075711
 30
0.0
 10
24.024072
 20
33.675222
 30
0.0
 10
23.352700
 20
34.135962
 30
0.0
  0
SPLINE
  5
1e8
100
AcDbEntity
  8
fav
 62
7
100
AcDbSpline
 70
8
 71
3
 72
8
 73
4
 74
0
 40
0
 40
0
 40
0
 40
0
 40
1
 40
1
 40
1
 40
1
 10
22.210991
 20
35.509872
 30
0.0
 10
22.669653
 20
35.850801
 30
0.0
 10
22.940438
 20
36.386138
 30
0.0
 10
22.940438
 20
36.961049
 30
0.0
  0
SPLINE
  5
1e9
100
AcDbEntity
  8
fav
 62
7
100
AcDbSpline
 70
8
 71
3
 72
8
 73
4
 74
0
 40
0
 40
0
 40
0
 40
0
 40
1
 40
1
 40
1
 40
1
 10
22.940438
 20
36.961049
 30
0.0
 10
22.940438
 20
37.958313
 30
0.0
 10
22.129073
 20
38.769777
 30
0.0
 10
21.131808
 20
38.769777
 30
0.0
  0
SPLINE
  5
1ea
100
AcDbEntity
  8
fav
 62
7
100
AcDbSpline
 70
8
 71
3
 72
8
 73
4
 74
0
 40
0
 40
0
 40
0
 40
0
 40
1
 40
1
 40
1
 40
1
 10
21.131808
 20
38.769777
 30
0.0
 10
20.134446
 20
38.769777
 30
0.0
 10
19.323080
 20
37.958313
 30
0.0
 10
19.323080
 20
36.961049
 30
0.0
  0
SPLINE
  5
1eb
100
AcDbEntity
  8
fav
 62
7
100
AcDbSpline
 70
8
 71
3
 72
8
 73
4
 74
0
 40
0
 40
0
 40
0
 40
0
 40
1
 40
1
 40
1
 40
1
 10
19.323080
 20
36.961049
 30
0.0
 10
19.323080
 20
36.386039
 30
0.0
 10
19.593964
 20
35.850801
 30
0.0
 10
20.052527
 20
35.509971
 30
0.0
  0
LWPOLYLINE
  5
1ec
100
AcDbEntity
  8
fav
 62
7
100
AcDbPolyline
 90
3
 70
0
 10
22.782637
 20
34.162774
 30
0.0
 10
22.771259
 20
34.156739
 30
0.0
 10
22.210991
 20
35.509872
 30
0.0
  0
SPLINE
  5
1ed
100
AcDbEntity
  8
fav
 62
7
100
AcDbSpline
 70
8
 71
3
 72
8
 73
4
 74
0
 40
0
 40
0
 40
0
 40
0
 40
1
 40
1
 40
1
 40
1
 10
19.478507
 20
34.164258
 30
0.0
 10
19.401041
 20
34.206701
 30
0.0
 10
19.310515
 20
34.229753
 30
0.0
 10
19.218110
 20
34.229753
 30
0.0
  0
SPLINE
  5
1ee
100
AcDbEntity
  8
fav
 62
7
100
AcDbSpline
 70
8
 71
3
 72
8
 73
4
 74
0
 40
0
 40
0
 40
0
 40
0
 40
1
 40
1
 40
1
 40
1
 10
19.218110
 20
34.229753
 30
0.0
 10
19.108095
 20
34.229753
 30
0.0
 10
18.998969
 20
34.196510
 30
0.0
 10
18.910818
 20
34.135863
 30
0.0
  0
LWPOLYLINE
  5
1ef
100
AcDbEntity
  8
fav
 62
7
100
AcDbPolyline
 90
3
 70
0
 10
20.052527
 20
35.509971
 30
0.0
 10
19.492556
 20
34.156739
 30
0.0
 10
19.478507
 20
34.164258
 30
0.0
  0
LWPOLYLINE
  5
1f0
100
AcDbEntity
  8
fav
 62
7
100
AcDbPolyline
 90
3
 70
0
 10
18.910818
 20
34.135863
 30
0.0
 10
18.239743
 20
33.675222
 30
0.0
 10
17.839056
 20
34.075810
 30
0.0
  0
SPLINE
  5
1f1
100
AcDbEntity
  8
fav
 62
7
100
AcDbSpline
 70
8
 71
3
 72
8
 73
4
 74
0
 40
0
 40
0
 40
0
 40
0
 40
1
 40
1
 40
1
 40
1
 10
23.110646
 20
33.783081
 30
0.0
 10
23.093431
 20
33.794854
 30
0.0
 10
23.069785
 20
33.801582
 30
0.0
 10
23.045546
 20
33.801582
 30
0.0
  0
SPLINE
  5
1f2
100
AcDbEntity
  8
fav
 62
7
100
AcDbSpline
 70
8
 71
3
 72
8
 73
4
 74
0
 40
0
 40
0
 40
0
 40
0
 40
1
 40
1
 40
1
 40
1
 10
23.045546
 20
33.801582
 30
0.0
 10
23.025166
 20
33.801582
 30
0.0
 10
23.005280
 20
33.796833
 30
0.0
 10
22.989549
 20
33.788127
 30
0.0
  0
LWPOLYLINE
  5
1f3
100
AcDbEntity
  8
fav
 62
7
100
AcDbPolyline
 90
4
 70
0
 10
24.305285
 20
35.006115
 30
0.0
 10
24.978735
 20
34.024680
 30
0.0
 10
24.075261
 20
33.121009
 30
0.0
 10
23.110646
 20
33.783081
 30
0.0
  0
SPLINE
  5
1f4
100
AcDbEntity
  8
fav
 62
7
100
AcDbSpline
 70
8
 71
3
 72
8
 73
4
 74
0
 40
0
 40
0
 40
0
 40
0
 40
1
 40
1
 40
1
 40
1
 10
21.813114
 20
35.749908
 30
0.0
 10
21.832307
 20
35.762175
 30
0.0
 10
21.851501
 20
35.776917
 30
0.0
 10
21.869408
 20
35.792054
 30
0.0
  0
LWPOLYLINE
  5
1f5
100
AcDbEntity
  8
fav
 62
7
100
AcDbPolyline
 90
4
 70
0
 10
22.989549
 20
33.788127
 30
0.0
 10
22.556214
 20
33.556718
 30
0.0
 10
21.676782
 20
35.681741
 30
0.0
 10
21.813114
 20
35.749908
 30
0.0
  0
SPLINE
  5
1f6
100
AcDbEntity
  8
fav
 62
7
100
AcDbSpline
 70
8
 71
3
 72
8
 73
4
 74
0
 40
0
 40
0
 40
0
 40
0
 40
1
 40
1
 40
1
 40
1
 10
21.887513
 20
35.805806
 30
0.0
 10
22.278900
 20
36.062245
 30
0.0
 10
22.512584
 20
36.494096
 30
0.0
 10
22.512584
 20
36.961069
 30
0.0
  0
SPLINE
  5
1f7
100
AcDbEntity
  8
fav
 62
7
100
AcDbSpline
 70
8
 71
3
 72
8
 73
4
 74
0
 40
0
 40
0
 40
0
 40
0
 40
1
 40
1
 40
1
 40
1
 10
22.512584
 20
36.961069
 30
0.0
 10
22.512584
 20
37.722472
 30
0.0
 10
21.893053
 20
38.341805
 30
0.0
 10
21.131848
 20
38.341805
 30
0.0
  0
SPLINE
  5
1f8
100
AcDbEntity
  8
fav
 62
7
100
AcDbSpline
 70
8
 71
3
 72
8
 73
4
 74
0
 40
0
 40
0
 40
0
 40
0
 40
1
 40
1
 40
1
 40
1
 10
21.131848
 20
38.341805
 30
0.0
 10
20.370445
 20
38.341805
 30
0.0
 10
19.751112
 20
37.722472
 30
0.0
 10
19.751112
 20
36.961069
 30
0.0
  0
SPLINE
  5
1f9
100
AcDbEntity
  8
fav
 62
7
100
AcDbSpline
 70
8
 71
3
 72
8
 73
4
 74
0
 40
0
 40
0
 40
0
 40
0
 40
1
 40
1
 40
1
 40
1
 10
19.751112
 20
36.961069
 30
0.0
 10
19.751112
 20
36.493997
 30
0.0
 10
19.984797
 20
36.062047
 30
0.0
 10
20.376183
 20
35.805707
 30
0.0
  0
LWPOLYLINE
  5
1fa
100
AcDbEntity
  8
fav
 62
7
100
AcDbPolyline
 90
3
 70
0
 10
21.869408
 20
35.792054
 30
0.0
 10
21.879400
 20
35.800859
 30
0.0
 10
21.887513
 20
35.805806
 30
0.0
  0
SPLINE
  5
1fb
100
AcDbEntity
  8
fav
 62
7
100
AcDbSpline
 70
8
 71
3
 72
8
 73
4
 74
0
 40
0
 40
0
 40
0
 40
0
 40
1
 40
1
 40
1
 40
1
 10
20.394288
 20
35.792054
 30
0.0
 10
20.424265
 20
35.766430
 30
0.0
 10
20.447713
 20
35.751392
 30
0.0
 10
20.454144
 20
35.747335
 30
0.0
  0
LWPOLYLINE
  5
1fc
100
AcDbEntity
  8
fav
 62
7
100
AcDbPolyline
 90
3
 70
0
 10
20.376183
 20
35.805707
 30
0.0
 10
20.387363
 20
35.798485
 30
0.0
 10
20.394288
 20
35.792054
 30
0.0
  0
SPLINE
  5
1fd
100
AcDbEntity
  8
fav
 62
7
100
AcDbSpline
 70
8
 71
3
 72
8
 73
4
 74
0
 40
0
 40
0
 40
0
 40
0
 40
1
 40
1
 40
1
 40
1
 10
19.276917
 20
33.786742
 30
0.0
 10
19.258416
 20
33.796635
 30
0.0
 10
19.239322
 20
33.801582
 30
0.0
 10
19.218150
 20
33.801582
 30
0.0
  0
SPLINE
  5
1fe
100
AcDbEntity
  8
fav
 62
7
100
AcDbSpline
 70
8
 71
3
 72
8
 73
4
 74
0
 40
0
 40
0
 40
0
 40
0
 40
1
 40
1
 40
1
 40
1
 10
19.218150
 20
33.801582
 30
0.0
 10
19.194010
 20
33.801582
 30
0.0
 10
19.170166
 20
33.794854
 30
0.0
 10
19.152853
 20
33.782883
 30
0.0
  0
LWPOLYLINE
  5
1ff
100
AcDbEntity
  8
fav
 62
7
100
AcDbPolyline
 90
5
 70
0
 10
20.454144
 20
35.747335
 30
0.0
 10
20.581473
 20
35.669770
 30
0.0
 10
20.524783
 20
35.531756
 30
0.0
 10
19.707482
 20
33.556718
 30
0.0
 10
19.276917
 20
33.786742
 30
0.0
  0
SPLINE
  5
200
100
AcDbEntity
  8
fav
 62
7
100
AcDbSpline
 70
8
 71
3
 72
8
 73
4
 74
0
 40
0
 40
0
 40
0
 40
0
 40
1
 40
1
 40
1
 40
1
 10
17.957818
 20
35.005323
 30
0.0
 10
17.980474
 20
35.038071
 30
0.0
 10
17.985124
 20
35.088725
 30
0.0
 10
17.968899
 20
35.125331
 30
0.0
  0
LWPOLYLINE
  5
201
100
AcDbEntity
  8
fav
 62
7
100
AcDbPolyline
 90
4
 70
0
 10
19.152853
 20
33.782883
 30
0.0
 10
18.188732
 20
33.121009
 30
0.0
 10
17.284961
 20
34.024581
 30
0.0
 10
17.957818
 20
35.005323
 30
0.0
  0
SPLINE
  5
202
100
AcDbEntity
  8
fav
 62
7
100
AcDbSpline
 70
8
 71
3
 72
8
 73
4
 74
0
 40
0
 40
0
 40
0
 40
0
 40
1
 40
1
 40
1
 40
1
 10
17.606302
 20
36.031476
 30
0.0
 10
17.593045
 20
36.068379
 30
0.0
 10
17.555054
 20
36.101127
 30
0.0
 10
17.516271
 20
36.108448
 30
0.0
  0
LWPOLYLINE
  5
203
100
AcDbEntity
  8
fav
 62
7
100
AcDbPolyline
 90
2
 70
0
 10
17.968899
 20
35.125331
 30
0.0
 10
17.606302
 20
36.031476
 30
0.0
  0
SPLINE
  5
204
100
AcDbEntity
  8
fav
 62
7
100
AcDbSpline
 70
8
 71
3
 72
8
 73
4
 74
0
 40
0
 40
0
 40
0
 40
0
 40
1
 40
1
 40
1
 40
1
 10
17.544468
 20
37.832785
 30
0.0
 10
17.583547
 20
37.840106
 30
0.0
 10
17.622428
 20
37.872556
 30
0.0
 10
17.636972
 20
37.909954
 30
0.0
  0
LWPOLYLINE
  5
205
100
AcDbEntity
  8
fav
 62
7
100
AcDbPolyline
 90
4
 70
0
 10
17.516271
 20
36.108448
 30
0.0
 10
16.330536
 20
36.329073
 30
0.0
 10
16.330536
 20
37.607015
 30
0.0
 10
17.544468
 20
37.832785
 30
0.0
  0
SPLINE
  5
206
100
AcDbEntity
  8
fav
 62
7
100
AcDbSpline
 70
8
 71
3
 72
8
 73
4
 74
0
 40
0
 40
0
 40
0
 40
0
 40
1
 40
1
 40
1
 40
1
 10
17.999272
 20
38.755353
 30
0.0
 10
18.018069
 20
38.795817
 30
0.0
 10
18.015398
 20
38.846670
 30
0.0
 10
17.991950
 20
38.881000
 30
0.0
  0
LWPOLYLINE
  5
207
100
AcDbEntity
  8
fav
 62
7
100
AcDbPolyline
 90
2
 70
0
 10
17.636972
 20
37.909954
 30
0.0
 10
17.999272
 20
38.755353
 30
0.0
  0
SPLINE
  5
208
100
AcDbEntity
  8
fav
 62
7
100
AcDbSpline
 70
8
 71
3
 72
8
 73
4
 74
0
 40
0
 40
0
 40
0
 40
0
 40
1
 40
1
 40
1
 40
1
 10
19.236947
 20
40.095228
 30
0.0
 10
19.255448
 20
40.082565
 30
0.0
 10
19.281369
 20
40.075244
 30
0.0
 10
19.307587
 20
40.075244
 30
0.0
  0
SPLINE
  5
209
100
AcDbEntity
  8
fav
 62
7
100
AcDbSpline
 70
8
 71
3
 72
8
 73
4
 74
0
 40
0
 40
0
 40
0
 40
0
 40
1
 40
1
 40
1
 40
1
 10
19.307587
 20
40.075244
 30
0.0
 10
19.325593
 20
40.075244
 30
0.0
 10
19.342709
 20
40.078607
 30
0.0
 10
19.356659
 20
40.084840
 30
0.0
  0
LWPOLYLINE
  5
20a
100
AcDbEntity
  8
fav
 62
7
100
AcDbPolyline
 90
4
 70
0
 10
17.991950
 20
38.881000
 30
0.0
 10
17.285060
 20
39.911308
 30
0.0
 10
18.188534
 20
40.814584
 30
0.0
 10
19.236947
 20
40.095228
 30
0.0
  0
SPLINE
  5
20b
100
AcDbEntity
  8
fav
 62
7
100
AcDbSpline
 70
8
 71
3
 72
8
 73
4
 74
0
 40
0
 40
0
 40
0
 40
0
 40
1
 40
1
 40
1
 40
1
 10
20.176335
 20
40.420427
 30
0.0
 10
20.217986
 20
40.436158
 30
0.0
 10
20.251723
 20
40.474149
 30
0.0
 10
20.259539
 20
40.514811
 30
0.0
  0
LWPOLYLINE
  5
20c
100
AcDbEntity
  8
fav
 62
7
100
AcDbPolyline
 90
2
 70
0
 10
19.356659
 20
40.084840
 30
0.0
 10
20.176335
 20
40.420427
 30
0.0
  0
SPLINE
  5
20d
100
AcDbEntity
  8
fav
 62
7
100
AcDbSpline
 70
8
 71
3
 72
8
 73
4
 74
0
 40
0
 40
0
 40
0
 40
0
 40
1
 40
1
 40
1
 40
1
 10
22.004355
 20
40.513327
 30
0.0
 10
22.011577
 20
40.475336
 30
0.0
 10
22.044918
 20
40.436356
 30
0.0
 10
22.082019
 20
40.422604
 30
0.0
  0
LWPOLYLINE
  5
20e
100
AcDbEntity
  8
fav
 62
7
100
AcDbPolyline
 90
4
 70
0
 10
20.259539
 20
40.514811
 30
0.0
 10
20.492926
 20
41.769207
 30
0.0
 10
21.770770
 20
41.769207
 30
0.0
 10
22.004355
 20
40.513327
 30
0.0
  0
SPLINE
  5
20f
100
AcDbEntity
  8
fav
 62
7
100
AcDbSpline
 70
8
 71
3
 72
8
 73
4
 74
0
 40
0
 40
0
 40
0
 40
0
 40
1
 40
1
 40
1
 40
1
 10
22.901596
 20
40.087116
 30
0.0
 10
22.920196
 20
40.078904
 30
0.0
 10
22.937312
 20
40.075244
 30
0.0
 10
22.956010
 20
40.075244
 30
0.0
  0
SPLINE
  5
210
100
AcDbEntity
  8
fav
 62
7
100
AcDbSpline
 70
8
 71
3
 72
8
 73
4
 74
0
 40
0
 40
0
 40
0
 40
0
 40
1
 40
1
 40
1
 40
1
 10
22.956010
 20
40.075244
 30
0.0
 10
22.982525
 20
40.075244
 30
0.0
 10
23.008248
 20
40.082565
 30
0.0
 10
23.026551
 20
40.095228
 30
0.0
  0
LWPOLYLINE
  5
211
100
AcDbEntity
  8
fav
 62
7
100
AcDbPolyline
 90
2
 70
0
 10
22.082019
 20
40.422604
 30
0.0
 10
22.901596
 20
40.087116
 30
0.0
  0
SPLINE
  5
212
100
AcDbEntity
  8
fav
 62
7
100
AcDbSpline
 70
8
 71
3
 72
8
 73
4
 74
0
 40
0
 40
0
 40
0
 40
0
 40
1
 40
1
 40
1
 40
1
 10
24.271350
 20
38.880505
 30
0.0
 10
24.248793
 20
38.847659
 30
0.0
 10
24.244934
 20
38.797301
 30
0.0
 10
24.261951
 20
38.760695
 30
0.0
  0
LWPOLYLINE
  5
213
100
AcDbEntity
  8
fav
 62
7
100
AcDbPolyline
 90
4
 70
0
 10
23.026551
 20
40.095228
 30
0.0
 10
24.075261
 20
40.814584
 30
0.0
 10
24.978735
 20
39.911308
 30
0.0
 10
24.271350
 20
38.880505
 30
0.0
  0
SPLINE
  5
214
100
AcDbEntity
  8
fav
 62
7
100
AcDbSpline
 70
8
 71
3
 72
8
 73
4
 74
0
 40
0
 40
0
 40
0
 40
0
 40
1
 40
1
 40
1
 40
1
 10
24.624548
 20
37.915395
 30
0.0
 10
24.640971
 20
37.873744
 30
0.0
 10
24.678764
 20
37.840205
 30
0.0
 10
24.718734
 20
37.832883
 30
0.0
  0
LWPOLYLINE
  5
215
100
AcDbEntity
  8
fav
 62
7
100
AcDbPolyline
 90
2
 70
0
 10
24.261951
 20
38.760695
 30
0.0
 10
24.624548
 20
37.915395
 30
0.0
  0
SPLINE
  5
216
100
AcDbEntity
  8
fav
 62
7
100
AcDbSpline
 70
8
 71
3
 72
8
 73
4
 74
0
 40
0
 40
0
 40
0
 40
0
 40
1
 40
1
 40
1
 40
1
 10
24.748612
 20
36.108646
 30
0.0
 10
24.709335
 20
36.101522
 30
0.0
 10
24.670750
 20
36.068577
 30
0.0
 10
24.657097
 20
36.030487
 30
0.0
  0
LWPOLYLINE
  5
217
100
AcDbEntity
  8
fav
 62
7
100
AcDbPolyline
 90
4
 70
0
 10
24.718734
 20
37.832883
 30
0.0
 10
25.933160
 20
37.607015
 30
0.0
 10
25.933061
 20
36.329073
 30
0.0
 10
24.748612
 20
36.108646
 30
0.0
  0
SPLINE
  5
218
100
AcDbEntity
  8
fav
 62
7
100
AcDbSpline
 70
8
 71
3
 72
8
 73
4
 74
0
 40
0
 40
0
 40
0
 40
0
 40
1
 40
1
 40
1
 40
1
 10
24.294402
 20
35.124342
 30
0.0
 10
24.278473
 20
35.088725
 30
0.0
 10
24.282925
 20
35.038565
 30
0.0
 10
24.305285
 20
35.006115
 30
0.0
  0
SPLINE
  5
219
100
AcDbEntity
  8
fav
 62
7
100
AcDbSpline
 70
8
 71
3
 72
8
 73
4
 74
0
 40
0
 40
0
 40
0
 40
0
 40
1
 40
1
 40
1
 40
1
 10
24.685591
 20
36.020297
 30
0.0
 10
24.695484
 20
36.047801
 30
0.0
 10
24.725263
 20
36.073623
 30
0.0
 10
24.754152
 20
36.078866
 30
0.0
  0
LWPOLYLINE
  5
21a
100
AcDbEntity
  8
fav
 62
7
100
AcDbPolyline
 90
2
 70
0
 10
24.657097
 20
36.030487
 30
0.0
 10
24.294402
 20
35.124342
 30
0.0
  0
SPLINE
  5
21b
100
AcDbEntity
  8
fav
 62
7
100
AcDbSpline
 70
8
 71
3
 72
8
 73
4
 74
0
 40
0
 40
0
 40
0
 40
0
 40
1
 40
1
 40
1
 40
1
 10
24.724175
 20
37.862663
 30
0.0
 10
24.696078
 20
37.867807
 30
0.0
 10
24.665705
 20
37.893531
 30
0.0
 10
24.652447
 20
37.927366
 30
0.0
  0
LWPOLYLINE
  5
21c
100
AcDbEntity
  8
fav
 62
7
100
AcDbPolyline
 90
4
 70
0
 10
24.754152
 20
36.078866
 30
0.0
 10
25.963434
 20
36.303844
 30
0.0
 10
25.963533
 20
37.632144
 30
0.0
 10
24.724175
 20
37.862663
 30
0.0
  0
SPLINE
  5
21d
100
AcDbEntity
  8
fav
 62
7
100
AcDbSpline
 70
8
 71
3
 72
8
 73
4
 74
0
 40
0
 40
0
 40
0
 40
0
 40
1
 40
1
 40
1
 40
1
 10
24.289455
 20
38.773656
 30
0.0
 10
24.276989
 20
38.800170
 30
0.0
 10
24.279858
 20
38.839546
 30
0.0
 10
24.296282
 20
38.863390
 30
0.0
  0
LWPOLYLINE
  5
21e
100
AcDbEntity
  8
fav
 62
7
100
AcDbPolyline
 90
2
 70
0
 10
24.652447
 20
37.927366
 30
0.0
 10
24.289455
 20
38.773656
 30
0.0
  0
SPLINE
  5
21f
100
AcDbEntity
  8
fav
 62
7
100
AcDbSpline
 70
8
 71
3
 72
8
 73
4
 74
0
 40
0
 40
0
 40
0
 40
0
 40
1
 40
1
 40
1
 40
1
 10
23.009237
 20
40.120061
 30
0.0
 10
22.995980
 20
40.110959
 30
0.0
 10
22.975995
 20
40.105419
 30
0.0
 10
22.956010
 20
40.105419
 30
0.0
  0
SPLINE
  5
220
100
AcDbEntity
  8
fav
 62
7
100
AcDbSpline
 70
8
 71
3
 72
8
 73
4
 74
0
 40
0
 40
0
 40
0
 40
0
 40
1
 40
1
 40
1
 40
1
 10
22.956010
 20
40.105419
 30
0.0
 10
22.942555
 20
40.105419
 30
0.0
 10
22.929496
 20
40.108090
 30
0.0
 10
22.913072
 20
40.115213
 30
0.0
  0
LWPOLYLINE
  5
221
100
AcDbEntity
  8
fav
 62
7
100
AcDbPolyline
 90
4
 70
0
 10
24.296282
 20
38.863390
 30
0.0
 10
25.017814
 20
39.914870
 30
0.0
 10
24.078724
 20
40.853861
 30
0.0
 10
23.009237
 20
40.120061
 30
0.0
  0
SPLINE
  5
222
100
AcDbEntity
  8
fav
 62
7
100
AcDbSpline
 70
8
 71
3
 72
8
 73
4
 74
0
 40
0
 40
0
 40
0
 40
0
 40
1
 40
1
 40
1
 40
1
 10
22.092704
 20
40.450998
 30
0.0
 10
22.065101
 20
40.461189
 30
0.0
 10
22.039477
 20
40.491463
 30
0.0
 10
22.034234
 20
40.518868
 30
0.0
  0
LWPOLYLINE
  5
223
100
AcDbEntity
  8
fav
 62
7
100
AcDbPolyline
 90
2
 70
0
 10
22.913072
 20
40.115213
 30
0.0
 10
22.092704
 20
40.450998
 30
0.0
  0
SPLINE
  5
224
100
AcDbEntity
  8
fav
 62
7
100
AcDbSpline
 70
8
 71
3
 72
8
 73
4
 74
0
 40
0
 40
0
 40
0
 40
0
 40
1
 40
1
 40
1
 40
1
 10
20.229858
 20
40.520550
 30
0.0
 10
20.224318
 20
40.491661
 30
0.0
 10
20.198496
 20
40.461189
 30
0.0
 10
20.164759
 20
40.448525
 30
0.0
  0
LWPOLYLINE
  5
225
100
AcDbEntity
  8
fav
 62
7
100
AcDbPolyline
 90
4
 70
0
 10
22.034234
 20
40.518868
 30
0.0
 10
21.795998
 20
41.799481
 30
0.0
 10
20.467797
 20
41.799481
 30
0.0
 10
20.229858
 20
40.520550
 30
0.0
  0
SPLINE
  5
226
100
AcDbEntity
  8
fav
 62
7
100
AcDbSpline
 70
8
 71
3
 72
8
 73
4
 74
0
 40
0
 40
0
 40
0
 40
0
 40
1
 40
1
 40
1
 40
1
 10
19.344193
 20
40.112542
 30
0.0
 10
19.334102
 20
40.107991
 30
0.0
 10
19.321042
 20
40.105419
 30
0.0
 10
19.307587
 20
40.105419
 30
0.0
  0
SPLINE
  5
227
100
AcDbEntity
  8
fav
 62
7
100
AcDbSpline
 70
8
 71
3
 72
8
 73
4
 74
0
 40
0
 40
0
 40
0
 40
0
 40
1
 40
1
 40
1
 40
1
 10
19.307587
 20
40.105419
 30
0.0
 10
19.287602
 20
40.105419
 30
0.0
 10
19.267716
 20
40.110959
 30
0.0
 10
19.254063
 20
40.120358
 30
0.0
  0
LWPOLYLINE
  5
228
100
AcDbEntity
  8
fav
 62
7
100
AcDbPolyline
 90
2
 70
0
 10
20.164759
 20
40.448525
 30
0.0
 10
19.344193
 20
40.112542
 30
0.0
  0
SPLINE
  5
229
100
AcDbEntity
  8
fav
 62
7
100
AcDbSpline
 70
8
 71
3
 72
8
 73
4
 74
0
 40
0
 40
0
 40
0
 40
0
 40
1
 40
1
 40
1
 40
1
 10
17.967019
 20
38.863983
 30
0.0
 10
17.983739
 20
38.839348
 30
0.0
 10
17.986806
 20
38.800368
 30
0.0
 10
17.971372
 20
38.767324
 30
0.0
  0
LWPOLYLINE
  5
22a
100
AcDbEntity
  8
fav
 62
7
100
AcDbPolyline
 90
4
 70
0
 10
19.254063
 20
40.120358
 30
0.0
 10
18.184972
 20
40.853861
 30
0.0
 10
17.245882
 20
39.914969
 30
0.0
 10
17.967019
 20
38.863983
 30
0.0
  0
SPLINE
  5
22b
100
AcDbEntity
  8
fav
 62
7
100
AcDbSpline
 70
8
 71
3
 72
8
 73
4
 74
0
 40
0
 40
0
 40
0
 40
0
 40
1
 40
1
 40
1
 40
1
 10
17.608578
 20
37.920738
 30
0.0
 10
17.598090
 20
37.893432
 30
0.0
 10
17.567421
 20
37.867807
 30
0.0
 10
17.538828
 20
37.862564
 30
0.0
  0
LWPOLYLINE
  5
22c
100
AcDbEntity
  8
fav
 62
7
100
AcDbPolyline
 90
2
 70
0
 10
17.971372
 20
38.767324
 30
0.0
 10
17.608578
 20
37.920738
 30
0.0
  0
SPLINE
  5
22d
100
AcDbEntity
  8
fav
 62
7
100
AcDbSpline
 70
8
 71
3
 72
8
 73
4
 74
0
 40
0
 40
0
 40
0
 40
0
 40
1
 40
1
 40
1
 40
1
 10
17.510731
 20
36.078668
 30
0.0
 10
17.538631
 20
36.073524
 30
0.0
 10
17.568212
 20
36.047801
 30
0.0
 10
17.578106
 20
36.020198
 30
0.0
  0
LWPOLYLINE
  5
22e
100
AcDbEntity
  8
fav
 62
7
100
AcDbPolyline
 90
4
 70
0
 10
17.538828
 20
37.862564
 30
0.0
 10
16.300163
 20
37.632144
 30
0.0
 10
16.300163
 20
36.303844
 30
0.0
 10
17.510731
 20
36.078668
 30
0.0
  0
SPLINE
  5
22f
100
AcDbEntity
  8
fav
 62
7
100
AcDbSpline
 70
8
 71
3
 72
8
 73
4
 74
0
 40
0
 40
0
 40
0
 40
0
 40
1
 40
1
 40
1
 40
1
 10
17.941098
 20
35.113162
 30
0.0
 10
17.953069
 20
35.086252
 30
0.0
 10
17.949606
 20
35.046777
 30
0.0
 10
17.932787
 20
35.022538
 30
0.0
  0
LWPOLYLINE
  5
230
100
AcDbEntity
  8
fav
 62
7
100
AcDbPolyline
 90
2
 70
0
 10
17.578106
 20
36.020198
 30
0.0
 10
17.941098
 20
35.113162
 30
0.0
  0
SPLINE
  5
231
100
AcDbEntity
  8
fav
 62
7
100
AcDbSpline
 70
8
 71
3
 72
8
 73
4
 74
0
 40
0
 40
0
 40
0
 40
0
 40
1
 40
1
 40
1
 40
1
 10
19.170067
 20
33.757952
 30
0.0
 10
19.182335
 20
33.766460
 30
0.0
 10
19.200342
 20
33.771407
 30
0.0
 10
19.218150
 20
33.771407
 30
0.0
  0
SPLINE
  5
232
100
AcDbEntity
  8
fav
 62
7
100
AcDbSpline
 70
8
 71
3
 72
8
 73
4
 74
0
 40
0
 40
0
 40
0
 40
0
 40
1
 40
1
 40
1
 40
1
 10
19.218150
 20
33.771407
 30
0.0
 10
19.233584
 20
33.771407
 30
0.0
 10
19.247929
 20
33.767944
 30
0.0
 10
19.262473
 20
33.759930
 30
0.0
  0
LWPOLYLINE
  5
233
100
AcDbEntity
  8
fav
 62
7
100
AcDbPolyline
 90
4
 70
0
 10
17.932787
 20
35.022538
 30
0.0
 10
17.245684
 20
34.021020
 30
0.0
 10
18.185071
 20
33.081929
 30
0.0
 10
19.170067
 20
33.757952
 30
0.0
  0
SPLINE
  5
234
100
AcDbEntity
  8
fav
 62
7
100
AcDbSpline
 70
8
 71
3
 72
8
 73
4
 74
0
 40
0
 40
0
 40
0
 40
0
 40
1
 40
1
 40
1
 40
1
 10
20.470072
 20
35.773256
 30
0.0
 10
20.457804
 20
35.780775
 30
0.0
 10
20.436731
 20
35.795517
 30
0.0
 10
20.413976
 20
35.815106
 30
0.0
  0
LWPOLYLINE
  5
235
100
AcDbEntity
  8
fav
 62
7
100
AcDbPolyline
 90
5
 70
0
 10
19.262473
 20
33.759930
 30
0.0
 10
19.722718
 20
33.514275
 30
0.0
 10
20.552782
 20
35.520181
 30
0.0
 10
20.619365
 20
35.682137
 30
0.0
 10
20.470072
 20
35.773256
 30
0.0
  0
SPLINE
  5
236
100
AcDbEntity
  8
fav
 62
7
100
AcDbSpline
 70
8
 71
3
 72
8
 73
4
 74
0
 40
0
 40
0
 40
0
 40
0
 40
1
 40
1
 40
1
 40
1
 10
20.392804
 20
35.831034
 30
0.0
 10
20.009827
 20
36.081834
 30
0.0
 10
19.781287
 20
36.504286
 30
0.0
 10
19.781287
 20
36.961069
 30
0.0
  0
SPLINE
  5
237
100
AcDbEntity
  8
fav
 62
7
100
AcDbSpline
 70
8
 71
3
 72
8
 73
4
 74
0
 40
0
 40
0
 40
0
 40
0
 40
1
 40
1
 40
1
 40
1
 10
19.781287
 20
36.961069
 30
0.0
 10
19.781287
 20
37.705752
 30
0.0
 10
20.387066
 20
38.311531
 30
0.0
 10
21.131848
 20
38.311531
 30
0.0
  0
SPLINE
  5
238
100
AcDbEntity
  8
fav
 62
7
100
AcDbSpline
 70
8
 71
3
 72
8
 73
4
 74
0
 40
0
 40
0
 40
0
 40
0
 40
1
 40
1
 40
1
 40
1
 10
21.131848
 20
38.311531
 30
0.0
 10
21.876333
 20
38.311531
 30
0.0
 10
22.482112
 20
37.705752
 30
0.0
 10
22.482112
 20
36.961069
 30
0.0
  0
SPLINE
  5
239
100
AcDbEntity
  8
fav
 62
7
100
AcDbSpline
 70
8
 71
3
 72
8
 73
4
 74
0
 40
0
 40
0
 40
0
 40
0
 40
1
 40
1
 40
1
 40
1
 10
22.482112
 20
36.961069
 30
0.0
 10
22.482112
 20
36.504286
 30
0.0
 10
22.253770
 20
36.081933
 30
0.0
 10
21.871090
 20
35.831232
 30
0.0
  0
LWPOLYLINE
  5
23a
100
AcDbEntity
  8
fav
 62
7
100
AcDbPolyline
 90
3
 70
0
 10
20.413976
 20
35.815106
 30
0.0
 10
20.403885
 20
35.823812
 30
0.0
 10
20.392804
 20
35.831034
 30
0.0
  0
SPLINE
  5
23b
100
AcDbEntity
  8
fav
 62
7
100
AcDbSpline
 70
8
 71
3
 72
8
 73
4
 74
0
 40
0
 40
0
 40
0
 40
0
 40
1
 40
1
 40
1
 40
1
 10
21.849621
 20
35.815106
 30
0.0
 10
21.833099
 20
35.800859
 30
0.0
 10
21.814499
 20
35.786810
 30
0.0
 10
21.799560
 20
35.777016
 30
0.0
  0
LWPOLYLINE
  5
23c
100
AcDbEntity
  8
fav
 62
7
100
AcDbPolyline
 90
3
 70
0
 10
21.871090
 20
35.831232
 30
0.0
 10
21.859712
 20
35.823911
 30
0.0
 10
21.849621
 20
35.815106
 30
0.0
  0
SPLINE
  5
23d
100
AcDbEntity
  8
fav
 62
7
100
AcDbSpline
 70
8
 71
3
 72
8
 73
4
 74
0
 40
0
 40
0
 40
0
 40
0
 40
1
 40
1
 40
1
 40
1
 10
23.004290
 20
33.761711
 30
0.0
 10
23.015569
 20
33.767845
 30
0.0
 10
23.030211
 20
33.771407
 30
0.0
 10
23.045546
 20
33.771407
 30
0.0
  0
SPLINE
  5
23e
100
AcDbEntity
  8
fav
 62
7
100
AcDbSpline
 70
8
 71
3
 72
8
 73
4
 74
0
 40
0
 40
0
 40
0
 40
0
 40
1
 40
1
 40
1
 40
1
 10
23.045546
 20
33.771407
 30
0.0
 10
23.063256
 20
33.771407
 30
0.0
 10
23.081460
 20
33.766460
 30
0.0
 10
23.093431
 20
33.758150
 30
0.0
  0
LWPOLYLINE
  5
23f
100
AcDbEntity
  8
fav
 62
7
100
AcDbPolyline
 90
4
 70
0
 10
21.799560
 20
35.777016
 30
0.0
 10
21.637900
 20
35.696186
 30
0.0
 10
22.540978
 20
33.514275
 30
0.0
 10
23.004290
 20
33.761711
 30
0.0
  0
SPLINE
  5
240
100
AcDbEntity
  8
fav
 62
7
100
AcDbSpline
 70
8
 71
3
 72
8
 73
4
 74
0
 40
0
 40
0
 40
0
 40
0
 40
1
 40
1
 40
1
 40
1
 10
24.330315
 20
35.023230
 30
0.0
 10
24.314090
 20
35.046876
 30
0.0
 10
24.310627
 20
35.086450
 30
0.0
 10
24.322499
 20
35.113162
 30
0.0
  0
LWPOLYLINE
  5
241
100
AcDbEntity
  8
fav
 62
7
100
AcDbPolyline
 90
4
 70
0
 10
23.093431
 20
33.758150
 30
0.0
 10
24.078724
 20
33.081929
 30
0.0
 10
25.017913
 20
34.021119
 30
0.0
 10
24.330315
 20
35.023230
 30
0.0
  0
LWPOLYLINE
  5
242
100
AcDbEntity
  8
fav
 62
7
100
AcDbPolyline
 90
2
 70
0
 10
24.322499
 20
35.113162
 30
0.0
 10
24.685591
 20
36.020297
 30
0.0
  0
SPLINE
  5
243
100
AcDbEntity
  8
fav
 62
7
100
AcDbSpline
 70
8
 71
3
 72
8
 73
4
 74
0
 40
0
 40
0
 40
0
 40
0
 40
1
 40
1
 40
1
 40
1
 10
29.252318
 20
41.888330
 30
0.0
 10
29.374243
 20
41.888330
 30
0.0
 10
29.491175
 20
41.839895
 30
0.0
 10
29.577390
 20
41.753681
 30
0.0
  0
SPLINE
  5
244
100
AcDbEntity
  8
fav
 62
7
100
AcDbSpline
 70
8
 71
3
 72
8
 73
4
 74
0
 40
0
 40
0
 40
0
 40
0
 40
1
 40
1
 40
1
 40
1
 10
29.577390
 20
41.753681
 30
0.0
 10
29.663604
 20
41.667466
 30
0.0
 10
29.712039
 20
41.550534
 30
0.0
 10
29.712039
 20
41.428609
 30
0.0
  0
LWPOLYLINE
  5
245
100
AcDbEntity
  8
fav
 62
7
100
AcDbPolyline
 90
2
 70
0
 10
27.133611
 20
41.888330
 30
0.0
 10
29.252318
 20
41.888330
 30
0.0
  0
SPLINE
  5
246
100
AcDbEntity
  8
fav
 62
7
100
AcDbSpline
 70
8
 71
3
 72
8
 73
4
 74
0
 40
0
 40
0
 40
0
 40
0
 40
1
 40
1
 40
1
 40
1
 10
29.712039
 20
39.329878
 30
0.0
 10
29.712039
 20
39.207953
 30
0.0
 10
29.663604
 20
39.091021
 30
0.0
 10
29.577390
 20
39.004806
 30
0.0
  0
SPLINE
  5
247
100
AcDbEntity
  8
fav
 62
7
100
AcDbSpline
 70
8
 71
3
 72
8
 73
4
 74
0
 40
0
 40
0
 40
0
 40
0
 40
1
 40
1
 40
1
 40
1
 10
29.577390
 20
39.004806
 30
0.0
 10
29.491175
 20
38.918592
 30
0.0
 10
29.374243
 20
38.870157
 30
0.0
 10
29.252318
 20
38.870157
 30
0.0
  0
LWPOLYLINE
  5
248
100
AcDbEntity
  8
fav
 62
7
100
AcDbPolyline
 90
2
 70
0
 10
29.712039
 20
41.428609
 30
0.0
 10
29.712039
 20
39.329878
 30
0.0
  0
SPLINE
  5
249
100
AcDbEntity
  8
fav
 62
7
100
AcDbSpline
 70
8
 71
3
 72
8
 73
4
 74
0
 40
0
 40
0
 40
0
 40
0
 40
1
 40
1
 40
1
 40
1
 10
27.133611
 20
38.870157
 30
0.0
 10
27.011685
 20
38.870157
 30
0.0
 10
26.894753
 20
38.918592
 30
0.0
 10
26.808539
 20
39.004806
 30
0.0
  0
SPLINE
  5
24a
100
AcDbEntity
  8
fav
 62
7
100
AcDbSpline
 70
8
 71
3
 72
8
 73
4
 74
0
 40
0
 40
0
 40
0
 40
0
 40
1
 40
1
 40
1
 40
1
 10
26.808539
 20
39.004806
 30
0.0
 10
26.722324
 20
39.091021
 30
0.0
 10
26.673890
 20
39.207953
 30
0.0
 10
26.673890
 20
39.329878
 30
0.0
  0
LWPOLYLINE
  5
24b
100
AcDbEntity
  8
fav
 62
7
100
AcDbPolyline
 90
2
 70
0
 10
29.252318
 20
38.870157
 30
0.0
 10
27.133611
 20
38.870157
 30
0.0
  0
SPLINE
  5
24c
100
AcDbEntity
  8
fav
 62
7
100
AcDbSpline
 70
8
 71
3
 72
8
 73
4
 74
0
 40
0
 40
0
 40
0
 40
0
 40
1
 40
1
 40
1
 40
1
 10
26.673890
 20
41.428609
 30
0.0
 10
26.673890
 20
41.550534
 30
0.0
 10
26.722324
 20
41.667466
 30
0.0
 10
26.808539
 20
41.753681
 30
0.0
  0
SPLINE
  5
24d
100
AcDbEntity
  8
fav
 62
7
100
AcDbSpline
 70
8
 71
3
 72
8
 73
4
 74
0
 40
0
 40
0
 40
0
 40
0
 40
1
 40
1
 40
1
 40
1
 10
26.808539
 20
41.753681
 30
0.0
 10
26.894753
 20
41.839895
 30
0.0
 10
27.011685
 20
41.888330
 30
0.0
 10
27.133611
 20
41.888330
 30
0.0
  0
LWPOLYLINE
  5
24e
100
AcDbEntity
  8
fav
 62
7
100
AcDbPolyline
 90
2
 70
0
 10
26.673890
 20
39.329878
 30
0.0
 10
26.673890
 20
41.428609
 30
0.0
  0
LWPOLYLINE
  5
24f
100
AcDbEntity
  8
fav
 62
7
100
AcDbPolyline
 90
1
 70
1
 10
27.133611
 20
41.888330
 30
0.0
  0
SPLINE
  5
250
100
AcDbEntity
  8
fav
 62
7
100
AcDbSpline
 70
8
 71
3
 72
8
 73
4
 74
0
 40
0
 40
0
 40
0
 40
0
 40
1
 40
1
 40
1
 40
1
 10
29.272310
 20
38.660290
 30
0.0
 10
29.394235
 20
38.660290
 30
0.0
 10
29.511167
 20
38.611856
 30
0.0
 10
29.597382
 20
38.525641
 30
0.0
  0
SPLINE
  5
251
100
AcDbEntity
  8
fav
 62
7
100
AcDbSpline
 70
8
 71
3
 72
8
 73
4
 74
0
 40
0
 40
0
 40
0
 40
0
 40
1
 40
1
 40
1
 40
1
 10
29.597382
 20
38.525641
 30
0.0
 10
29.683596
 20
38.439427
 30
0.0
 10
29.732031
 20
38.322495
 30
0.0
 10
29.732031
 20
38.200569
 30
0.0
  0
LWPOLYLINE
  5
252
100
AcDbEntity
  8
fav
 62
7
100
AcDbPolyline
 90
2
 70
0
 10
27.153603
 20
38.660290
 30
0.0
 10
29.272310
 20
38.660290
 30
0.0
  0
SPLINE
  5
253
100
AcDbEntity
  8
fav
 62
7
100
AcDbSpline
 70
8
 71
3
 72
8
 73
4
 74
0
 40
0
 40
0
 40
0
 40
0
 40
1
 40
1
 40
1
 40
1
 10
29.732031
 20
36.101839
 30
0.0
 10
29.732031
 20
35.979913
 30
0.0
 10
29.683596
 20
35.862982
 30
0.0
 10
29.597382
 20
35.776767
 30
0.0
  0
SPLINE
  5
254
100
AcDbEntity
  8
fav
 62
7
100
AcDbSpline
 70
8
 71
3
 72
8
 73
4
 74
0
 40
0
 40
0
 40
0
 40
0
 40
1
 40
1
 40
1
 40
1
 10
29.597382
 20
35.776767
 30
0.0
 10
29.511167
 20
35.690553
 30
0.0
 10
29.394235
 20
35.642118
 30
0.0
 10
29.272310
 20
35.642118
 30
0.0
  0
LWPOLYLINE
  5
255
100
AcDbEntity
  8
fav
 62
7
100
AcDbPolyline
 90
2
 70
0
 10
29.732031
 20
38.200569
 30
0.0
 10
29.732031
 20
36.101839
 30
0.0
  0
SPLINE
  5
256
100
AcDbEntity
  8
fav
 62
7
100
AcDbSpline
 70
8
 71
3
 72
8
 73
4
 74
0
 40
0
 40
0
 40
0
 40
0
 40
1
 40
1
 40
1
 40
1
 10
27.153603
 20
35.642118
 30
0.0
 10
27.031677
 20
35.642118
 30
0.0
 10
26.914745
 20
35.690553
 30
0.0
 10
26.828531
 20
35.776767
 30
0.0
  0
SPLINE
  5
257
100
AcDbEntity
  8
fav
 62
7
100
AcDbSpline
 70
8
 71
3
 72
8
 73
4
 74
0
 40
0
 40
0
 40
0
 40
0
 40
1
 40
1
 40
1
 40
1
 10
26.828531
 20
35.776767
 30
0.0
 10
26.742316
 20
35.862982
 30
0.0
 10
26.693882
 20
35.979913
 30
0.0
 10
26.693882
 20
36.101839
 30
0.0
  0
LWPOLYLINE
  5
258
100
AcDbEntity
  8
fav
 62
7
100
AcDbPolyline
 90
2
 70
0
 10
29.272310
 20
35.642118
 30
0.0
 10
27.153603
 20
35.642118
 30
0.0
  0
SPLINE
  5
259
100
AcDbEntity
  8
fav
 62
7
100
AcDbSpline
 70
8
 71
3
 72
8
 73
4
 74
0
 40
0
 40
0
 40
0
 40
0
 40
1
 40
1
 40
1
 40
1
 10
26.693882
 20
38.200569
 30
0.0
 10
26.693882
 20
38.322495
 30
0.0
 10
26.742316
 20
38.439427
 30
0.0
 10
26.828531
 20
38.525641
 30
0.0
  0
SPLINE
  5
25a
100
AcDbEntity
  8
fav
 62
7
100
AcDbSpline
 70
8
 71
3
 72
8
 73
4
 74
0
 40
0
 40
0
 40
0
 40
0
 40
1
 40
1
 40
1
 40
1
 10
26.828531
 20
38.525641
 30
0.0
 10
26.914745
 20
38.611856
 30
0.0
 10
27.031677
 20
38.660290
 30
0.0
 10
27.153603
 20
38.660290
 30
0.0
  0
LWPOLYLINE
  5
25b
100
AcDbEntity
  8
fav
 62
7
100
AcDbPolyline
 90
2
 70
0
 10
26.693882
 20
36.101839
 30
0.0
 10
26.693882
 20
38.200569
 30
0.0
  0
LWPOLYLINE
  5
25c
100
AcDbEntity
  8
fav
 62
7
100
AcDbPolyline
 90
1
 70
1
 10
27.153603
 20
38.660290
 30
0.0
  0
SPLINE
  5
25d
100
AcDbEntity
  8
fav
 62
7
100
AcDbSpline
 70
8
 71
3
 72
8
 73
4
 74
0
 40
0
 40
0
 40
0
 40
0
 40
1
 40
1
 40
1
 40
1
 10
29.252322
 20
35.402269
 30
0.0
 10
29.374248
 20
35.402269
 30
0.0
 10
29.491180
 20
35.353834
 30
0.0
 10
29.577394
 20
35.267620
 30
0.0
  0
SPLINE
  5
25e
100
AcDbEntity
  8
fav
 62
7
100
AcDbSpline
 70
8
 71
3
 72
8
 73
4
 74
0
 40
0
 40
0
 40
0
 40
0
 40
1
 40
1
 40
1
 40
1
 10
29.577394
 20
35.267620
 30
0.0
 10
29.663609
 20
35.181406
 30
0.0
 10
29.712044
 20
35.064474
 30
0.0
 10
29.712044
 20
34.942548
 30
0.0
  0
LWPOLYLINE
  5
25f
100
AcDbEntity
  8
fav
 62
7
100
AcDbPolyline
 90
2
 70
0
 10
27.133616
 20
35.402269
 30
0.0
 10
29.252322
 20
35.402269
 30
0.0
  0
SPLINE
  5
260
100
AcDbEntity
  8
fav
 62
7
100
AcDbSpline
 70
8
 71
3
 72
8
 73
4
 74
0
 40
0
 40
0
 40
0
 40
0
 40
1
 40
1
 40
1
 40
1
 10
29.712044
 20
32.843818
 30
0.0
 10
29.712044
 20
32.721892
 30
0.0
 10
29.663609
 20
32.604960
 30
0.0
 10
29.577394
 20
32.518746
 30
0.0
  0
SPLINE
  5
261
100
AcDbEntity
  8
fav
 62
7
100
AcDbSpline
 70
8
 71
3
 72
8
 73
4
 74
0
 40
0
 40
0
 40
0
 40
0
 40
1
 40
1
 40
1
 40
1
 10
29.577394
 20
32.518746
 30
0.0
 10
29.491180
 20
32.432531
 30
0.0
 10
29.374248
 20
32.384097
 30
0.0
 10
29.252322
 20
32.384097
 30
0.0
  0
LWPOLYLINE
  5
262
100
AcDbEntity
  8
fav
 62
7
100
AcDbPolyline
 90
2
 70
0
 10
29.712044
 20
34.942548
 30
0.0
 10
29.712044
 20
32.843818
 30
0.0
  0
SPLINE
  5
263
100
AcDbEntity
  8
fav
 62
7
100
AcDbSpline
 70
8
 71
3
 72
8
 73
4
 74
0
 40
0
 40
0
 40
0
 40
0
 40
1
 40
1
 40
1
 40
1
 10
27.133616
 20
32.384097
 30
0.0
 10
27.011690
 20
32.384097
 30
0.0
 10
26.894758
 20
32.432531
 30
0.0
 10
26.808544
 20
32.518746
 30
0.0
  0
SPLINE
  5
264
100
AcDbEntity
  8
fav
 62
7
100
AcDbSpline
 70
8
 71
3
 72
8
 73
4
 74
0
 40
0
 40
0
 40
0
 40
0
 40
1
 40
1
 40
1
 40
1
 10
26.808544
 20
32.518746
 30
0.0
 10
26.722329
 20
32.604960
 30
0.0
 10
26.673894
 20
32.721892
 30
0.0
 10
26.673894
 20
32.843818
 30
0.0
  0
LWPOLYLINE
  5
265
100
AcDbEntity
  8
fav
 62
7
100
AcDbPolyline
 90
2
 70
0
 10
29.252322
 20
32.384097
 30
0.0
 10
27.133616
 20
32.384097
 30
0.0
  0
SPLINE
  5
266
100
AcDbEntity
  8
fav
 62
7
100
AcDbSpline
 70
8
 71
3
 72
8
 73
4
 74
0
 40
0
 40
0
 40
0
 40
0
 40
1
 40
1
 40
1
 40
1
 10
26.673894
 20
34.942548
 30
0.0
 10
26.673894
 20
35.064474
 30
0.0
 10
26.722329
 20
35.181406
 30
0.0
 10
26.808544
 20
35.267620
 30
0.0
  0
SPLINE
  5
267
100
AcDbEntity
  8
fav
 62
7
100
AcDbSpline
 70
8
 71
3
 72
8
 73
4
 74
0
 40
0
 40
0
 40
0
 40
0
 40
1
 40
1
 40
1
 40
1
 10
26.808544
 20
35.267620
 30
0.0
 10
26.894758
 20
35.353834
 30
0.0
 10
27.011690
 20
35.402269
 30
0.0
 10
27.133616
 20
35.402269
 30
0.0
  0
LWPOLYLINE
  5
268
100
AcDbEntity
  8
fav
 62
7
100
AcDbPolyline
 90
2
 70
0
 10
26.673894
 20
32.843818
 30
0.0
 10
26.673894
 20
34.942548
 30
0.0
  0
LWPOLYLINE
  5
269
100
AcDbEntity
  8
fav
 62
7
100
AcDbPolyline
 90
1
 70
1
 10
27.133616
 20
35.402269
 30
0.0
  0
LWPOLYLINE
  5
26a
100
AcDbEntity
  8
fav
 62
7
100
AcDbPolyline
 90
6
 70
1
 10
28.697663
 20
39.509775
 30
0.0
 10
27.833188
 20
39.509775
 30
0.0
 10
27.833188
 20
41.198750
 30
0.0
 10
28.018075
 20
41.198750
 30
0.0
 10
28.018075
 20
39.709654
 30
0.0
 10
28.697663
 20
39.709654
 30
0.0
  0
LWPOLYLINE
  5
26b
100
AcDbEntity
  8
fav
 62
7
100
AcDbPolyline
 90
9
 70
1
 10
28.086882
 20
37.958518
 30
0.0
 10
27.569947
 20
36.269204
 30
0.0
 10
27.755450
 20
36.269204
 30
0.0
 10
27.923640
 20
36.763879
 30
0.0
 10
28.482622
 20
36.771295
 30
0.0
 10
28.638444
 20
36.269200
 30
0.0
 10
28.848681
 20
36.269200
 30
0.0
 10
28.284752
 20
37.958514
 30
0.0
 10
28.086882
 20
37.958514
 30
0.0
  0
LWPOLYLINE
  5
26c
100
AcDbEntity
  8
fav
 62
7
100
AcDbPolyline
 90
3
 70
1
 10
28.190764
 20
37.669133
 30
0.0
 10
28.415841
 20
36.961749
 30
0.0
 10
27.963214
 20
36.961749
 30
0.0
  0
SPLINE
  5
26d
100
AcDbEntity
  8
fav
 62
7
100
AcDbSpline
 70
8
 71
3
 72
8
 73
4
 74
0
 40
0
 40
0
 40
0
 40
0
 40
1
 40
1
 40
1
 40
1
 10
28.272385
 20
33.024139
 30
0.0
 10
28.272385
 20
33.024139
 30
0.0
 10
28.726793
 20
33.007849
 30
0.0
 10
28.729959
 20
33.449559
 30
0.0
  0
SPLINE
  5
26e
100
AcDbEntity
  8
fav
 62
7
100
AcDbSpline
 70
8
 71
3
 72
8
 73
4
 74
0
 40
0
 40
0
 40
0
 40
0
 40
1
 40
1
 40
1
 40
1
 10
28.729959
 20
33.449559
 30
0.0
 10
28.733125
 20
33.891269
 30
0.0
 10
28.433155
 20
33.899713
 30
0.0
 10
28.433155
 20
33.899713
 30
0.0
  0
SPLINE
  5
26f
100
AcDbEntity
  8
fav
 62
7
100
AcDbSpline
 70
8
 71
3
 72
8
 73
4
 74
0
 40
0
 40
0
 40
0
 40
0
 40
1
 40
1
 40
1
 40
1
 10
28.433155
 20
33.899713
 30
0.0
 10
28.433155
 20
33.899713
 30
0.0
 10
28.682402
 20
33.982670
 30
0.0
 10
28.658231
 20
34.339973
 30
0.0
  0
SPLINE
  5
270
100
AcDbEntity
  8
fav
 62
7
100
AcDbSpline
 70
8
 71
3
 72
8
 73
4
 74
0
 40
0
 40
0
 40
0
 40
0
 40
1
 40
1
 40
1
 40
1
 10
28.658231
 20
34.339973
 30
0.0
 10
28.634061
 20
34.697276
 30
0.0
 10
28.190764
 20
34.713453
 30
0.0
 10
28.190764
 20
34.713453
 30
0.0
  0
LWPOLYLINE
  5
271
100
AcDbEntity
  8
fav
 62
7
100
AcDbPolyline
 90
3
 70
0
 10
27.683722
 20
34.713453
 30
0.0
 10
27.683722
 20
33.024139
 30
0.0
 10
28.272385
 20
33.024139
 30
0.0
  0
LWPOLYLINE
  5
272
100
AcDbEntity
  8
fav
 62
7
100
AcDbPolyline
 90
2
 70
0
 10
28.190764
 20
34.713453
 30
0.0
 10
27.683722
 20
34.713453
 30
0.0
  0
SPLINE
  5
273
100
AcDbEntity
  8
fav
 62
7
100
AcDbSpline
 70
8
 71
3
 72
8
 73
4
 74
0
 40
0
 40
0
 40
0
 40
0
 40
1
 40
1
 40
1
 40
1
 10
28.190764
 20
34.547737
 30
0.0
 10
28.190764
 20
34.547737
 30
0.0
 10
28.469527
 20
34.537032
 30
0.0
 10
28.475202
 20
34.255879
 30
0.0
  0
SPLINE
  5
274
100
AcDbEntity
  8
fav
 62
7
100
AcDbSpline
 70
8
 71
3
 72
8
 73
4
 74
0
 40
0
 40
0
 40
0
 40
0
 40
1
 40
1
 40
1
 40
1
 10
28.475202
 20
34.255879
 30
0.0
 10
28.480877
 20
33.974724
 30
0.0
 10
28.190764
 20
33.998648
 30
0.0
 10
28.190764
 20
33.998648
 30
0.0
  0
LWPOLYLINE
  5
275
100
AcDbEntity
  8
fav
 62
7
100
AcDbPolyline
 90
2
 70
0
 10
27.869225
 20
34.547737
 30
0.0
 10
28.190764
 20
34.547737
 30
0.0
  0
LWPOLYLINE
  5
276
100
AcDbEntity
  8
fav
 62
7
100
AcDbPolyline
 90
3
 70
0
 10
28.190764
 20
33.998648
 30
0.0
 10
27.869225
 20
33.998648
 30
0.0
 10
27.869225
 20
34.547737
 30
0.0
  0
SPLINE
  5
277
100
AcDbEntity
  8
fav
 62
7
100
AcDbSpline
 70
8
 71
3
 72
8
 73
4
 74
0
 40
0
 40
0
 40
0
 40
0
 40
1
 40
1
 40
1
 40
1
 10
28.242705
 20
33.803251
 30
0.0
 10
28.242705
 20
33.803251
 30
0.0
 10
28.524062
 20
33.801178
 30
0.0
 10
28.534563
 20
33.496553
 30
0.0
  0
SPLINE
  5
278
100
AcDbEntity
  8
fav
 62
7
100
AcDbSpline
 70
8
 71
3
 72
8
 73
4
 74
0
 40
0
 40
0
 40
0
 40
0
 40
1
 40
1
 40
1
 40
1
 10
28.534563
 20
33.496553
 30
0.0
 10
28.545063
 20
33.191930
 30
0.0
 10
28.272385
 20
33.194801
 30
0.0
 10
28.272385
 20
33.194801
 30
0.0
  0
LWPOLYLINE
  5
279
100
AcDbEntity
  8
fav
 62
7
100
AcDbPolyline
 90
2
 70
0
 10
27.869225
 20
33.803251
 30
0.0
 10
28.242705
 20
33.803251
 30
0.0
  0
LWPOLYLINE
  5
27a
100
AcDbEntity
  8
fav
 62
7
100
AcDbPolyline
 90
3
 70
0
 10
28.272385
 20
33.194801
 30
0.0
 10
27.869225
 20
33.194801
 30
0.0
 10
27.869225
 20
33.803251
 30
0.0
  0
SPLINE
  5
27b
100
AcDbEntity
  8
fav
 62
1
100
AcDbSpline
 70
8
 71
3
 72
8
 73
4
 74
0
 40
0
 40
0
 40
0
 40
0
 40
1
 40
1
 40
1
 40
1
 10
77.209502
 20
80.729689
 30
0.0
 10
77.716024
 20
80.729689
 30
0.0
 10
78.201800
 20
80.528473
 30
0.0
 10
78.559965
 20
80.170308
 30
0.0
  0
SPLINE
  5
27c
100
AcDbEntity
  8
fav
 62
1
100
AcDbSpline
 70
8
 71
3
 72
8
 73
4
 74
0
 40
0
 40
0
 40
0
 40
0
 40
1
 40
1
 40
1
 40
1
 10
78.559965
 20
80.170308
 30
0.0
 10
78.918130
 20
79.812143
 30
0.0
 10
79.119345
 20
79.326367
 30
0.0
 10
79.119345
 20
78.819845
 30
0.0
  0
LWPOLYLINE
  5
27d
100
AcDbEntity
  8
fav
 62
1
100
AcDbPolyline
 90
2
 70
0
 10
49.077173
 20
80.729689
 30
0.0
 10
77.209502
 20
80.729689
 30
0.0
  0
SPLINE
  5
27e
100
AcDbEntity
  8
fav
 62
1
100
AcDbSpline
 70
8
 71
3
 72
8
 73
4
 74
0
 40
0
 40
0
 40
0
 40
0
 40
1
 40
1
 40
1
 40
1
 10
79.119345
 20
58.448641
 30
0.0
 10
79.119345
 20
57.942119
 30
0.0
 10
78.918130
 20
57.456343
 30
0.0
 10
78.559965
 20
57.098178
 30
0.0
  0
SPLINE
  5
27f
100
AcDbEntity
  8
fav
 62
1
100
AcDbSpline
 70
8
 71
3
 72
8
 73
4
 74
0
 40
0
 40
0
 40
0
 40
0
 40
1
 40
1
 40
1
 40
1
 10
78.559965
 20
57.098178
 30
0.0
 10
78.201800
 20
56.740013
 30
0.0
 10
77.716024
 20
56.538798
 30
0.0
 10
77.209502
 20
56.538798
 30
0.0
  0
LWPOLYLINE
  5
280
100
AcDbEntity
  8
fav
 62
1
100
AcDbPolyline
 90
2
 70
0
 10
79.119345
 20
78.819845
 30
0.0
 10
79.119345
 20
58.448641
 30
0.0
  0
SPLINE
  5
281
100
AcDbEntity
  8
fav
 62
1
100
AcDbSpline
 70
8
 71
3
 72
8
 73
4
 74
0
 40
0
 40
0
 40
0
 40
0
 40
1
 40
1
 40
1
 40
1
 10
49.077173
 20
56.538798
 30
0.0
 10
48.570651
 20
56.538798
 30
0.0
 10
48.084875
 20
56.740013
 30
0.0
 10
47.726709
 20
57.098178
 30
0.0
  0
SPLINE
  5
282
100
AcDbEntity
  8
fav
 62
1
100
AcDbSpline
 70
8
 71
3
 72
8
 73
4
 74
0
 40
0
 40
0
 40
0
 40
0
 40
1
 40
1
 40
1
 40
1
 10
47.726709
 20
57.098178
 30
0.0
 10
47.368544
 20
57.456343
 30
0.0
 10
47.167329
 20
57.942119
 30
0.0
 10
47.167329
 20
58.448641
 30
0.0
  0
LWPOLYLINE
  5
283
100
AcDbEntity
  8
fav
 62
1
100
AcDbPolyline
 90
2
 70
0
 10
77.209502
 20
56.538798
 30
0.0
 10
49.077173
 20
56.538798
 30
0.0
  0
SPLINE
  5
284
100
AcDbEntity
  8
fav
 62
1
100
AcDbSpline
 70
8
 71
3
 72
8
 73
4
 74
0
 40
0
 40
0
 40
0
 40
0
 40
1
 40
1
 40
1
 40
1
 10
47.167329
 20
78.819845
 30
0.0
 10
47.167329
 20
79.326367
 30
0.0
 10
47.368544
 20
79.812143
 30
0.0
 10
47.726709
 20
80.170308
 30
0.0
  0
SPLINE
  5
285
100
AcDbEntity
  8
fav
 62
1
100
AcDbSpline
 70
8
 71
3
 72
8
 73
4
 74
0
 40
0
 40
0
 40
0
 40
0
 40
1
 40
1
 40
1
 40
1
 10
47.726709
 20
80.170308
 30
0.0
 10
48.084875
 20
80.528473
 30
0.0
 10
48.570651
 20
80.729689
 30
0.0
 10
49.077173
 20
80.729689
 30
0.0
  0
LWPOLYLINE
  5
286
100
AcDbEntity
  8
fav
 62
1
100
AcDbPolyline
 90
2
 70
0
 10
47.167329
 20
58.448641
 30
0.0
 10
47.167329
 20
78.819845
 30
0.0
  0
LWPOLYLINE
  5
287
100
AcDbEntity
  8
fav
 62
1
100
AcDbPolyline
 90
1
 70
1
 10
49.077173
 20
80.729689
 30
0.0
  0
SPLINE
  5
288
100
AcDbEntity
  8
fav
 62
1
100
AcDbSpline
 70
8
 71
3
 72
8
 73
4
 74
0
 40
0
 40
0
 40
0
 40
0
 40
1
 40
1
 40
1
 40
1
 10
40.571081
 20
61.831764
 30
0.0
 10
40.863956
 20
61.831764
 30
0.0
 10
41.144835
 20
61.715420
 30
0.0
 10
41.351929
 20
61.508327
 30
0.0
  0
SPLINE
  5
289
100
AcDbEntity
  8
fav
 62
1
100
AcDbSpline
 70
8
 71
3
 72
8
 73
4
 74
0
 40
0
 40
0
 40
0
 40
0
 40
1
 40
1
 40
1
 40
1
 10
41.351929
 20
61.508327
 30
0.0
 10
41.559022
 20
61.301233
 30
0.0
 10
41.675366
 20
61.020354
 30
0.0
 10
41.675366
 20
60.727479
 30
0.0
  0
LWPOLYLINE
  5
28a
100
AcDbEntity
  8
fav
 62
1
100
AcDbPolyline
 90
2
 70
0
 10
13.849614
 20
61.831764
 30
0.0
 10
40.571081
 20
61.831764
 30
0.0
  0
SPLINE
  5
28b
100
AcDbEntity
  8
fav
 62
1
100
AcDbSpline
 70
8
 71
3
 72
8
 73
4
 74
0
 40
0
 40
0
 40
0
 40
0
 40
1
 40
1
 40
1
 40
1
 10
41.675366
 20
48.948701
 30
0.0
 10
41.675366
 20
48.655826
 30
0.0
 10
41.559022
 20
48.374947
 30
0.0
 10
41.351929
 20
48.167853
 30
0.0
  0
SPLINE
  5
28c
100
AcDbEntity
  8
fav
 62
1
100
AcDbSpline
 70
8
 71
3
 72
8
 73
4
 74
0
 40
0
 40
0
 40
0
 40
0
 40
1
 40
1
 40
1
 40
1
 10
41.351929
 20
48.167853
 30
0.0
 10
41.144835
 20
47.960760
 30
0.0
 10
40.863956
 20
47.844416
 30
0.0
 10
40.571081
 20
47.844416
 30
0.0
  0
LWPOLYLINE
  5
28d
100
AcDbEntity
  8
fav
 62
1
100
AcDbPolyline
 90
2
 70
0
 10
41.675366
 20
60.727479
 30
0.0
 10
41.675366
 20
48.948701
 30
0.0
  0
SPLINE
  5
28e
100
AcDbEntity
  8
fav
 62
1
100
AcDbSpline
 70
8
 71
3
 72
8
 73
4
 74
0
 40
0
 40
0
 40
0
 40
0
 40
1
 40
1
 40
1
 40
1
 10
13.849614
 20
47.844416
 30
0.0
 10
13.556739
 20
47.844416
 30
0.0
 10
13.275860
 20
47.960760
 30
0.0
 10
13.068766
 20
48.167853
 30
0.0
  0
SPLINE
  5
28f
100
AcDbEntity
  8
fav
 62
1
100
AcDbSpline
 70
8
 71
3
 72
8
 73
4
 74
0
 40
0
 40
0
 40
0
 40
0
 40
1
 40
1
 40
1
 40
1
 10
13.068766
 20
48.167853
 30
0.0
 10
12.861673
 20
48.374947
 30
0.0
 10
12.745329
 20
48.655826
 30
0.0
 10
12.745329
 20
48.948701
 30
0.0
  0
LWPOLYLINE
  5
290
100
AcDbEntity
  8
fav
 62
1
100
AcDbPolyline
 90
2
 70
0
 10
40.571081
 20
47.844416
 30
0.0
 10
13.849614
 20
47.844416
 30
0.0
  0
SPLINE
  5
291
100
AcDbEntity
  8
fav
 62
1
100
AcDbSpline
 70
8
 71
3
 72
8
 73
4
 74
0
 40
0
 40
0
 40
0
 40
0
 40
1
 40
1
 40
1
 40
1
 10
12.745329
 20
60.727479
 30
0.0
 10
12.745329
 20
61.020354
 30
0.0
 10
12.861673
 20
61.301233
 30
0.0
 10
13.068766
 20
61.508327
 30
0.0
  0
SPLINE
  5
292
100
AcDbEntity
  8
fav
 62
1
100
AcDbSpline
 70
8
 71
3
 72
8
 73
4
 74
0
 40
0
 40
0
 40
0
 40
0
 40
1
 40
1
 40
1
 40
1
 10
13.068766
 20
61.508327
 30
0.0
 10
13.275860
 20
61.715420
 30
0.0
 10
13.556739
 20
61.831764
 30
0.0
 10
13.849614
 20
61.831764
 30
0.0
  0
LWPOLYLINE
  5
293
100
AcDbEntity
  8
fav
 62
1
100
AcDbPolyline
 90
2
 70
0
 10
12.745329
 20
48.948701
 30
0.0
 10
12.745329
 20
60.727479
 30
0.0
  0
LWPOLYLINE
  5
294
100
AcDbEntity
  8
fav
 62
1
100
AcDbPolyline
 90
1
 70
1
 10
13.849614
 20
61.831764
 30
0.0
  0
SPLINE
  5
295
100
AcDbEntity
  8
fav
 62
1
100
AcDbSpline
 70
8
 71
3
 72
8
 73
4
 74
0
 40
0
 40
0
 40
0
 40
0
 40
1
 40
1
 40
1
 40
1
 10
30.109506
 20
44.326521
 30
0.0
 10
30.592118
 20
44.326521
 30
0.0
 10
31.054963
 20
44.134805
 30
0.0
 10
31.396221
 20
43.793547
 30
0.0
  0
SPLINE
  5
296
100
AcDbEntity
  8
fav
 62
1
100
AcDbSpline
 70
8
 71
3
 72
8
 73
4
 74
0
 40
0
 40
0
 40
0
 40
0
 40
1
 40
1
 40
1
 40
1
 10
31.396221
 20
43.793547
 30
0.0
 10
31.737479
 20
43.452289
 30
0.0
 10
31.929195
 20
42.989444
 30
0.0
 10
31.929195
 20
42.506832
 30
0.0
  0
LWPOLYLINE
  5
297
100
AcDbEntity
  8
fav
 62
1
100
AcDbPolyline
 90
2
 70
0
 10
9.691981
 20
44.326521
 30
0.0
 10
30.109506
 20
44.326521
 30
0.0
  0
SPLINE
  5
298
100
AcDbEntity
  8
fav
 62
1
100
AcDbSpline
 70
8
 71
3
 72
8
 73
4
 74
0
 40
0
 40
0
 40
0
 40
0
 40
1
 40
1
 40
1
 40
1
 10
31.929195
 20
23.097248
 30
0.0
 10
31.929195
 20
22.614637
 30
0.0
 10
31.737479
 20
22.151792
 30
0.0
 10
31.396221
 20
21.810534
 30
0.0
  0
SPLINE
  5
299
100
AcDbEntity
  8
fav
 62
1
100
AcDbSpline
 70
8
 71
3
 72
8
 73
4
 74
0
 40
0
 40
0
 40
0
 40
0
 40
1
 40
1
 40
1
 40
1
 10
31.396221
 20
21.810534
 30
0.0
 10
31.054963
 20
21.469276
 30
0.0
 10
30.592118
 20
21.277559
 30
0.0
 10
30.109506
 20
21.277559
 30
0.0
  0
LWPOLYLINE
  5
29a
100
AcDbEntity
  8
fav
 62
1
100
AcDbPolyline
 90
2
 70
0
 10
31.929195
 20
42.506832
 30
0.0
 10
31.929195
 20
23.097248
 30
0.0
  0
SPLINE
  5
29b
100
AcDbEntity
  8
fav
 62
1
100
AcDbSpline
 70
8
 71
3
 72
8
 73
4
 74
0
 40
0
 40
0
 40
0
 40
0
 40
1
 40
1
 40
1
 40
1
 10
9.691981
 20
21.277559
 30
0.0
 10
9.209369
 20
21.277559
 30
0.0
 10
8.746524
 20
21.469276
 30
0.0
 10
8.405266
 20
21.810534
 30
0.0
  0
SPLINE
  5
29c
100
AcDbEntity
  8
fav
 62
1
100
AcDbSpline
 70
8
 71
3
 72
8
 73
4
 74
0
 40
0
 40
0
 40
0
 40
0
 40
1
 40
1
 40
1
 40
1
 10
8.405266
 20
21.810534
 30
0.0
 10
8.064008
 20
22.151792
 30
0.0
 10
7.872291
 20
22.614637
 30
0.0
 10
7.872291
 20
23.097248
 30
0.0
  0
LWPOLYLINE
  5
29d
100
AcDbEntity
  8
fav
 62
1
100
AcDbPolyline
 90
2
 70
0
 10
30.109506
 20
21.277559
 30
0.0
 10
9.691981
 20
21.277559
 30
0.0
  0
SPLINE
  5
29e
100
AcDbEntity
  8
fav
 62
1
100
AcDbSpline
 70
8
 71
3
 72
8
 73
4
 74
0
 40
0
 40
0
 40
0
 40
0
 40
1
 40
1
 40
1
 40
1
 10
7.872291
 20
42.506832
 30
0.0
 10
7.872291
 20
42.989444
 30
0.0
 10
8.064008
 20
43.452289
 30
0.0
 10
8.405266
 20
43.793547
 30
0.0
  0
SPLINE
  5
29f
100
AcDbEntity
  8
fav
 62
1
100
AcDbSpline
 70
8
 71
3
 72
8
 73
4
 74
0
 40
0
 40
0
 40
0
 40
0
 40
1
 40
1
 40
1
 40
1
 10
8.405266
 20
43.793547
 30
0.0
 10
8.746524
 20
44.134805
 30
0.0
 10
9.209369
 20
44.326521
 30
0.0
 10
9.691981
 20
44.326521
 30
0.0
  0
LWPOLYLINE
  5
2a0
100
AcDbEntity
  8
fav
 62
1
100
AcDbPolyline
 90
2
 70
0
 10
7.872291
 20
23.097248
 30
0.0
 10
7.872291
 20
42.506832
 30
0.0
  0
LWPOLYLINE
  5
2a1
100
AcDbEntity
  8
fav
 62
1
100
AcDbPolyline
 90
1
 70
1
 10
9.691981
 20
44.326521
 30
0.0
  0
SPLINE
  5
2a2
100
AcDbEntity
  8
fav
 62
1
100
AcDbSpline
 70
8
 71
3
 72
8
 73
4
 74
0
 40
0
 40
0
 40
0
 40
0
 40
1
 40
1
 40
1
 40
1
 10
77.209502
 20
56.568308
 30
0.0
 10
77.716024
 20
56.568308
 30
0.0
 10
78.201800
 20
56.367093
 30
0.0
 10
78.559965
 20
56.008928
 30
0.0
  0
SPLINE
  5
2a3
100
AcDbEntity
  8
fav
 62
1
100
AcDbSpline
 70
8
 71
3
 72
8
 73
4
 74
0
 40
0
 40
0
 40
0
 40
0
 40
1
 40
1
 40
1
 40
1
 10
78.559965
 20
56.008928
 30
0.0
 10
78.918130
 20
55.650763
 30
0.0
 10
79.119345
 20
55.164987
 30
0.0
 10
79.119345
 20
54.658465
 30
0.0
  0
LWPOLYLINE
  5
2a4
100
AcDbEntity
  8
fav
 62
1
100
AcDbPolyline
 90
2
 70
0
 10
49.077173
 20
56.568308
 30
0.0
 10
77.209502
 20
56.568308
 30
0.0
  0
SPLINE
  5
2a5
100
AcDbEntity
  8
fav
 62
1
100
AcDbSpline
 70
8
 71
3
 72
8
 73
4
 74
0
 40
0
 40
0
 40
0
 40
0
 40
1
 40
1
 40
1
 40
1
 10
79.119345
 20
34.287261
 30
0.0
 10
79.119345
 20
33.780739
 30
0.0
 10
78.918130
 20
33.294963
 30
0.0
 10
78.559965
 20
32.936798
 30
0.0
  0
SPLINE
  5
2a6
100
AcDbEntity
  8
fav
 62
1
100
AcDbSpline
 70
8
 71
3
 72
8
 73
4
 74
0
 40
0
 40
0
 40
0
 40
0
 40
1
 40
1
 40
1
 40
1
 10
78.559965
 20
32.936798
 30
0.0
 10
78.201800
 20
32.578633
 30
0.0
 10
77.716024
 20
32.377418
 30
0.0
 10
77.209502
 20
32.377418
 30
0.0
  0
LWPOLYLINE
  5
2a7
100
AcDbEntity
  8
fav
 62
1
100
AcDbPolyline
 90
2
 70
0
 10
79.119345
 20
54.658465
 30
0.0
 10
79.119345
 20
34.287261
 30
0.0
  0
SPLINE
  5
2a8
100
AcDbEntity
  8
fav
 62
1
100
AcDbSpline
 70
8
 71
3
 72
8
 73
4
 74
0
 40
0
 40
0
 40
0
 40
0
 40
1
 40
1
 40
1
 40
1
 10
49.077173
 20
32.377418
 30
0.0
 10
48.570651
 20
32.377418
 30
0.0
 10
48.084875
 20
32.578633
 30
0.0
 10
47.726709
 20
32.936798
 30
0.0
  0
SPLINE
  5
2a9
100
AcDbEntity
  8
fav
 62
1
100
AcDbSpline
 70
8
 71
3
 72
8
 73
4
 74
0
 40
0
 40
0
 40
0
 40
0
 40
1
 40
1
 40
1
 40
1
 10
47.726709
 20
32.936798
 30
0.0
 10
47.368544
 20
33.294963
 30
0.0
 10
47.167329
 20
33.780739
 30
0.0
 10
47.167329
 20
34.287261
 30
0.0
  0
LWPOLYLINE
  5
2aa
100
AcDbEntity
  8
fav
 62
1
100
AcDbPolyline
 90
2
 70
0
 10
77.209502
 20
32.377418
 30
0.0
 10
49.077173
 20
32.377418
 30
0.0
  0
SPLINE
  5
2ab
100
AcDbEntity
  8
fav
 62
1
100
AcDbSpline
 70
8
 71
3
 72
8
 73
4
 74
0
 40
0
 40
0
 40
0
 40
0
 40
1
 40
1
 40
1
 40
1
 10
47.167329
 20
54.658465
 30
0.0
 10
47.167329
 20
55.164987
 30
0.0
 10
47.368544
 20
55.650763
 30
0.0
 10
47.726709
 20
56.008928
 30
0.0
  0
SPLINE
  5
2ac
100
AcDbEntity
  8
fav
 62
1
100
AcDbSpline
 70
8
 71
3
 72
8
 73
4
 74
0
 40
0
 40
0
 40
0
 40
0
 40
1
 40
1
 40
1
 40
1
 10
47.726709
 20
56.008928
 30
0.0
 10
48.084875
 20
56.367093
 30
0.0
 10
48.570651
 20
56.568308
 30
0.0
 10
49.077173
 20
56.568308
 30
0.0
  0
LWPOLYLINE
  5
2ad
100
AcDbEntity
  8
fav
 62
1
100
AcDbPolyline
 90
2
 70
0
 10
47.167329
 20
34.287261
 30
0.0
 10
47.167329
 20
54.658465
 30
0.0
  0
LWPOLYLINE
  5
2ae
100
AcDbEntity
  8
fav
 62
1
100
AcDbPolyline
 90
1
 70
1
 10
49.077173
 20
56.568308
 30
0.0
  0
LWPOLYLINE
  5
2af
100
AcDbEntity
  8
fav
 62
7
100
AcDbPolyline
 90
4
 70
1
 10
-0.000048
 20
10.676431
 30
0.0
 10
85.000087
 20
10.676431
 30
0.0
 10
85.000087
 20
5.676422
 30
0.0
 10
-0.000048
 20
5.676422
 30
0.0
  0
ENDSEC
  0
SECTION
  2
OBJECTS
  0
DICTIONARY
  5
C
330
0
100
AcDbDictionary
  3
ACAD_GROUP
350
D
  3
ACAD_MLINESTYLE
350
17
  0
DICTIONARY
  5
D
330
C
100
AcDbDictionary
  0
DICTIONARY
  5
1A
330
C
100
AcDbDictionary
  0
DICTIONARY
  5
17
330
C
100
AcDbDictionary
  3
STANDARD
350
18
  0
DICTIONARY
  5
19
330
C
100
AcDbDictionary
  0
ENDSEC
  0
EOF
